<mxfile host="app.diagrams.net" agent="Mozilla/5.0 (Windows NT 10.0; Win64; x64) AppleWebKit/537.36 (KHTML, like Gecko) Chrome/135.0.0.0 Safari/537.36" version="26.2.14">
  <diagram name="Trang-1" id="xsCMBH3LJMYdvhGYsyAO">
    <mxGraphModel dx="5657" dy="3723" grid="1" gridSize="10" guides="1" tooltips="1" connect="1" arrows="1" fold="1" page="1" pageScale="1" pageWidth="900" pageHeight="1600" math="0" shadow="0">
      <root>
        <mxCell id="0" />
        <mxCell id="1" parent="0" />
        <UserObject label="" plantUmlData="{&#xa;  &quot;data&quot;: &quot;@startuml\n\n&#39; ===== MODEL =====\nclass AccountAdmin {\n    - email: String\n    - password: String\n}\n\nclass Login {\n    - email: String\n    - password: String\n}\n\nclass Candidate {\n    - id: int\n    - name: String\n    - email: String\n    - password: String\n    - phone: String\n    - experience: int\n    - gender: String\n    - status: String\n    - description: String\n    - dob: Date\n}\n\nclass RecruitmentPosition {\n    - id: int\n    - name: String\n    - description: String\n    - minSalary: BigDecimal\n    - maxSalary: BigDecimal\n    - minExperience: int\n    - createdDate: LocalDate\n    - expiredDate: LocalDate\n    - technologyIds: String\n}\n\nclass Application {\n    - id: int\n    - candidateId: int\n    - recruitmentPositionId: int\n    - cvUrl: String\n    - progress: String\n    - interviewRequestDate: LocalDateTime\n    - interviewRequestResult: String\n    - interviewLink: String\n    - interviewTime: LocalDateTime\n    - interviewResult: String\n    - interviewResultNote: String\n    - destroyAt: LocalDateTime\n    - createAt: LocalDateTime\n    - updateAt: LocalDateTime\n    - destroyReason: String\n}\n\nclass Technology {\n    - id: int\n    - name: String\n}\n\n&#39; ===== DAO =====\ninterface AdminDao {\n    + getAccountAdmin(): AccountAdmin\n    + listCandidate(): List&lt;Candidate&gt;\n    + insertIsLogin(email: String, password: String): boolean\n    + getIsCheckLogin(): Login\n    + deleteIsLogin(email: String): boolean\n    + addNewCandidate(...)\n    + listTechnologyPagination(...)\n    + addTechnology(name: String): boolean\n    + updateTechnology(id: int, name: String): boolean\n    + deleteTechnology(id: int): boolean\n    + listTechnology(): List&lt;Technology&gt;\n    + listCandidatePagination(...)\n    + changeStatusOfCandidate(id: int): boolean\n    + resetPassword(id: int): boolean\n    + findCandidate(name: String): List&lt;Candidate&gt;\n    + filterExperience(min: int, max: int): List&lt;Candidate&gt;\n    + filterAge(min: int, max: int): List&lt;Candidate&gt;\n    + filterGender(gender: String): List&lt;Candidate&gt;\n    + filterTechnology(tech: String): List&lt;Candidate&gt;\n    + addNewPosition(...)\n    + updatePosition(...)\n    + deletePosition(id: int): boolean\n    + listPosition(...)\n    + listRecruitmentPosition(): List&lt;RecruitmentPosition&gt;\n    + listApplication(...)\n    + listApplicationByResult(result: String): List&lt;Application&gt;\n    + listFilterByProcess(process: String): List&lt;Application&gt;\n    + getApplication(id: int): Application\n    + interviewCandidate(id: int, link: String, time: LocalDateTime): boolean\n    + updateResultInterview(id: int, note: String, result: String): boolean\n    + deleteResultInterview(id: int, result: String): boolean\n    + getStatusAccount(email: String): String\n}\n\nclass AdminDaoImp {\n}\n\ninterface CandidateDao {\n    + updateProfile(id: int, name: String, email: String, phone: String, experience: int, gender: String): boolean\n    + changeMyPassword(id: int, password: String): boolean\n    + getCandidate(email: String): Candidate\n    + candidateConfirm(id: int): boolean\n    + applyForApplication(candidateId: int, recruitmentPositionId: int, cvUrl: String): boolean\n    + listMyInterview(candidateId: int, page: int, size: int): List&lt;Application&gt;\n    + getRecruitmentPositionById(id: int): RecruitmentPosition\n    + getApplicationsByCandidateId(candidateId: int): List&lt;Application&gt;\n    + deleteInterview(id: int): boolean\n    + getApplicationDetail(applicationId: int): Application\n    + getActiveRecruitmentPositions(page: int, size: int): List&lt;RecruitmentPosition&gt;\n}\n\nclass CandidateDaoImp {\n}\n\n&#39; ===== SERVICE =====\ninterface AdminService {\n    + getAccountAdmin(): AccountAdmin\n    + listCandidate(): List&lt;Candidate&gt;\n    + insertIsLogin(email: String, password: String): boolean\n    + getIsCheckLogin(): Login\n    + deleteIsLogin(email: String): boolean\n    + addNewCandidate(...)\n    + listTechnologyPagination(...)\n    + addTechnology(name: String): boolean\n    + updateTechnology(id: int, name: String): boolean\n    + deleteTechnology(id: int): boolean\n    + listTechnology(): List&lt;Technology&gt;\n    + listCandidatePagination(...)\n    + changeStatusOfCandidate(id: int): boolean\n    + resetPassword(id: int): boolean\n    + findCandidate(name: String): List&lt;Candidate&gt;\n    + filterExperience(min: int, max: int): List&lt;Candidate&gt;\n    + filterAge(min: int, max: int): List&lt;Candidate&gt;\n    + filterGender(gender: String): List&lt;Candidate&gt;\n    + filterTechnology(tech: String): List&lt;Candidate&gt;\n    + addNewPosition(...)\n    + updatePosition(...)\n    + deletePosition(id: int): boolean\n    + listPosition(...)\n    + listRecruitmentPosition(): List&lt;RecruitmentPosition&gt;\n    + listApplication(...)\n    + listApplicationByResult(result: String): List&lt;Application&gt;\n    + listFilterByProcess(process: String): List&lt;Application&gt;\n    + getApplication(id: int): Application\n    + interviewCandidate(id: int, link: String, time: LocalDateTime): boolean\n    + updateResultInterview(id: int, note: String, result: String): boolean\n    + deleteResultInterview(id: int, result: String): boolean\n    + getStatusAccount(email: String): String\n}\n\nclass AdminServiceImp {\n    - adminDao: AdminDao\n}\n\ninterface CandidateService {\n    + updateProfile(id: int, name: String, email: String, phone: String, experience: int, gender: String): boolean\n    + changeMyPassword(id: int, password: String): boolean\n    + getCandidate(email: String): Candidate\n    + candidateConfirm(id: int): boolean\n    + applyForApplication(candidateId: int, recruitmentPositionId: int, cvUrl: String): boolean\n    + listMyInterview(candidateId: int, page: int, size: int): List&lt;Application&gt;\n    + getRecruitmentPositionById(id: int): RecruitmentPosition\n    + getApplicationsByCandidateId(candidateId: int): List&lt;Application&gt;\n    + deleteInterview(id: int): boolean\n    + getApplicationDetail(applicationId: int): Application\n    + getActiveRecruitmentPositions(page: int, size: int): List&lt;RecruitmentPosition&gt;\n}\n\nclass CandidateServiceImp {\n    - candidateDao: CandidateDao\n}\n\n&#39; ====== RELATIONSHIPS ======\n\n&#39; DAO implementations\nAdminDao &lt;|-- AdminDaoImp\nCandidateDao &lt;|-- CandidateDaoImp\n\n&#39; Service implementations\nAdminService &lt;|-- AdminServiceImp\nCandidateService &lt;|-- CandidateServiceImp\n\n&#39; Service extends DAO\nAdminService ..|&gt; AdminDao\nCandidateService ..|&gt; CandidateDao\n\n&#39; Service uses DAO\nAdminServiceImp --&gt; AdminDaoImp\nCandidateServiceImp --&gt; CandidateDaoImp\n\n&#39; DAO uses model\nAdminDao --&gt; AccountAdmin\nAdminDao --&gt; Candidate\nAdminDao --&gt; Application\nAdminDao --&gt; RecruitmentPosition\nAdminDao --&gt; Technology\nAdminDao --&gt; Login\n\nCandidateDao --&gt; Candidate\nCandidateDao --&gt; Application\nCandidateDao --&gt; RecruitmentPosition\n\n&#39; Model relationships\nApplication --&gt; Candidate : candidateId (1)\nApplication --&gt; RecruitmentPosition : recruitmentPositionId (1)\nRecruitmentPosition --&gt; Technology : technologyIds (0..1)\nLogin --&gt; Candidate : email (0..1)\nLogin --&gt; AccountAdmin : email (0..1)\n\n@enduml\n&quot;,&#xa;  &quot;format&quot;: &quot;svg&quot;&#xa;}" id="P6z36tL8Z1nABe8n3Khn-4">
          <mxCell style="shape=image;noLabel=1;verticalAlign=top;aspect=fixed;imageAspect=0;image=data:image/svg+xml,PHN2ZyB4bWxucz0iaHR0cDovL3d3dy53My5vcmcvMjAwMC9zdmciIHhtbG5zOnhsaW5rPSJodHRwOi8vd3d3LnczLm9yZy8xOTk5L3hsaW5rIiBjb250ZW50U3R5bGVUeXBlPSJ0ZXh0L2NzcyIgZGF0YS1kaWFncmFtLXR5cGU9IkNMQVNTIiBoZWlnaHQ9IjE4OTBweCIgcHJlc2VydmVBc3BlY3RSYXRpbz0ibm9uZSIgc3R5bGU9IndpZHRoOjE4NTJweDtoZWlnaHQ6MTg5MHB4O2JhY2tncm91bmQ6I0ZGRkZGRjsiIHZlcnNpb249IjEuMSIgdmlld0JveD0iMCAwIDE4NTIgMTg5MCIgd2lkdGg9IjE4NTJweCIgem9vbUFuZFBhbj0ibWFnbmlmeSI+PGRlZnMvPjxnPjwhLS1jbGFzcyBBY2NvdW50QWRtaW4tLT48ZyBjbGFzcz0iZW50aXR5IiBkYXRhLWVudGl0eT0iQWNjb3VudEFkbWluIiBkYXRhLXNvdXJjZS1saW5lPSIyIiBkYXRhLXVpZD0iZW50MDAwMiIgaWQ9ImVudGl0eV9BY2NvdW50QWRtaW4iPjxyZWN0IGZpbGw9IiNGMUYxRjEiIGhlaWdodD0iNzcuOTY4OCIgcng9IjIuNSIgcnk9IjIuNSIgc3R5bGU9InN0cm9rZTojMTgxODE4O3N0cm9rZS13aWR0aDowLjU7IiB3aWR0aD0iMTM4IiB4PSIzODYuNSIgeT0iMTU5MyIvPjxlbGxpcHNlIGN4PSI0MTEuNCIgY3k9IjE2MDkiIGZpbGw9IiNBREQxQjIiIHJ4PSIxMSIgcnk9IjExIiBzdHlsZT0ic3Ryb2tlOiMxODE4MTg7c3Ryb2tlLXdpZHRoOjE7Ii8+PHBhdGggZD0iTTQwOS4wMjUsMTYxMy4yNSBMNDA5LjAyNSwxNjE1IEw0MTMuOTYyNSwxNjE1IEw0MTMuOTYyNSwxNjEzLjI1IEw0MDkuMDI1LDE2MTMuMjUgWiBNNDA5LjcxMjUsMTYxMy45Mzc1IFE0MDkuNzEyNSwxNjEzLjkzNzUgNDA5LjcxMjUsMTYwNC43NSBMNDA3Ljk2MjUsMTYwNC43NSBRNDA3Ljk2MjUsMTYwNC43NSA0MDcuOTYyNSwxNjEzLjkzNzUgTDQwOS43MTI1LDE2MTMuOTM3NSBaIE00MTMuMjc1LDE2MTMuOTM3NSBMNDE1LjAyNSwxNjEzLjkzNzUgUTQxNS4wMjUsMTYxMy45Mzc1IDQxNS4wMjUsMTYxMS4xMjUgTDQxMy4yNzUsMTYxMS4xMjUgUTQxMy4yNzUsMTYxMS4xMjUgNDEzLjI3NSwxNjEzLjkzNzUgWiBNNDEzLjI3NSwxNjA0Ljc1IFE0MTMuMjc1LDE2MDQuNzUgNDEzLjI3NSwxNjA3LjU2MjUgTDQxNS4wMjUsMTYwNy41NjI1IFE0MTUuMDI1LDE2MDcuNTYyNSA0MTUuMDI1LDE2MDQuNzUgTDQxMy4yNzUsMTYwNC43NSBaIE00MDkuMDI1LDE2MDUuNDM3NSBMNDEzLjk2MjUsMTYwNS40Mzc1IEw0MTMuOTYyNSwxNjAzLjY4NzUgTDQwOS4wMjUsMTYwMy42ODc1IEw0MDkuMDI1LDE2MDUuNDM3NSBaICIgZmlsbD0iIzAwMDAwMCIvPjx0ZXh0IGZpbGw9IiMwMDAwMDAiIGZvbnQtZmFtaWx5PSJzYW5zLXNlcmlmIiBmb250LXNpemU9IjE0IiBsZW5ndGhBZGp1c3Q9InNwYWNpbmciIHRleHRMZW5ndGg9Ijg0IiB4PSI0MjcuNiIgeT0iMTYxNC43NDIyIj5BY2NvdW50QWRtaW48L3RleHQ+PGxpbmUgc3R5bGU9InN0cm9rZTojMTgxODE4O3N0cm9rZS13aWR0aDowLjU7IiB4MT0iMzg3LjUiIHgyPSI1MjMuNSIgeTE9IjE2MjUiIHkyPSIxNjI1Ii8+PHJlY3QgZmlsbD0ibm9uZSIgaGVpZ2h0PSI2IiBzdHlsZT0ic3Ryb2tlOiNDODI5MzA7c3Ryb2tlLXdpZHRoOjE7IiB3aWR0aD0iNiIgeD0iMzk0LjUiIHk9IjE2MzQuOTkyMiIvPjx0ZXh0IGZpbGw9IiMwMDAwMDAiIGZvbnQtZmFtaWx5PSJzYW5zLXNlcmlmIiBmb250LXNpemU9IjE0IiBsZW5ndGhBZGp1c3Q9InNwYWNpbmciIHRleHRMZW5ndGg9IjkxIiB4PSI0MDYuNSIgeT0iMTY0Mi4yMzQ0Ij5lbWFpbDogU3RyaW5nPC90ZXh0PjxyZWN0IGZpbGw9Im5vbmUiIGhlaWdodD0iNiIgc3R5bGU9InN0cm9rZTojQzgyOTMwO3N0cm9rZS13aWR0aDoxOyIgd2lkdGg9IjYiIHg9IjM5NC41IiB5PSIxNjQ5Ljk3NjYiLz48dGV4dCBmaWxsPSIjMDAwMDAwIiBmb250LWZhbWlseT0ic2Fucy1zZXJpZiIgZm9udC1zaXplPSIxNCIgbGVuZ3RoQWRqdXN0PSJzcGFjaW5nIiB0ZXh0TGVuZ3RoPSIxMTIiIHg9IjQwNi41IiB5PSIxNjU3LjIxODgiPnBhc3N3b3JkOiBTdHJpbmc8L3RleHQ+PGxpbmUgc3R5bGU9InN0cm9rZTojMTgxODE4O3N0cm9rZS13aWR0aDowLjU7IiB4MT0iMzg3LjUiIHgyPSI1MjMuNSIgeTE9IjE2NjIuOTY4OCIgeTI9IjE2NjIuOTY4OCIvPjwvZz48IS0tY2xhc3MgTG9naW4tLT48ZyBjbGFzcz0iZW50aXR5IiBkYXRhLWVudGl0eT0iTG9naW4iIGRhdGEtc291cmNlLWxpbmU9IjciIGRhdGEtdWlkPSJlbnQwMDAzIiBpZD0iZW50aXR5X0xvZ2luIj48cmVjdCBmaWxsPSIjRjFGMUYxIiBoZWlnaHQ9Ijc3Ljk2ODgiIHJ4PSIyLjUiIHJ5PSIyLjUiIHN0eWxlPSJzdHJva2U6IzE4MTgxODtzdHJva2Utd2lkdGg6MC41OyIgd2lkdGg9IjEzOCIgeD0iNDUzLjUiIHk9IjEyODIuNSIvPjxlbGxpcHNlIGN4PSI1MDAuNzUiIGN5PSIxMjk4LjUiIGZpbGw9IiNBREQxQjIiIHJ4PSIxMSIgcnk9IjExIiBzdHlsZT0ic3Ryb2tlOiMxODE4MTg7c3Ryb2tlLXdpZHRoOjE7Ii8+PHBhdGggZD0iTTQ5OC4zNzUsMTMwMi43NSBMNDk4LjM3NSwxMzA0LjUgTDUwMy4zMTI1LDEzMDQuNSBMNTAzLjMxMjUsMTMwMi43NSBMNDk4LjM3NSwxMzAyLjc1IFogTTQ5OS4wNjI1LDEzMDMuNDM3NSBRNDk5LjA2MjUsMTMwMy40Mzc1IDQ5OS4wNjI1LDEyOTQuMjUgTDQ5Ny4zMTI1LDEyOTQuMjUgUTQ5Ny4zMTI1LDEyOTQuMjUgNDk3LjMxMjUsMTMwMy40Mzc1IEw0OTkuMDYyNSwxMzAzLjQzNzUgWiBNNTAyLjYyNSwxMzAzLjQzNzUgTDUwNC4zNzUsMTMwMy40Mzc1IFE1MDQuMzc1LDEzMDMuNDM3NSA1MDQuMzc1LDEzMDAuNjI1IEw1MDIuNjI1LDEzMDAuNjI1IFE1MDIuNjI1LDEzMDAuNjI1IDUwMi42MjUsMTMwMy40Mzc1IFogTTUwMi42MjUsMTI5NC4yNSBRNTAyLjYyNSwxMjk0LjI1IDUwMi42MjUsMTI5Ny4wNjI1IEw1MDQuMzc1LDEyOTcuMDYyNSBRNTA0LjM3NSwxMjk3LjA2MjUgNTA0LjM3NSwxMjk0LjI1IEw1MDIuNjI1LDEyOTQuMjUgWiBNNDk4LjM3NSwxMjk0LjkzNzUgTDUwMy4zMTI1LDEyOTQuOTM3NSBMNTAzLjMxMjUsMTI5My4xODc1IEw0OTguMzc1LDEyOTMuMTg3NSBMNDk4LjM3NSwxMjk0LjkzNzUgWiAiIGZpbGw9IiMwMDAwMDAiLz48dGV4dCBmaWxsPSIjMDAwMDAwIiBmb250LWZhbWlseT0ic2Fucy1zZXJpZiIgZm9udC1zaXplPSIxNCIgbGVuZ3RoQWRqdXN0PSJzcGFjaW5nIiB0ZXh0TGVuZ3RoPSIzNSIgeD0iNTIxLjI1IiB5PSIxMzA0LjI0MjIiPkxvZ2luPC90ZXh0PjxsaW5lIHN0eWxlPSJzdHJva2U6IzE4MTgxODtzdHJva2Utd2lkdGg6MC41OyIgeDE9IjQ1NC41IiB4Mj0iNTkwLjUiIHkxPSIxMzE0LjUiIHkyPSIxMzE0LjUiLz48cmVjdCBmaWxsPSJub25lIiBoZWlnaHQ9IjYiIHN0eWxlPSJzdHJva2U6I0M4MjkzMDtzdHJva2Utd2lkdGg6MTsiIHdpZHRoPSI2IiB4PSI0NjEuNSIgeT0iMTMyNC40OTIyIi8+PHRleHQgZmlsbD0iIzAwMDAwMCIgZm9udC1mYW1pbHk9InNhbnMtc2VyaWYiIGZvbnQtc2l6ZT0iMTQiIGxlbmd0aEFkanVzdD0ic3BhY2luZyIgdGV4dExlbmd0aD0iOTEiIHg9IjQ3My41IiB5PSIxMzMxLjczNDQiPmVtYWlsOiBTdHJpbmc8L3RleHQ+PHJlY3QgZmlsbD0ibm9uZSIgaGVpZ2h0PSI2IiBzdHlsZT0ic3Ryb2tlOiNDODI5MzA7c3Ryb2tlLXdpZHRoOjE7IiB3aWR0aD0iNiIgeD0iNDYxLjUiIHk9IjEzMzkuNDc2NiIvPjx0ZXh0IGZpbGw9IiMwMDAwMDAiIGZvbnQtZmFtaWx5PSJzYW5zLXNlcmlmIiBmb250LXNpemU9IjE0IiBsZW5ndGhBZGp1c3Q9InNwYWNpbmciIHRleHRMZW5ndGg9IjExMiIgeD0iNDczLjUiIHk9IjEzNDYuNzE4OCI+cGFzc3dvcmQ6IFN0cmluZzwvdGV4dD48bGluZSBzdHlsZT0ic3Ryb2tlOiMxODE4MTg7c3Ryb2tlLXdpZHRoOjAuNTsiIHgxPSI0NTQuNSIgeDI9IjU5MC41IiB5MT0iMTM1Mi40Njg4IiB5Mj0iMTM1Mi40Njg4Ii8+PC9nPjwhLS1jbGFzcyBDYW5kaWRhdGUtLT48ZyBjbGFzcz0iZW50aXR5IiBkYXRhLWVudGl0eT0iQ2FuZGlkYXRlIiBkYXRhLXNvdXJjZS1saW5lPSIxMiIgZGF0YS11aWQ9ImVudDAwMDQiIGlkPSJlbnRpdHlfQ2FuZGlkYXRlIj48cmVjdCBmaWxsPSIjRjFGMUYxIiBoZWlnaHQ9IjE5Ny44NDM4IiByeD0iMi41IiByeT0iMi41IiBzdHlsZT0ic3Ryb2tlOiMxODE4MTg7c3Ryb2tlLXdpZHRoOjAuNTsiIHdpZHRoPSIxNTkiIHg9IjYzNCIgeT0iMTUzMyIvPjxlbGxpcHNlIGN4PSI2NzcuOCIgY3k9IjE1NDkiIGZpbGw9IiNBREQxQjIiIHJ4PSIxMSIgcnk9IjExIiBzdHlsZT0ic3Ryb2tlOiMxODE4MTg7c3Ryb2tlLXdpZHRoOjE7Ii8+PHBhdGggZD0iTTY3NS40MjUsMTU1My4yNSBMNjc1LjQyNSwxNTU1IEw2ODAuMzYyNSwxNTU1IEw2ODAuMzYyNSwxNTUzLjI1IEw2NzUuNDI1LDE1NTMuMjUgWiBNNjc2LjExMjUsMTU1My45Mzc1IFE2NzYuMTEyNSwxNTUzLjkzNzUgNjc2LjExMjUsMTU0NC43NSBMNjc0LjM2MjUsMTU0NC43NSBRNjc0LjM2MjUsMTU0NC43NSA2NzQuMzYyNSwxNTUzLjkzNzUgTDY3Ni4xMTI1LDE1NTMuOTM3NSBaIE02NzkuNjc1LDE1NTMuOTM3NSBMNjgxLjQyNSwxNTUzLjkzNzUgUTY4MS40MjUsMTU1My45Mzc1IDY4MS40MjUsMTU1MS4xMjUgTDY3OS42NzUsMTU1MS4xMjUgUTY3OS42NzUsMTU1MS4xMjUgNjc5LjY3NSwxNTUzLjkzNzUgWiBNNjc5LjY3NSwxNTQ0Ljc1IFE2NzkuNjc1LDE1NDQuNzUgNjc5LjY3NSwxNTQ3LjU2MjUgTDY4MS40MjUsMTU0Ny41NjI1IFE2ODEuNDI1LDE1NDcuNTYyNSA2ODEuNDI1LDE1NDQuNzUgTDY3OS42NzUsMTU0NC43NSBaIE02NzUuNDI1LDE1NDUuNDM3NSBMNjgwLjM2MjUsMTU0NS40Mzc1IEw2ODAuMzYyNSwxNTQzLjY4NzUgTDY3NS40MjUsMTU0My42ODc1IEw2NzUuNDI1LDE1NDUuNDM3NSBaICIgZmlsbD0iIzAwMDAwMCIvPjx0ZXh0IGZpbGw9IiMwMDAwMDAiIGZvbnQtZmFtaWx5PSJzYW5zLXNlcmlmIiBmb250LXNpemU9IjE0IiBsZW5ndGhBZGp1c3Q9InNwYWNpbmciIHRleHRMZW5ndGg9IjYzIiB4PSI2OTguMiIgeT0iMTU1NC43NDIyIj5DYW5kaWRhdGU8L3RleHQ+PGxpbmUgc3R5bGU9InN0cm9rZTojMTgxODE4O3N0cm9rZS13aWR0aDowLjU7IiB4MT0iNjM1IiB4Mj0iNzkyIiB5MT0iMTU2NSIgeTI9IjE1NjUiLz48cmVjdCBmaWxsPSJub25lIiBoZWlnaHQ9IjYiIHN0eWxlPSJzdHJva2U6I0M4MjkzMDtzdHJva2Utd2lkdGg6MTsiIHdpZHRoPSI2IiB4PSI2NDIiIHk9IjE1NzQuOTkyMiIvPjx0ZXh0IGZpbGw9IiMwMDAwMDAiIGZvbnQtZmFtaWx5PSJzYW5zLXNlcmlmIiBmb250LXNpemU9IjE0IiBsZW5ndGhBZGp1c3Q9InNwYWNpbmciIHRleHRMZW5ndGg9IjQ5IiB4PSI2NTQiIHk9IjE1ODIuMjM0NCI+aWQ6IGludDwvdGV4dD48cmVjdCBmaWxsPSJub25lIiBoZWlnaHQ9IjYiIHN0eWxlPSJzdHJva2U6I0M4MjkzMDtzdHJva2Utd2lkdGg6MTsiIHdpZHRoPSI2IiB4PSI2NDIiIHk9IjE1ODkuOTc2NiIvPjx0ZXh0IGZpbGw9IiMwMDAwMDAiIGZvbnQtZmFtaWx5PSJzYW5zLXNlcmlmIiBmb250LXNpemU9IjE0IiBsZW5ndGhBZGp1c3Q9InNwYWNpbmciIHRleHRMZW5ndGg9Ijg0IiB4PSI2NTQiIHk9IjE1OTcuMjE4OCI+bmFtZTogU3RyaW5nPC90ZXh0PjxyZWN0IGZpbGw9Im5vbmUiIGhlaWdodD0iNiIgc3R5bGU9InN0cm9rZTojQzgyOTMwO3N0cm9rZS13aWR0aDoxOyIgd2lkdGg9IjYiIHg9IjY0MiIgeT0iMTYwNC45NjA5Ii8+PHRleHQgZmlsbD0iIzAwMDAwMCIgZm9udC1mYW1pbHk9InNhbnMtc2VyaWYiIGZvbnQtc2l6ZT0iMTQiIGxlbmd0aEFkanVzdD0ic3BhY2luZyIgdGV4dExlbmd0aD0iOTEiIHg9IjY1NCIgeT0iMTYxMi4yMDMxIj5lbWFpbDogU3RyaW5nPC90ZXh0PjxyZWN0IGZpbGw9Im5vbmUiIGhlaWdodD0iNiIgc3R5bGU9InN0cm9rZTojQzgyOTMwO3N0cm9rZS13aWR0aDoxOyIgd2lkdGg9IjYiIHg9IjY0MiIgeT0iMTYxOS45NDUzIi8+PHRleHQgZmlsbD0iIzAwMDAwMCIgZm9udC1mYW1pbHk9InNhbnMtc2VyaWYiIGZvbnQtc2l6ZT0iMTQiIGxlbmd0aEFkanVzdD0ic3BhY2luZyIgdGV4dExlbmd0aD0iMTEyIiB4PSI2NTQiIHk9IjE2MjcuMTg3NSI+cGFzc3dvcmQ6IFN0cmluZzwvdGV4dD48cmVjdCBmaWxsPSJub25lIiBoZWlnaHQ9IjYiIHN0eWxlPSJzdHJva2U6I0M4MjkzMDtzdHJva2Utd2lkdGg6MTsiIHdpZHRoPSI2IiB4PSI2NDIiIHk9IjE2MzQuOTI5NyIvPjx0ZXh0IGZpbGw9IiMwMDAwMDAiIGZvbnQtZmFtaWx5PSJzYW5zLXNlcmlmIiBmb250LXNpemU9IjE0IiBsZW5ndGhBZGp1c3Q9InNwYWNpbmciIHRleHRMZW5ndGg9IjkxIiB4PSI2NTQiIHk9IjE2NDIuMTcxOSI+cGhvbmU6IFN0cmluZzwvdGV4dD48cmVjdCBmaWxsPSJub25lIiBoZWlnaHQ9IjYiIHN0eWxlPSJzdHJva2U6I0M4MjkzMDtzdHJva2Utd2lkdGg6MTsiIHdpZHRoPSI2IiB4PSI2NDIiIHk9IjE2NDkuOTE0MSIvPjx0ZXh0IGZpbGw9IiMwMDAwMDAiIGZvbnQtZmFtaWx5PSJzYW5zLXNlcmlmIiBmb250LXNpemU9IjE0IiBsZW5ndGhBZGp1c3Q9InNwYWNpbmciIHRleHRMZW5ndGg9IjEwNSIgeD0iNjU0IiB5PSIxNjU3LjE1NjMiPmV4cGVyaWVuY2U6IGludDwvdGV4dD48cmVjdCBmaWxsPSJub25lIiBoZWlnaHQ9IjYiIHN0eWxlPSJzdHJva2U6I0M4MjkzMDtzdHJva2Utd2lkdGg6MTsiIHdpZHRoPSI2IiB4PSI2NDIiIHk9IjE2NjQuODk4NCIvPjx0ZXh0IGZpbGw9IiMwMDAwMDAiIGZvbnQtZmFtaWx5PSJzYW5zLXNlcmlmIiBmb250LXNpemU9IjE0IiBsZW5ndGhBZGp1c3Q9InNwYWNpbmciIHRleHRMZW5ndGg9Ijk4IiB4PSI2NTQiIHk9IjE2NzIuMTQwNiI+Z2VuZGVyOiBTdHJpbmc8L3RleHQ+PHJlY3QgZmlsbD0ibm9uZSIgaGVpZ2h0PSI2IiBzdHlsZT0ic3Ryb2tlOiNDODI5MzA7c3Ryb2tlLXdpZHRoOjE7IiB3aWR0aD0iNiIgeD0iNjQyIiB5PSIxNjc5Ljg4MjgiLz48dGV4dCBmaWxsPSIjMDAwMDAwIiBmb250LWZhbWlseT0ic2Fucy1zZXJpZiIgZm9udC1zaXplPSIxNCIgbGVuZ3RoQWRqdXN0PSJzcGFjaW5nIiB0ZXh0TGVuZ3RoPSI5OCIgeD0iNjU0IiB5PSIxNjg3LjEyNSI+c3RhdHVzOiBTdHJpbmc8L3RleHQ+PHJlY3QgZmlsbD0ibm9uZSIgaGVpZ2h0PSI2IiBzdHlsZT0ic3Ryb2tlOiNDODI5MzA7c3Ryb2tlLXdpZHRoOjE7IiB3aWR0aD0iNiIgeD0iNjQyIiB5PSIxNjk0Ljg2NzIiLz48dGV4dCBmaWxsPSIjMDAwMDAwIiBmb250LWZhbWlseT0ic2Fucy1zZXJpZiIgZm9udC1zaXplPSIxNCIgbGVuZ3RoQWRqdXN0PSJzcGFjaW5nIiB0ZXh0TGVuZ3RoPSIxMzMiIHg9IjY1NCIgeT0iMTcwMi4xMDk0Ij5kZXNjcmlwdGlvbjogU3RyaW5nPC90ZXh0PjxyZWN0IGZpbGw9Im5vbmUiIGhlaWdodD0iNiIgc3R5bGU9InN0cm9rZTojQzgyOTMwO3N0cm9rZS13aWR0aDoxOyIgd2lkdGg9IjYiIHg9IjY0MiIgeT0iMTcwOS44NTE2Ii8+PHRleHQgZmlsbD0iIzAwMDAwMCIgZm9udC1mYW1pbHk9InNhbnMtc2VyaWYiIGZvbnQtc2l6ZT0iMTQiIGxlbmd0aEFkanVzdD0ic3BhY2luZyIgdGV4dExlbmd0aD0iNjMiIHg9IjY1NCIgeT0iMTcxNy4wOTM4Ij5kb2I6IERhdGU8L3RleHQ+PGxpbmUgc3R5bGU9InN0cm9rZTojMTgxODE4O3N0cm9rZS13aWR0aDowLjU7IiB4MT0iNjM1IiB4Mj0iNzkyIiB5MT0iMTcyMi44NDM4IiB5Mj0iMTcyMi44NDM4Ii8+PC9nPjwhLS1jbGFzcyBSZWNydWl0bWVudFBvc2l0aW9uLS0+PGcgY2xhc3M9ImVudGl0eSIgZGF0YS1lbnRpdHk9IlJlY3J1aXRtZW50UG9zaXRpb24iIGRhdGEtc291cmNlLWxpbmU9IjI1IiBkYXRhLXVpZD0iZW50MDAwNSIgaWQ9ImVudGl0eV9SZWNydWl0bWVudFBvc2l0aW9uIj48cmVjdCBmaWxsPSIjRjFGMUYxIiBoZWlnaHQ9IjE4Mi44NTk0IiByeD0iMi41IiByeT0iMi41IiBzdHlsZT0ic3Ryb2tlOiMxODE4MTg7c3Ryb2tlLXdpZHRoOjAuNTsiIHdpZHRoPSIxODAiIHg9IjkzNC41IiB5PSIxNTQwLjUiLz48ZWxsaXBzZSBjeD0iOTU2LjI1IiBjeT0iMTU1Ni41IiBmaWxsPSIjQUREMUIyIiByeD0iMTEiIHJ5PSIxMSIgc3R5bGU9InN0cm9rZTojMTgxODE4O3N0cm9rZS13aWR0aDoxOyIvPjxwYXRoIGQ9Ik05NTMuODc1LDE1NjAuNzUgTDk1My44NzUsMTU2Mi41IEw5NTguODEyNSwxNTYyLjUgTDk1OC44MTI1LDE1NjAuNzUgTDk1My44NzUsMTU2MC43NSBaIE05NTQuNTYyNSwxNTYxLjQzNzUgUTk1NC41NjI1LDE1NjEuNDM3NSA5NTQuNTYyNSwxNTUyLjI1IEw5NTIuODEyNSwxNTUyLjI1IFE5NTIuODEyNSwxNTUyLjI1IDk1Mi44MTI1LDE1NjEuNDM3NSBMOTU0LjU2MjUsMTU2MS40Mzc1IFogTTk1OC4xMjUsMTU2MS40Mzc1IEw5NTkuODc1LDE1NjEuNDM3NSBROTU5Ljg3NSwxNTYxLjQzNzUgOTU5Ljg3NSwxNTU4LjYyNSBMOTU4LjEyNSwxNTU4LjYyNSBROTU4LjEyNSwxNTU4LjYyNSA5NTguMTI1LDE1NjEuNDM3NSBaIE05NTguMTI1LDE1NTIuMjUgUTk1OC4xMjUsMTU1Mi4yNSA5NTguMTI1LDE1NTUuMDYyNSBMOTU5Ljg3NSwxNTU1LjA2MjUgUTk1OS44NzUsMTU1NS4wNjI1IDk1OS44NzUsMTU1Mi4yNSBMOTU4LjEyNSwxNTUyLjI1IFogTTk1My44NzUsMTU1Mi45Mzc1IEw5NTguODEyNSwxNTUyLjkzNzUgTDk1OC44MTI1LDE1NTEuMTg3NSBMOTUzLjg3NSwxNTUxLjE4NzUgTDk1My44NzUsMTU1Mi45Mzc1IFogIiBmaWxsPSIjMDAwMDAwIi8+PHRleHQgZmlsbD0iIzAwMDAwMCIgZm9udC1mYW1pbHk9InNhbnMtc2VyaWYiIGZvbnQtc2l6ZT0iMTQiIGxlbmd0aEFkanVzdD0ic3BhY2luZyIgdGV4dExlbmd0aD0iMTMzIiB4PSI5NzEuNzUiIHk9IjE1NjIuMjQyMiI+UmVjcnVpdG1lbnRQb3NpdGlvbjwvdGV4dD48bGluZSBzdHlsZT0ic3Ryb2tlOiMxODE4MTg7c3Ryb2tlLXdpZHRoOjAuNTsiIHgxPSI5MzUuNSIgeDI9IjExMTMuNSIgeTE9IjE1NzIuNSIgeTI9IjE1NzIuNSIvPjxyZWN0IGZpbGw9Im5vbmUiIGhlaWdodD0iNiIgc3R5bGU9InN0cm9rZTojQzgyOTMwO3N0cm9rZS13aWR0aDoxOyIgd2lkdGg9IjYiIHg9Ijk0Mi41IiB5PSIxNTgyLjQ5MjIiLz48dGV4dCBmaWxsPSIjMDAwMDAwIiBmb250LWZhbWlseT0ic2Fucy1zZXJpZiIgZm9udC1zaXplPSIxNCIgbGVuZ3RoQWRqdXN0PSJzcGFjaW5nIiB0ZXh0TGVuZ3RoPSI0OSIgeD0iOTU0LjUiIHk9IjE1ODkuNzM0NCI+aWQ6IGludDwvdGV4dD48cmVjdCBmaWxsPSJub25lIiBoZWlnaHQ9IjYiIHN0eWxlPSJzdHJva2U6I0M4MjkzMDtzdHJva2Utd2lkdGg6MTsiIHdpZHRoPSI2IiB4PSI5NDIuNSIgeT0iMTU5Ny40NzY2Ii8+PHRleHQgZmlsbD0iIzAwMDAwMCIgZm9udC1mYW1pbHk9InNhbnMtc2VyaWYiIGZvbnQtc2l6ZT0iMTQiIGxlbmd0aEFkanVzdD0ic3BhY2luZyIgdGV4dExlbmd0aD0iODQiIHg9Ijk1NC41IiB5PSIxNjA0LjcxODgiPm5hbWU6IFN0cmluZzwvdGV4dD48cmVjdCBmaWxsPSJub25lIiBoZWlnaHQ9IjYiIHN0eWxlPSJzdHJva2U6I0M4MjkzMDtzdHJva2Utd2lkdGg6MTsiIHdpZHRoPSI2IiB4PSI5NDIuNSIgeT0iMTYxMi40NjA5Ii8+PHRleHQgZmlsbD0iIzAwMDAwMCIgZm9udC1mYW1pbHk9InNhbnMtc2VyaWYiIGZvbnQtc2l6ZT0iMTQiIGxlbmd0aEFkanVzdD0ic3BhY2luZyIgdGV4dExlbmd0aD0iMTMzIiB4PSI5NTQuNSIgeT0iMTYxOS43MDMxIj5kZXNjcmlwdGlvbjogU3RyaW5nPC90ZXh0PjxyZWN0IGZpbGw9Im5vbmUiIGhlaWdodD0iNiIgc3R5bGU9InN0cm9rZTojQzgyOTMwO3N0cm9rZS13aWR0aDoxOyIgd2lkdGg9IjYiIHg9Ijk0Mi41IiB5PSIxNjI3LjQ0NTMiLz48dGV4dCBmaWxsPSIjMDAwMDAwIiBmb250LWZhbWlseT0ic2Fucy1zZXJpZiIgZm9udC1zaXplPSIxNCIgbGVuZ3RoQWRqdXN0PSJzcGFjaW5nIiB0ZXh0TGVuZ3RoPSIxNDciIHg9Ijk1NC41IiB5PSIxNjM0LjY4NzUiPm1pblNhbGFyeTogQmlnRGVjaW1hbDwvdGV4dD48cmVjdCBmaWxsPSJub25lIiBoZWlnaHQ9IjYiIHN0eWxlPSJzdHJva2U6I0M4MjkzMDtzdHJva2Utd2lkdGg6MTsiIHdpZHRoPSI2IiB4PSI5NDIuNSIgeT0iMTY0Mi40Mjk3Ii8+PHRleHQgZmlsbD0iIzAwMDAwMCIgZm9udC1mYW1pbHk9InNhbnMtc2VyaWYiIGZvbnQtc2l6ZT0iMTQiIGxlbmd0aEFkanVzdD0ic3BhY2luZyIgdGV4dExlbmd0aD0iMTQ3IiB4PSI5NTQuNSIgeT0iMTY0OS42NzE5Ij5tYXhTYWxhcnk6IEJpZ0RlY2ltYWw8L3RleHQ+PHJlY3QgZmlsbD0ibm9uZSIgaGVpZ2h0PSI2IiBzdHlsZT0ic3Ryb2tlOiNDODI5MzA7c3Ryb2tlLXdpZHRoOjE7IiB3aWR0aD0iNiIgeD0iOTQyLjUiIHk9IjE2NTcuNDE0MSIvPjx0ZXh0IGZpbGw9IiMwMDAwMDAiIGZvbnQtZmFtaWx5PSJzYW5zLXNlcmlmIiBmb250LXNpemU9IjE0IiBsZW5ndGhBZGp1c3Q9InNwYWNpbmciIHRleHRMZW5ndGg9IjEyNiIgeD0iOTU0LjUiIHk9IjE2NjQuNjU2MyI+bWluRXhwZXJpZW5jZTogaW50PC90ZXh0PjxyZWN0IGZpbGw9Im5vbmUiIGhlaWdodD0iNiIgc3R5bGU9InN0cm9rZTojQzgyOTMwO3N0cm9rZS13aWR0aDoxOyIgd2lkdGg9IjYiIHg9Ijk0Mi41IiB5PSIxNjcyLjM5ODQiLz48dGV4dCBmaWxsPSIjMDAwMDAwIiBmb250LWZhbWlseT0ic2Fucy1zZXJpZiIgZm9udC1zaXplPSIxNCIgbGVuZ3RoQWRqdXN0PSJzcGFjaW5nIiB0ZXh0TGVuZ3RoPSIxNTQiIHg9Ijk1NC41IiB5PSIxNjc5LjY0MDYiPmNyZWF0ZWREYXRlOiBMb2NhbERhdGU8L3RleHQ+PHJlY3QgZmlsbD0ibm9uZSIgaGVpZ2h0PSI2IiBzdHlsZT0ic3Ryb2tlOiNDODI5MzA7c3Ryb2tlLXdpZHRoOjE7IiB3aWR0aD0iNiIgeD0iOTQyLjUiIHk9IjE2ODcuMzgyOCIvPjx0ZXh0IGZpbGw9IiMwMDAwMDAiIGZvbnQtZmFtaWx5PSJzYW5zLXNlcmlmIiBmb250LXNpemU9IjE0IiBsZW5ndGhBZGp1c3Q9InNwYWNpbmciIHRleHRMZW5ndGg9IjE1NCIgeD0iOTU0LjUiIHk9IjE2OTQuNjI1Ij5leHBpcmVkRGF0ZTogTG9jYWxEYXRlPC90ZXh0PjxyZWN0IGZpbGw9Im5vbmUiIGhlaWdodD0iNiIgc3R5bGU9InN0cm9rZTojQzgyOTMwO3N0cm9rZS13aWR0aDoxOyIgd2lkdGg9IjYiIHg9Ijk0Mi41IiB5PSIxNzAyLjM2NzIiLz48dGV4dCBmaWxsPSIjMDAwMDAwIiBmb250LWZhbWlseT0ic2Fucy1zZXJpZiIgZm9udC1zaXplPSIxNCIgbGVuZ3RoQWRqdXN0PSJzcGFjaW5nIiB0ZXh0TGVuZ3RoPSIxNDciIHg9Ijk1NC41IiB5PSIxNzA5LjYwOTQiPnRlY2hub2xvZ3lJZHM6IFN0cmluZzwvdGV4dD48bGluZSBzdHlsZT0ic3Ryb2tlOiMxODE4MTg7c3Ryb2tlLXdpZHRoOjAuNTsiIHgxPSI5MzUuNSIgeDI9IjExMTMuNSIgeTE9IjE3MTUuMzU5NCIgeTI9IjE3MTUuMzU5NCIvPjwvZz48IS0tY2xhc3MgQXBwbGljYXRpb24tLT48ZyBjbGFzcz0iZW50aXR5IiBkYXRhLWVudGl0eT0iQXBwbGljYXRpb24iIGRhdGEtc291cmNlLWxpbmU9IjM3IiBkYXRhLXVpZD0iZW50MDAwNiIgaWQ9ImVudGl0eV9BcHBsaWNhdGlvbiI+PHJlY3QgZmlsbD0iI0YxRjFGMSIgaGVpZ2h0PSIyNzIuNzY1NiIgcng9IjIuNSIgcnk9IjIuNSIgc3R5bGU9InN0cm9rZTojMTgxODE4O3N0cm9rZS13aWR0aDowLjU7IiB3aWR0aD0iMjcxIiB4PSI3MjMiIHk9IjExODUiLz48ZWxsaXBzZSBjeD0iODE1Ljc1IiBjeT0iMTIwMSIgZmlsbD0iI0FERDFCMiIgcng9IjExIiByeT0iMTEiIHN0eWxlPSJzdHJva2U6IzE4MTgxODtzdHJva2Utd2lkdGg6MTsiLz48cGF0aCBkPSJNODEzLjM3NSwxMjA1LjI1IEw4MTMuMzc1LDEyMDcgTDgxOC4zMTI1LDEyMDcgTDgxOC4zMTI1LDEyMDUuMjUgTDgxMy4zNzUsMTIwNS4yNSBaIE04MTQuMDYyNSwxMjA1LjkzNzUgUTgxNC4wNjI1LDEyMDUuOTM3NSA4MTQuMDYyNSwxMTk2Ljc1IEw4MTIuMzEyNSwxMTk2Ljc1IFE4MTIuMzEyNSwxMTk2Ljc1IDgxMi4zMTI1LDEyMDUuOTM3NSBMODE0LjA2MjUsMTIwNS45Mzc1IFogTTgxNy42MjUsMTIwNS45Mzc1IEw4MTkuMzc1LDEyMDUuOTM3NSBRODE5LjM3NSwxMjA1LjkzNzUgODE5LjM3NSwxMjAzLjEyNSBMODE3LjYyNSwxMjAzLjEyNSBRODE3LjYyNSwxMjAzLjEyNSA4MTcuNjI1LDEyMDUuOTM3NSBaIE04MTcuNjI1LDExOTYuNzUgUTgxNy42MjUsMTE5Ni43NSA4MTcuNjI1LDExOTkuNTYyNSBMODE5LjM3NSwxMTk5LjU2MjUgUTgxOS4zNzUsMTE5OS41NjI1IDgxOS4zNzUsMTE5Ni43NSBMODE3LjYyNSwxMTk2Ljc1IFogTTgxMy4zNzUsMTE5Ny40Mzc1IEw4MTguMzEyNSwxMTk3LjQzNzUgTDgxOC4zMTI1LDExOTUuNjg3NSBMODEzLjM3NSwxMTk1LjY4NzUgTDgxMy4zNzUsMTE5Ny40Mzc1IFogIiBmaWxsPSIjMDAwMDAwIi8+PHRleHQgZmlsbD0iIzAwMDAwMCIgZm9udC1mYW1pbHk9InNhbnMtc2VyaWYiIGZvbnQtc2l6ZT0iMTQiIGxlbmd0aEFkanVzdD0ic3BhY2luZyIgdGV4dExlbmd0aD0iNzciIHg9IjgzNi4yNSIgeT0iMTIwNi43NDIyIj5BcHBsaWNhdGlvbjwvdGV4dD48bGluZSBzdHlsZT0ic3Ryb2tlOiMxODE4MTg7c3Ryb2tlLXdpZHRoOjAuNTsiIHgxPSI3MjQiIHgyPSI5OTMiIHkxPSIxMjE3IiB5Mj0iMTIxNyIvPjxyZWN0IGZpbGw9Im5vbmUiIGhlaWdodD0iNiIgc3R5bGU9InN0cm9rZTojQzgyOTMwO3N0cm9rZS13aWR0aDoxOyIgd2lkdGg9IjYiIHg9IjczMSIgeT0iMTIyNi45OTIyIi8+PHRleHQgZmlsbD0iIzAwMDAwMCIgZm9udC1mYW1pbHk9InNhbnMtc2VyaWYiIGZvbnQtc2l6ZT0iMTQiIGxlbmd0aEFkanVzdD0ic3BhY2luZyIgdGV4dExlbmd0aD0iNDkiIHg9Ijc0MyIgeT0iMTIzNC4yMzQ0Ij5pZDogaW50PC90ZXh0PjxyZWN0IGZpbGw9Im5vbmUiIGhlaWdodD0iNiIgc3R5bGU9InN0cm9rZTojQzgyOTMwO3N0cm9rZS13aWR0aDoxOyIgd2lkdGg9IjYiIHg9IjczMSIgeT0iMTI0MS45NzY2Ii8+PHRleHQgZmlsbD0iIzAwMDAwMCIgZm9udC1mYW1pbHk9InNhbnMtc2VyaWYiIGZvbnQtc2l6ZT0iMTQiIGxlbmd0aEFkanVzdD0ic3BhY2luZyIgdGV4dExlbmd0aD0iMTEyIiB4PSI3NDMiIHk9IjEyNDkuMjE4OCI+Y2FuZGlkYXRlSWQ6IGludDwvdGV4dD48cmVjdCBmaWxsPSJub25lIiBoZWlnaHQ9IjYiIHN0eWxlPSJzdHJva2U6I0M4MjkzMDtzdHJva2Utd2lkdGg6MTsiIHdpZHRoPSI2IiB4PSI3MzEiIHk9IjEyNTYuOTYwOSIvPjx0ZXh0IGZpbGw9IiMwMDAwMDAiIGZvbnQtZmFtaWx5PSJzYW5zLXNlcmlmIiBmb250LXNpemU9IjE0IiBsZW5ndGhBZGp1c3Q9InNwYWNpbmciIHRleHRMZW5ndGg9IjE4MiIgeD0iNzQzIiB5PSIxMjY0LjIwMzEiPnJlY3J1aXRtZW50UG9zaXRpb25JZDogaW50PC90ZXh0PjxyZWN0IGZpbGw9Im5vbmUiIGhlaWdodD0iNiIgc3R5bGU9InN0cm9rZTojQzgyOTMwO3N0cm9rZS13aWR0aDoxOyIgd2lkdGg9IjYiIHg9IjczMSIgeT0iMTI3MS45NDUzIi8+PHRleHQgZmlsbD0iIzAwMDAwMCIgZm9udC1mYW1pbHk9InNhbnMtc2VyaWYiIGZvbnQtc2l6ZT0iMTQiIGxlbmd0aEFkanVzdD0ic3BhY2luZyIgdGV4dExlbmd0aD0iOTEiIHg9Ijc0MyIgeT0iMTI3OS4xODc1Ij5jdlVybDogU3RyaW5nPC90ZXh0PjxyZWN0IGZpbGw9Im5vbmUiIGhlaWdodD0iNiIgc3R5bGU9InN0cm9rZTojQzgyOTMwO3N0cm9rZS13aWR0aDoxOyIgd2lkdGg9IjYiIHg9IjczMSIgeT0iMTI4Ni45Mjk3Ii8+PHRleHQgZmlsbD0iIzAwMDAwMCIgZm9udC1mYW1pbHk9InNhbnMtc2VyaWYiIGZvbnQtc2l6ZT0iMTQiIGxlbmd0aEFkanVzdD0ic3BhY2luZyIgdGV4dExlbmd0aD0iMTEyIiB4PSI3NDMiIHk9IjEyOTQuMTcxOSI+cHJvZ3Jlc3M6IFN0cmluZzwvdGV4dD48cmVjdCBmaWxsPSJub25lIiBoZWlnaHQ9IjYiIHN0eWxlPSJzdHJva2U6I0M4MjkzMDtzdHJva2Utd2lkdGg6MTsiIHdpZHRoPSI2IiB4PSI3MzEiIHk9IjEzMDEuOTE0MSIvPjx0ZXh0IGZpbGw9IiMwMDAwMDAiIGZvbnQtZmFtaWx5PSJzYW5zLXNlcmlmIiBmb250LXNpemU9IjE0IiBsZW5ndGhBZGp1c3Q9InNwYWNpbmciIHRleHRMZW5ndGg9IjI0NSIgeD0iNzQzIiB5PSIxMzA5LjE1NjMiPmludGVydmlld1JlcXVlc3REYXRlOiBMb2NhbERhdGVUaW1lPC90ZXh0PjxyZWN0IGZpbGw9Im5vbmUiIGhlaWdodD0iNiIgc3R5bGU9InN0cm9rZTojQzgyOTMwO3N0cm9rZS13aWR0aDoxOyIgd2lkdGg9IjYiIHg9IjczMSIgeT0iMTMxNi44OTg0Ii8+PHRleHQgZmlsbD0iIzAwMDAwMCIgZm9udC1mYW1pbHk9InNhbnMtc2VyaWYiIGZvbnQtc2l6ZT0iMTQiIGxlbmd0aEFkanVzdD0ic3BhY2luZyIgdGV4dExlbmd0aD0iMjEwIiB4PSI3NDMiIHk9IjEzMjQuMTQwNiI+aW50ZXJ2aWV3UmVxdWVzdFJlc3VsdDogU3RyaW5nPC90ZXh0PjxyZWN0IGZpbGw9Im5vbmUiIGhlaWdodD0iNiIgc3R5bGU9InN0cm9rZTojQzgyOTMwO3N0cm9rZS13aWR0aDoxOyIgd2lkdGg9IjYiIHg9IjczMSIgeT0iMTMzMS44ODI4Ii8+PHRleHQgZmlsbD0iIzAwMDAwMCIgZm9udC1mYW1pbHk9InNhbnMtc2VyaWYiIGZvbnQtc2l6ZT0iMTQiIGxlbmd0aEFkanVzdD0ic3BhY2luZyIgdGV4dExlbmd0aD0iMTQ3IiB4PSI3NDMiIHk9IjEzMzkuMTI1Ij5pbnRlcnZpZXdMaW5rOiBTdHJpbmc8L3RleHQ+PHJlY3QgZmlsbD0ibm9uZSIgaGVpZ2h0PSI2IiBzdHlsZT0ic3Ryb2tlOiNDODI5MzA7c3Ryb2tlLXdpZHRoOjE7IiB3aWR0aD0iNiIgeD0iNzMxIiB5PSIxMzQ2Ljg2NzIiLz48dGV4dCBmaWxsPSIjMDAwMDAwIiBmb250LWZhbWlseT0ic2Fucy1zZXJpZiIgZm9udC1zaXplPSIxNCIgbGVuZ3RoQWRqdXN0PSJzcGFjaW5nIiB0ZXh0TGVuZ3RoPSIxOTYiIHg9Ijc0MyIgeT0iMTM1NC4xMDk0Ij5pbnRlcnZpZXdUaW1lOiBMb2NhbERhdGVUaW1lPC90ZXh0PjxyZWN0IGZpbGw9Im5vbmUiIGhlaWdodD0iNiIgc3R5bGU9InN0cm9rZTojQzgyOTMwO3N0cm9rZS13aWR0aDoxOyIgd2lkdGg9IjYiIHg9IjczMSIgeT0iMTM2MS44NTE2Ii8+PHRleHQgZmlsbD0iIzAwMDAwMCIgZm9udC1mYW1pbHk9InNhbnMtc2VyaWYiIGZvbnQtc2l6ZT0iMTQiIGxlbmd0aEFkanVzdD0ic3BhY2luZyIgdGV4dExlbmd0aD0iMTYxIiB4PSI3NDMiIHk9IjEzNjkuMDkzOCI+aW50ZXJ2aWV3UmVzdWx0OiBTdHJpbmc8L3RleHQ+PHJlY3QgZmlsbD0ibm9uZSIgaGVpZ2h0PSI2IiBzdHlsZT0ic3Ryb2tlOiNDODI5MzA7c3Ryb2tlLXdpZHRoOjE7IiB3aWR0aD0iNiIgeD0iNzMxIiB5PSIxMzc2LjgzNTkiLz48dGV4dCBmaWxsPSIjMDAwMDAwIiBmb250LWZhbWlseT0ic2Fucy1zZXJpZiIgZm9udC1zaXplPSIxNCIgbGVuZ3RoQWRqdXN0PSJzcGFjaW5nIiB0ZXh0TGVuZ3RoPSIxODkiIHg9Ijc0MyIgeT0iMTM4NC4wNzgxIj5pbnRlcnZpZXdSZXN1bHROb3RlOiBTdHJpbmc8L3RleHQ+PHJlY3QgZmlsbD0ibm9uZSIgaGVpZ2h0PSI2IiBzdHlsZT0ic3Ryb2tlOiNDODI5MzA7c3Ryb2tlLXdpZHRoOjE7IiB3aWR0aD0iNiIgeD0iNzMxIiB5PSIxMzkxLjgyMDMiLz48dGV4dCBmaWxsPSIjMDAwMDAwIiBmb250LWZhbWlseT0ic2Fucy1zZXJpZiIgZm9udC1zaXplPSIxNCIgbGVuZ3RoQWRqdXN0PSJzcGFjaW5nIiB0ZXh0TGVuZ3RoPSIxNjgiIHg9Ijc0MyIgeT0iMTM5OS4wNjI1Ij5kZXN0cm95QXQ6IExvY2FsRGF0ZVRpbWU8L3RleHQ+PHJlY3QgZmlsbD0ibm9uZSIgaGVpZ2h0PSI2IiBzdHlsZT0ic3Ryb2tlOiNDODI5MzA7c3Ryb2tlLXdpZHRoOjE7IiB3aWR0aD0iNiIgeD0iNzMxIiB5PSIxNDA2LjgwNDciLz48dGV4dCBmaWxsPSIjMDAwMDAwIiBmb250LWZhbWlseT0ic2Fucy1zZXJpZiIgZm9udC1zaXplPSIxNCIgbGVuZ3RoQWRqdXN0PSJzcGFjaW5nIiB0ZXh0TGVuZ3RoPSIxNjEiIHg9Ijc0MyIgeT0iMTQxNC4wNDY5Ij5jcmVhdGVBdDogTG9jYWxEYXRlVGltZTwvdGV4dD48cmVjdCBmaWxsPSJub25lIiBoZWlnaHQ9IjYiIHN0eWxlPSJzdHJva2U6I0M4MjkzMDtzdHJva2Utd2lkdGg6MTsiIHdpZHRoPSI2IiB4PSI3MzEiIHk9IjE0MjEuNzg5MSIvPjx0ZXh0IGZpbGw9IiMwMDAwMDAiIGZvbnQtZmFtaWx5PSJzYW5zLXNlcmlmIiBmb250LXNpemU9IjE0IiBsZW5ndGhBZGp1c3Q9InNwYWNpbmciIHRleHRMZW5ndGg9IjE2MSIgeD0iNzQzIiB5PSIxNDI5LjAzMTMiPnVwZGF0ZUF0OiBMb2NhbERhdGVUaW1lPC90ZXh0PjxyZWN0IGZpbGw9Im5vbmUiIGhlaWdodD0iNiIgc3R5bGU9InN0cm9rZTojQzgyOTMwO3N0cm9rZS13aWR0aDoxOyIgd2lkdGg9IjYiIHg9IjczMSIgeT0iMTQzNi43NzM0Ii8+PHRleHQgZmlsbD0iIzAwMDAwMCIgZm9udC1mYW1pbHk9InNhbnMtc2VyaWYiIGZvbnQtc2l6ZT0iMTQiIGxlbmd0aEFkanVzdD0ic3BhY2luZyIgdGV4dExlbmd0aD0iMTQ3IiB4PSI3NDMiIHk9IjE0NDQuMDE1NiI+ZGVzdHJveVJlYXNvbjogU3RyaW5nPC90ZXh0PjxsaW5lIHN0eWxlPSJzdHJva2U6IzE4MTgxODtzdHJva2Utd2lkdGg6MC41OyIgeDE9IjcyNCIgeDI9Ijk5MyIgeTE9IjE0NDkuNzY1NiIgeTI9IjE0NDkuNzY1NiIvPjwvZz48IS0tY2xhc3MgVGVjaG5vbG9neS0tPjxnIGNsYXNzPSJlbnRpdHkiIGRhdGEtZW50aXR5PSJUZWNobm9sb2d5IiBkYXRhLXNvdXJjZS1saW5lPSI1NSIgZGF0YS11aWQ9ImVudDAwMDciIGlkPSJlbnRpdHlfVGVjaG5vbG9neSI+PHJlY3QgZmlsbD0iI0YxRjFGMSIgaGVpZ2h0PSI3Ny45Njg4IiByeD0iMi41IiByeT0iMi41IiBzdHlsZT0ic3Ryb2tlOiMxODE4MTg7c3Ryb2tlLXdpZHRoOjAuNTsiIHdpZHRoPSIxMTAiIHg9IjMwMy41IiB5PSIxODA2Ii8+PGVsbGlwc2UgY3g9IjMyMi4xIiBjeT0iMTgyMiIgZmlsbD0iI0FERDFCMiIgcng9IjExIiByeT0iMTEiIHN0eWxlPSJzdHJva2U6IzE4MTgxODtzdHJva2Utd2lkdGg6MTsiLz48cGF0aCBkPSJNMzE5LjcyNSwxODI2LjI1IEwzMTkuNzI1LDE4MjggTDMyNC42NjI1LDE4MjggTDMyNC42NjI1LDE4MjYuMjUgTDMxOS43MjUsMTgyNi4yNSBaIE0zMjAuNDEyNSwxODI2LjkzNzUgUTMyMC40MTI1LDE4MjYuOTM3NSAzMjAuNDEyNSwxODE3Ljc1IEwzMTguNjYyNSwxODE3Ljc1IFEzMTguNjYyNSwxODE3Ljc1IDMxOC42NjI1LDE4MjYuOTM3NSBMMzIwLjQxMjUsMTgyNi45Mzc1IFogTTMyMy45NzUsMTgyNi45Mzc1IEwzMjUuNzI1LDE4MjYuOTM3NSBRMzI1LjcyNSwxODI2LjkzNzUgMzI1LjcyNSwxODI0LjEyNSBMMzIzLjk3NSwxODI0LjEyNSBRMzIzLjk3NSwxODI0LjEyNSAzMjMuOTc1LDE4MjYuOTM3NSBaIE0zMjMuOTc1LDE4MTcuNzUgUTMyMy45NzUsMTgxNy43NSAzMjMuOTc1LDE4MjAuNTYyNSBMMzI1LjcyNSwxODIwLjU2MjUgUTMyNS43MjUsMTgyMC41NjI1IDMyNS43MjUsMTgxNy43NSBMMzIzLjk3NSwxODE3Ljc1IFogTTMxOS43MjUsMTgxOC40Mzc1IEwzMjQuNjYyNSwxODE4LjQzNzUgTDMyNC42NjI1LDE4MTYuNjg3NSBMMzE5LjcyNSwxODE2LjY4NzUgTDMxOS43MjUsMTgxOC40Mzc1IFogIiBmaWxsPSIjMDAwMDAwIi8+PHRleHQgZmlsbD0iIzAwMDAwMCIgZm9udC1mYW1pbHk9InNhbnMtc2VyaWYiIGZvbnQtc2l6ZT0iMTQiIGxlbmd0aEFkanVzdD0ic3BhY2luZyIgdGV4dExlbmd0aD0iNzAiIHg9IjMzNi45IiB5PSIxODI3Ljc0MjIiPlRlY2hub2xvZ3k8L3RleHQ+PGxpbmUgc3R5bGU9InN0cm9rZTojMTgxODE4O3N0cm9rZS13aWR0aDowLjU7IiB4MT0iMzA0LjUiIHgyPSI0MTIuNSIgeTE9IjE4MzgiIHkyPSIxODM4Ii8+PHJlY3QgZmlsbD0ibm9uZSIgaGVpZ2h0PSI2IiBzdHlsZT0ic3Ryb2tlOiNDODI5MzA7c3Ryb2tlLXdpZHRoOjE7IiB3aWR0aD0iNiIgeD0iMzExLjUiIHk9IjE4NDcuOTkyMiIvPjx0ZXh0IGZpbGw9IiMwMDAwMDAiIGZvbnQtZmFtaWx5PSJzYW5zLXNlcmlmIiBmb250LXNpemU9IjE0IiBsZW5ndGhBZGp1c3Q9InNwYWNpbmciIHRleHRMZW5ndGg9IjQ5IiB4PSIzMjMuNSIgeT0iMTg1NS4yMzQ0Ij5pZDogaW50PC90ZXh0PjxyZWN0IGZpbGw9Im5vbmUiIGhlaWdodD0iNiIgc3R5bGU9InN0cm9rZTojQzgyOTMwO3N0cm9rZS13aWR0aDoxOyIgd2lkdGg9IjYiIHg9IjMxMS41IiB5PSIxODYyLjk3NjYiLz48dGV4dCBmaWxsPSIjMDAwMDAwIiBmb250LWZhbWlseT0ic2Fucy1zZXJpZiIgZm9udC1zaXplPSIxNCIgbGVuZ3RoQWRqdXN0PSJzcGFjaW5nIiB0ZXh0TGVuZ3RoPSI4NCIgeD0iMzIzLjUiIHk9IjE4NzAuMjE4OCI+bmFtZTogU3RyaW5nPC90ZXh0PjxsaW5lIHN0eWxlPSJzdHJva2U6IzE4MTgxODtzdHJva2Utd2lkdGg6MC41OyIgeDE9IjMwNC41IiB4Mj0iNDEyLjUiIHkxPSIxODc1Ljk2ODgiIHkyPSIxODc1Ljk2ODgiLz48L2c+PCEtLWNsYXNzIEFkbWluRGFvLS0+PGcgY2xhc3M9ImVudGl0eSIgZGF0YS1lbnRpdHk9IkFkbWluRGFvIiBkYXRhLXNvdXJjZS1saW5lPSI2MSIgZGF0YS11aWQ9ImVudDAwMDgiIGlkPSJlbnRpdHlfQWRtaW5EYW8iPjxyZWN0IGZpbGw9IiNGMUYxRjEiIGhlaWdodD0iNTI3LjUiIHJ4PSIyLjUiIHJ5PSIyLjUiIHN0eWxlPSJzdHJva2U6IzE4MTgxODtzdHJva2Utd2lkdGg6MC41OyIgd2lkdGg9IjUyMyIgeD0iMjQwIiB5PSI1OTYiLz48ZWxsaXBzZSBjeD0iNDY5LjI1IiBjeT0iNjEyIiBmaWxsPSIjQjRBN0U1IiByeD0iMTEiIHJ5PSIxMSIgc3R5bGU9InN0cm9rZTojMTgxODE4O3N0cm9rZS13aWR0aDoxOyIvPjxwYXRoIGQ9Ik00NzIuMzc1LDYxOCBMNDcyLjM3NSw2MTYuMjUgTDQ3MC4yNSw2MTYuMjUgUTQ3MC4yNSw2MTYuMjUgNDcwLjI1LDYwOC40Mzc1IEw0NzIuMzc1LDYwOC40Mzc1IEw0NzIuMzc1LDYwNi42ODc1IEw0NjYuMzc1LDYwNi42ODc1IEw0NjYuMzc1LDYwOC40Mzc1IEw0NjguNSw2MDguNDM3NSBRNDY4LjUsNjA4LjQzNzUgNDY4LjUsNjE2LjI1IEw0NjYuMzc1LDYxNi4yNSBMNDY2LjM3NSw2MTggTDQ3Mi4zNzUsNjE4IFogIiBmaWxsPSIjMDAwMDAwIi8+PHRleHQgZmlsbD0iIzAwMDAwMCIgZm9udC1mYW1pbHk9InNhbnMtc2VyaWYiIGZvbnQtc2l6ZT0iMTQiIGZvbnQtc3R5bGU9Iml0YWxpYyIgbGVuZ3RoQWRqdXN0PSJzcGFjaW5nIiB0ZXh0TGVuZ3RoPSI1NiIgeD0iNDg5Ljc1IiB5PSI2MTcuNzQyMiI+QWRtaW5EYW88L3RleHQ+PGxpbmUgc3R5bGU9InN0cm9rZTojMTgxODE4O3N0cm9rZS13aWR0aDowLjU7IiB4MT0iMjQxIiB4Mj0iNzYyIiB5MT0iNjI4IiB5Mj0iNjI4Ii8+PGxpbmUgc3R5bGU9InN0cm9rZTojMTgxODE4O3N0cm9rZS13aWR0aDowLjU7IiB4MT0iMjQxIiB4Mj0iNzYyIiB5MT0iNjM2IiB5Mj0iNjM2Ii8+PGVsbGlwc2UgY3g9IjI1MSIgY3k9IjY0OC45OTIyIiBmaWxsPSIjODRCRTg0IiByeD0iMyIgcnk9IjMiIHN0eWxlPSJzdHJva2U6IzAzODA0ODtzdHJva2Utd2lkdGg6MTsiLz48dGV4dCBmaWxsPSIjMDAwMDAwIiBmb250LWZhbWlseT0ic2Fucy1zZXJpZiIgZm9udC1zaXplPSIxNCIgbGVuZ3RoQWRqdXN0PSJzcGFjaW5nIiB0ZXh0TGVuZ3RoPSIyMTciIHg9IjI2MCIgeT0iNjUzLjIzNDQiPmdldEFjY291bnRBZG1pbigpOiBBY2NvdW50QWRtaW48L3RleHQ+PGVsbGlwc2UgY3g9IjI1MSIgY3k9IjY2My45NzY2IiBmaWxsPSIjODRCRTg0IiByeD0iMyIgcnk9IjMiIHN0eWxlPSJzdHJva2U6IzAzODA0ODtzdHJva2Utd2lkdGg6MTsiLz48dGV4dCBmaWxsPSIjMDAwMDAwIiBmb250LWZhbWlseT0ic2Fucy1zZXJpZiIgZm9udC1zaXplPSIxNCIgbGVuZ3RoQWRqdXN0PSJzcGFjaW5nIiB0ZXh0TGVuZ3RoPSIyMjQiIHg9IjI2MCIgeT0iNjY4LjIxODgiPmxpc3RDYW5kaWRhdGUoKTogTGlzdCZsdDtDYW5kaWRhdGUmZ3Q7PC90ZXh0PjxlbGxpcHNlIGN4PSIyNTEiIGN5PSI2NzguOTYwOSIgZmlsbD0iIzg0QkU4NCIgcng9IjMiIHJ5PSIzIiBzdHlsZT0ic3Ryb2tlOiMwMzgwNDg7c3Ryb2tlLXdpZHRoOjE7Ii8+PHRleHQgZmlsbD0iIzAwMDAwMCIgZm9udC1mYW1pbHk9InNhbnMtc2VyaWYiIGZvbnQtc2l6ZT0iMTQiIGxlbmd0aEFkanVzdD0ic3BhY2luZyIgdGV4dExlbmd0aD0iMzg1IiB4PSIyNjAiIHk9IjY4My4yMDMxIj5pbnNlcnRJc0xvZ2luKGVtYWlsOiBTdHJpbmcsIHBhc3N3b3JkOiBTdHJpbmcpOiBib29sZWFuPC90ZXh0PjxlbGxpcHNlIGN4PSIyNTEiIGN5PSI2OTMuOTQ1MyIgZmlsbD0iIzg0QkU4NCIgcng9IjMiIHJ5PSIzIiBzdHlsZT0ic3Ryb2tlOiMwMzgwNDg7c3Ryb2tlLXdpZHRoOjE7Ii8+PHRleHQgZmlsbD0iIzAwMDAwMCIgZm9udC1mYW1pbHk9InNhbnMtc2VyaWYiIGZvbnQtc2l6ZT0iMTQiIGxlbmd0aEFkanVzdD0ic3BhY2luZyIgdGV4dExlbmd0aD0iMTY4IiB4PSIyNjAiIHk9IjY5OC4xODc1Ij5nZXRJc0NoZWNrTG9naW4oKTogTG9naW48L3RleHQ+PGVsbGlwc2UgY3g9IjI1MSIgY3k9IjcwOC45Mjk3IiBmaWxsPSIjODRCRTg0IiByeD0iMyIgcnk9IjMiIHN0eWxlPSJzdHJva2U6IzAzODA0ODtzdHJva2Utd2lkdGg6MTsiLz48dGV4dCBmaWxsPSIjMDAwMDAwIiBmb250LWZhbWlseT0ic2Fucy1zZXJpZiIgZm9udC1zaXplPSIxNCIgbGVuZ3RoQWRqdXN0PSJzcGFjaW5nIiB0ZXh0TGVuZ3RoPSIyNTkiIHg9IjI2MCIgeT0iNzEzLjE3MTkiPmRlbGV0ZUlzTG9naW4oZW1haWw6IFN0cmluZyk6IGJvb2xlYW48L3RleHQ+PGVsbGlwc2UgY3g9IjI1MSIgY3k9IjcyMy45MTQxIiBmaWxsPSIjODRCRTg0IiByeD0iMyIgcnk9IjMiIHN0eWxlPSJzdHJva2U6IzAzODA0ODtzdHJva2Utd2lkdGg6MTsiLz48dGV4dCBmaWxsPSIjMDAwMDAwIiBmb250LWZhbWlseT0ic2Fucy1zZXJpZiIgZm9udC1zaXplPSIxNCIgbGVuZ3RoQWRqdXN0PSJzcGFjaW5nIiB0ZXh0TGVuZ3RoPSIxNDAiIHg9IjI2MCIgeT0iNzI4LjE1NjMiPmFkZE5ld0NhbmRpZGF0ZSguLi4pPC90ZXh0PjxlbGxpcHNlIGN4PSIyNTEiIGN5PSI3MzguODk4NCIgZmlsbD0iIzg0QkU4NCIgcng9IjMiIHJ5PSIzIiBzdHlsZT0ic3Ryb2tlOiMwMzgwNDg7c3Ryb2tlLXdpZHRoOjE7Ii8+PHRleHQgZmlsbD0iIzAwMDAwMCIgZm9udC1mYW1pbHk9InNhbnMtc2VyaWYiIGZvbnQtc2l6ZT0iMTQiIGxlbmd0aEFkanVzdD0ic3BhY2luZyIgdGV4dExlbmd0aD0iMjAzIiB4PSIyNjAiIHk9Ijc0My4xNDA2Ij5saXN0VGVjaG5vbG9neVBhZ2luYXRpb24oLi4uKTwvdGV4dD48ZWxsaXBzZSBjeD0iMjUxIiBjeT0iNzUzLjg4MjgiIGZpbGw9IiM4NEJFODQiIHJ4PSIzIiByeT0iMyIgc3R5bGU9InN0cm9rZTojMDM4MDQ4O3N0cm9rZS13aWR0aDoxOyIvPjx0ZXh0IGZpbGw9IiMwMDAwMDAiIGZvbnQtZmFtaWx5PSJzYW5zLXNlcmlmIiBmb250LXNpemU9IjE0IiBsZW5ndGhBZGp1c3Q9InNwYWNpbmciIHRleHRMZW5ndGg9IjI1MiIgeD0iMjYwIiB5PSI3NTguMTI1Ij5hZGRUZWNobm9sb2d5KG5hbWU6IFN0cmluZyk6IGJvb2xlYW48L3RleHQ+PGVsbGlwc2UgY3g9IjI1MSIgY3k9Ijc2OC44NjcyIiBmaWxsPSIjODRCRTg0IiByeD0iMyIgcnk9IjMiIHN0eWxlPSJzdHJva2U6IzAzODA0ODtzdHJva2Utd2lkdGg6MTsiLz48dGV4dCBmaWxsPSIjMDAwMDAwIiBmb250LWZhbWlseT0ic2Fucy1zZXJpZiIgZm9udC1zaXplPSIxNCIgbGVuZ3RoQWRqdXN0PSJzcGFjaW5nIiB0ZXh0TGVuZ3RoPSIzMzYiIHg9IjI2MCIgeT0iNzczLjEwOTQiPnVwZGF0ZVRlY2hub2xvZ3koaWQ6IGludCwgbmFtZTogU3RyaW5nKTogYm9vbGVhbjwvdGV4dD48ZWxsaXBzZSBjeD0iMjUxIiBjeT0iNzgzLjg1MTYiIGZpbGw9IiM4NEJFODQiIHJ4PSIzIiByeT0iMyIgc3R5bGU9InN0cm9rZTojMDM4MDQ4O3N0cm9rZS13aWR0aDoxOyIvPjx0ZXh0IGZpbGw9IiMwMDAwMDAiIGZvbnQtZmFtaWx5PSJzYW5zLXNlcmlmIiBmb250LXNpemU9IjE0IiBsZW5ndGhBZGp1c3Q9InNwYWNpbmciIHRleHRMZW5ndGg9IjIzOCIgeD0iMjYwIiB5PSI3ODguMDkzOCI+ZGVsZXRlVGVjaG5vbG9neShpZDogaW50KTogYm9vbGVhbjwvdGV4dD48ZWxsaXBzZSBjeD0iMjUxIiBjeT0iNzk4LjgzNTkiIGZpbGw9IiM4NEJFODQiIHJ4PSIzIiByeT0iMyIgc3R5bGU9InN0cm9rZTojMDM4MDQ4O3N0cm9rZS13aWR0aDoxOyIvPjx0ZXh0IGZpbGw9IiMwMDAwMDAiIGZvbnQtZmFtaWx5PSJzYW5zLXNlcmlmIiBmb250LXNpemU9IjE0IiBsZW5ndGhBZGp1c3Q9InNwYWNpbmciIHRleHRMZW5ndGg9IjIzOCIgeD0iMjYwIiB5PSI4MDMuMDc4MSI+bGlzdFRlY2hub2xvZ3koKTogTGlzdCZsdDtUZWNobm9sb2d5Jmd0OzwvdGV4dD48ZWxsaXBzZSBjeD0iMjUxIiBjeT0iODEzLjgyMDMiIGZpbGw9IiM4NEJFODQiIHJ4PSIzIiByeT0iMyIgc3R5bGU9InN0cm9rZTojMDM4MDQ4O3N0cm9rZS13aWR0aDoxOyIvPjx0ZXh0IGZpbGw9IiMwMDAwMDAiIGZvbnQtZmFtaWx5PSJzYW5zLXNlcmlmIiBmb250LXNpemU9IjE0IiBsZW5ndGhBZGp1c3Q9InNwYWNpbmciIHRleHRMZW5ndGg9IjE5NiIgeD0iMjYwIiB5PSI4MTguMDYyNSI+bGlzdENhbmRpZGF0ZVBhZ2luYXRpb24oLi4uKTwvdGV4dD48ZWxsaXBzZSBjeD0iMjUxIiBjeT0iODI4LjgwNDciIGZpbGw9IiM4NEJFODQiIHJ4PSIzIiByeT0iMyIgc3R5bGU9InN0cm9rZTojMDM4MDQ4O3N0cm9rZS13aWR0aDoxOyIvPjx0ZXh0IGZpbGw9IiMwMDAwMDAiIGZvbnQtZmFtaWx5PSJzYW5zLXNlcmlmIiBmb250LXNpemU9IjE0IiBsZW5ndGhBZGp1c3Q9InNwYWNpbmciIHRleHRMZW5ndGg9IjI4NyIgeD0iMjYwIiB5PSI4MzMuMDQ2OSI+Y2hhbmdlU3RhdHVzT2ZDYW5kaWRhdGUoaWQ6IGludCk6IGJvb2xlYW48L3RleHQ+PGVsbGlwc2UgY3g9IjI1MSIgY3k9Ijg0My43ODkxIiBmaWxsPSIjODRCRTg0IiByeD0iMyIgcnk9IjMiIHN0eWxlPSJzdHJva2U6IzAzODA0ODtzdHJva2Utd2lkdGg6MTsiLz48dGV4dCBmaWxsPSIjMDAwMDAwIiBmb250LWZhbWlseT0ic2Fucy1zZXJpZiIgZm9udC1zaXplPSIxNCIgbGVuZ3RoQWRqdXN0PSJzcGFjaW5nIiB0ZXh0TGVuZ3RoPSIyMTciIHg9IjI2MCIgeT0iODQ4LjAzMTMiPnJlc2V0UGFzc3dvcmQoaWQ6IGludCk6IGJvb2xlYW48L3RleHQ+PGVsbGlwc2UgY3g9IjI1MSIgY3k9Ijg1OC43NzM0IiBmaWxsPSIjODRCRTg0IiByeD0iMyIgcnk9IjMiIHN0eWxlPSJzdHJva2U6IzAzODA0ODtzdHJva2Utd2lkdGg6MTsiLz48dGV4dCBmaWxsPSIjMDAwMDAwIiBmb250LWZhbWlseT0ic2Fucy1zZXJpZiIgZm9udC1zaXplPSIxNCIgbGVuZ3RoQWRqdXN0PSJzcGFjaW5nIiB0ZXh0TGVuZ3RoPSIzMDgiIHg9IjI2MCIgeT0iODYzLjAxNTYiPmZpbmRDYW5kaWRhdGUobmFtZTogU3RyaW5nKTogTGlzdCZsdDtDYW5kaWRhdGUmZ3Q7PC90ZXh0PjxlbGxpcHNlIGN4PSIyNTEiIGN5PSI4NzMuNzU3OCIgZmlsbD0iIzg0QkU4NCIgcng9IjMiIHJ5PSIzIiBzdHlsZT0ic3Ryb2tlOiMwMzgwNDg7c3Ryb2tlLXdpZHRoOjE7Ii8+PHRleHQgZmlsbD0iIzAwMDAwMCIgZm9udC1mYW1pbHk9InNhbnMtc2VyaWYiIGZvbnQtc2l6ZT0iMTQiIGxlbmd0aEFkanVzdD0ic3BhY2luZyIgdGV4dExlbmd0aD0iMzcxIiB4PSIyNjAiIHk9Ijg3OCI+ZmlsdGVyRXhwZXJpZW5jZShtaW46IGludCwgbWF4OiBpbnQpOiBMaXN0Jmx0O0NhbmRpZGF0ZSZndDs8L3RleHQ+PGVsbGlwc2UgY3g9IjI1MSIgY3k9Ijg4OC43NDIyIiBmaWxsPSIjODRCRTg0IiByeD0iMyIgcnk9IjMiIHN0eWxlPSJzdHJva2U6IzAzODA0ODtzdHJva2Utd2lkdGg6MTsiLz48dGV4dCBmaWxsPSIjMDAwMDAwIiBmb250LWZhbWlseT0ic2Fucy1zZXJpZiIgZm9udC1zaXplPSIxNCIgbGVuZ3RoQWRqdXN0PSJzcGFjaW5nIiB0ZXh0TGVuZ3RoPSIzMjIiIHg9IjI2MCIgeT0iODkyLjk4NDQiPmZpbHRlckFnZShtaW46IGludCwgbWF4OiBpbnQpOiBMaXN0Jmx0O0NhbmRpZGF0ZSZndDs8L3RleHQ+PGVsbGlwc2UgY3g9IjI1MSIgY3k9IjkwMy43MjY2IiBmaWxsPSIjODRCRTg0IiByeD0iMyIgcnk9IjMiIHN0eWxlPSJzdHJva2U6IzAzODA0ODtzdHJva2Utd2lkdGg6MTsiLz48dGV4dCBmaWxsPSIjMDAwMDAwIiBmb250LWZhbWlseT0ic2Fucy1zZXJpZiIgZm9udC1zaXplPSIxNCIgbGVuZ3RoQWRqdXN0PSJzcGFjaW5nIiB0ZXh0TGVuZ3RoPSIzMTUiIHg9IjI2MCIgeT0iOTA3Ljk2ODgiPmZpbHRlckdlbmRlcihnZW5kZXI6IFN0cmluZyk6IExpc3QmbHQ7Q2FuZGlkYXRlJmd0OzwvdGV4dD48ZWxsaXBzZSBjeD0iMjUxIiBjeT0iOTE4LjcxMDkiIGZpbGw9IiM4NEJFODQiIHJ4PSIzIiByeT0iMyIgc3R5bGU9InN0cm9rZTojMDM4MDQ4O3N0cm9rZS13aWR0aDoxOyIvPjx0ZXh0IGZpbGw9IiMwMDAwMDAiIGZvbnQtZmFtaWx5PSJzYW5zLXNlcmlmIiBmb250LXNpemU9IjE0IiBsZW5ndGhBZGp1c3Q9InNwYWNpbmciIHRleHRMZW5ndGg9IjMyOSIgeD0iMjYwIiB5PSI5MjIuOTUzMSI+ZmlsdGVyVGVjaG5vbG9neSh0ZWNoOiBTdHJpbmcpOiBMaXN0Jmx0O0NhbmRpZGF0ZSZndDs8L3RleHQ+PGVsbGlwc2UgY3g9IjI1MSIgY3k9IjkzMy42OTUzIiBmaWxsPSIjODRCRTg0IiByeD0iMyIgcnk9IjMiIHN0eWxlPSJzdHJva2U6IzAzODA0ODtzdHJva2Utd2lkdGg6MTsiLz48dGV4dCBmaWxsPSIjMDAwMDAwIiBmb250LWZhbWlseT0ic2Fucy1zZXJpZiIgZm9udC1zaXplPSIxNCIgbGVuZ3RoQWRqdXN0PSJzcGFjaW5nIiB0ZXh0TGVuZ3RoPSIxMzMiIHg9IjI2MCIgeT0iOTM3LjkzNzUiPmFkZE5ld1Bvc2l0aW9uKC4uLik8L3RleHQ+PGVsbGlwc2UgY3g9IjI1MSIgY3k9Ijk0OC42Nzk3IiBmaWxsPSIjODRCRTg0IiByeD0iMyIgcnk9IjMiIHN0eWxlPSJzdHJva2U6IzAzODA0ODtzdHJva2Utd2lkdGg6MTsiLz48dGV4dCBmaWxsPSIjMDAwMDAwIiBmb250LWZhbWlseT0ic2Fucy1zZXJpZiIgZm9udC1zaXplPSIxNCIgbGVuZ3RoQWRqdXN0PSJzcGFjaW5nIiB0ZXh0TGVuZ3RoPSIxMzMiIHg9IjI2MCIgeT0iOTUyLjkyMTkiPnVwZGF0ZVBvc2l0aW9uKC4uLik8L3RleHQ+PGVsbGlwc2UgY3g9IjI1MSIgY3k9Ijk2My42NjQxIiBmaWxsPSIjODRCRTg0IiByeD0iMyIgcnk9IjMiIHN0eWxlPSJzdHJva2U6IzAzODA0ODtzdHJva2Utd2lkdGg6MTsiLz48dGV4dCBmaWxsPSIjMDAwMDAwIiBmb250LWZhbWlseT0ic2Fucy1zZXJpZiIgZm9udC1zaXplPSIxNCIgbGVuZ3RoQWRqdXN0PSJzcGFjaW5nIiB0ZXh0TGVuZ3RoPSIyMjQiIHg9IjI2MCIgeT0iOTY3LjkwNjMiPmRlbGV0ZVBvc2l0aW9uKGlkOiBpbnQpOiBib29sZWFuPC90ZXh0PjxlbGxpcHNlIGN4PSIyNTEiIGN5PSI5NzguNjQ4NCIgZmlsbD0iIzg0QkU4NCIgcng9IjMiIHJ5PSIzIiBzdHlsZT0ic3Ryb2tlOiMwMzgwNDg7c3Ryb2tlLXdpZHRoOjE7Ii8+PHRleHQgZmlsbD0iIzAwMDAwMCIgZm9udC1mYW1pbHk9InNhbnMtc2VyaWYiIGZvbnQtc2l6ZT0iMTQiIGxlbmd0aEFkanVzdD0ic3BhY2luZyIgdGV4dExlbmd0aD0iMTE5IiB4PSIyNjAiIHk9Ijk4Mi44OTA2Ij5saXN0UG9zaXRpb24oLi4uKTwvdGV4dD48ZWxsaXBzZSBjeD0iMjUxIiBjeT0iOTkzLjYzMjgiIGZpbGw9IiM4NEJFODQiIHJ4PSIzIiByeT0iMyIgc3R5bGU9InN0cm9rZTojMDM4MDQ4O3N0cm9rZS13aWR0aDoxOyIvPjx0ZXh0IGZpbGw9IiMwMDAwMDAiIGZvbnQtZmFtaWx5PSJzYW5zLXNlcmlmIiBmb250LXNpemU9IjE0IiBsZW5ndGhBZGp1c3Q9InNwYWNpbmciIHRleHRMZW5ndGg9IjM2NCIgeD0iMjYwIiB5PSI5OTcuODc1Ij5saXN0UmVjcnVpdG1lbnRQb3NpdGlvbigpOiBMaXN0Jmx0O1JlY3J1aXRtZW50UG9zaXRpb24mZ3Q7PC90ZXh0PjxlbGxpcHNlIGN4PSIyNTEiIGN5PSIxMDA4LjYxNzIiIGZpbGw9IiM4NEJFODQiIHJ4PSIzIiByeT0iMyIgc3R5bGU9InN0cm9rZTojMDM4MDQ4O3N0cm9rZS13aWR0aDoxOyIvPjx0ZXh0IGZpbGw9IiMwMDAwMDAiIGZvbnQtZmFtaWx5PSJzYW5zLXNlcmlmIiBmb250LXNpemU9IjE0IiBsZW5ndGhBZGp1c3Q9InNwYWNpbmciIHRleHRMZW5ndGg9IjE0MCIgeD0iMjYwIiB5PSIxMDEyLjg1OTQiPmxpc3RBcHBsaWNhdGlvbiguLi4pPC90ZXh0PjxlbGxpcHNlIGN4PSIyNTEiIGN5PSIxMDIzLjYwMTYiIGZpbGw9IiM4NEJFODQiIHJ4PSIzIiByeT0iMyIgc3R5bGU9InN0cm9rZTojMDM4MDQ4O3N0cm9rZS13aWR0aDoxOyIvPjx0ZXh0IGZpbGw9IiMwMDAwMDAiIGZvbnQtZmFtaWx5PSJzYW5zLXNlcmlmIiBmb250LXNpemU9IjE0IiBsZW5ndGhBZGp1c3Q9InNwYWNpbmciIHRleHRMZW5ndGg9IjQwNiIgeD0iMjYwIiB5PSIxMDI3Ljg0MzgiPmxpc3RBcHBsaWNhdGlvbkJ5UmVzdWx0KHJlc3VsdDogU3RyaW5nKTogTGlzdCZsdDtBcHBsaWNhdGlvbiZndDs8L3RleHQ+PGVsbGlwc2UgY3g9IjI1MSIgY3k9IjEwMzguNTg1OSIgZmlsbD0iIzg0QkU4NCIgcng9IjMiIHJ5PSIzIiBzdHlsZT0ic3Ryb2tlOiMwMzgwNDg7c3Ryb2tlLXdpZHRoOjE7Ii8+PHRleHQgZmlsbD0iIzAwMDAwMCIgZm9udC1mYW1pbHk9InNhbnMtc2VyaWYiIGZvbnQtc2l6ZT0iMTQiIGxlbmd0aEFkanVzdD0ic3BhY2luZyIgdGV4dExlbmd0aD0iMzg1IiB4PSIyNjAiIHk9IjEwNDIuODI4MSI+bGlzdEZpbHRlckJ5UHJvY2Vzcyhwcm9jZXNzOiBTdHJpbmcpOiBMaXN0Jmx0O0FwcGxpY2F0aW9uJmd0OzwvdGV4dD48ZWxsaXBzZSBjeD0iMjUxIiBjeT0iMTA1My41NzAzIiBmaWxsPSIjODRCRTg0IiByeD0iMyIgcnk9IjMiIHN0eWxlPSJzdHJva2U6IzAzODA0ODtzdHJva2Utd2lkdGg6MTsiLz48dGV4dCBmaWxsPSIjMDAwMDAwIiBmb250LWZhbWlseT0ic2Fucy1zZXJpZiIgZm9udC1zaXplPSIxNCIgbGVuZ3RoQWRqdXN0PSJzcGFjaW5nIiB0ZXh0TGVuZ3RoPSIyNTIiIHg9IjI2MCIgeT0iMTA1Ny44MTI1Ij5nZXRBcHBsaWNhdGlvbihpZDogaW50KTogQXBwbGljYXRpb248L3RleHQ+PGVsbGlwc2UgY3g9IjI1MSIgY3k9IjEwNjguNTU0NyIgZmlsbD0iIzg0QkU4NCIgcng9IjMiIHJ5PSIzIiBzdHlsZT0ic3Ryb2tlOiMwMzgwNDg7c3Ryb2tlLXdpZHRoOjE7Ii8+PHRleHQgZmlsbD0iIzAwMDAwMCIgZm9udC1mYW1pbHk9InNhbnMtc2VyaWYiIGZvbnQtc2l6ZT0iMTQiIGxlbmd0aEFkanVzdD0ic3BhY2luZyIgdGV4dExlbmd0aD0iNDk3IiB4PSIyNjAiIHk9IjEwNzIuNzk2OSI+aW50ZXJ2aWV3Q2FuZGlkYXRlKGlkOiBpbnQsIGxpbms6IFN0cmluZywgdGltZTogTG9jYWxEYXRlVGltZSk6IGJvb2xlYW48L3RleHQ+PGVsbGlwc2UgY3g9IjI1MSIgY3k9IjEwODMuNTM5MSIgZmlsbD0iIzg0QkU4NCIgcng9IjMiIHJ5PSIzIiBzdHlsZT0ic3Ryb2tlOiMwMzgwNDg7c3Ryb2tlLXdpZHRoOjE7Ii8+PHRleHQgZmlsbD0iIzAwMDAwMCIgZm9udC1mYW1pbHk9InNhbnMtc2VyaWYiIGZvbnQtc2l6ZT0iMTQiIGxlbmd0aEFkanVzdD0ic3BhY2luZyIgdGV4dExlbmd0aD0iNDgzIiB4PSIyNjAiIHk9IjEwODcuNzgxMyI+dXBkYXRlUmVzdWx0SW50ZXJ2aWV3KGlkOiBpbnQsIG5vdGU6IFN0cmluZywgcmVzdWx0OiBTdHJpbmcpOiBib29sZWFuPC90ZXh0PjxlbGxpcHNlIGN4PSIyNTEiIGN5PSIxMDk4LjUyMzQiIGZpbGw9IiM4NEJFODQiIHJ4PSIzIiByeT0iMyIgc3R5bGU9InN0cm9rZTojMDM4MDQ4O3N0cm9rZS13aWR0aDoxOyIvPjx0ZXh0IGZpbGw9IiMwMDAwMDAiIGZvbnQtZmFtaWx5PSJzYW5zLXNlcmlmIiBmb250LXNpemU9IjE0IiBsZW5ndGhBZGp1c3Q9InNwYWNpbmciIHRleHRMZW5ndGg9IjM4NSIgeD0iMjYwIiB5PSIxMTAyLjc2NTYiPmRlbGV0ZVJlc3VsdEludGVydmlldyhpZDogaW50LCByZXN1bHQ6IFN0cmluZyk6IGJvb2xlYW48L3RleHQ+PGVsbGlwc2UgY3g9IjI1MSIgY3k9IjExMTMuNTA3OCIgZmlsbD0iIzg0QkU4NCIgcng9IjMiIHJ5PSIzIiBzdHlsZT0ic3Ryb2tlOiMwMzgwNDg7c3Ryb2tlLXdpZHRoOjE7Ii8+PHRleHQgZmlsbD0iIzAwMDAwMCIgZm9udC1mYW1pbHk9InNhbnMtc2VyaWYiIGZvbnQtc2l6ZT0iMTQiIGxlbmd0aEFkanVzdD0ic3BhY2luZyIgdGV4dExlbmd0aD0iMjczIiB4PSIyNjAiIHk9IjExMTcuNzUiPmdldFN0YXR1c0FjY291bnQoZW1haWw6IFN0cmluZyk6IFN0cmluZzwvdGV4dD48L2c+PCEtLWNsYXNzIEFkbWluRGFvSW1wLS0+PGcgY2xhc3M9ImVudGl0eSIgZGF0YS1lbnRpdHk9IkFkbWluRGFvSW1wIiBkYXRhLXNvdXJjZS1saW5lPSI5NiIgZGF0YS11aWQ9ImVudDAwMDkiIGlkPSJlbnRpdHlfQWRtaW5EYW9JbXAiPjxyZWN0IGZpbGw9IiNGMUYxRjEiIGhlaWdodD0iNDgiIHJ4PSIyLjUiIHJ5PSIyLjUiIHN0eWxlPSJzdHJva2U6IzE4MTgxODtzdHJva2Utd2lkdGg6MC41OyIgd2lkdGg9IjEwOSIgeD0iMTQ3IiB5PSIxMjk3LjUiLz48ZWxsaXBzZSBjeD0iMTYyIiBjeT0iMTMxMy41IiBmaWxsPSIjQUREMUIyIiByeD0iMTEiIHJ5PSIxMSIgc3R5bGU9InN0cm9rZTojMTgxODE4O3N0cm9rZS13aWR0aDoxOyIvPjxwYXRoIGQ9Ik0xNTkuNjI1LDEzMTcuNzUgTDE1OS42MjUsMTMxOS41IEwxNjQuNTYyNSwxMzE5LjUgTDE2NC41NjI1LDEzMTcuNzUgTDE1OS42MjUsMTMxNy43NSBaIE0xNjAuMzEyNSwxMzE4LjQzNzUgUTE2MC4zMTI1LDEzMTguNDM3NSAxNjAuMzEyNSwxMzA5LjI1IEwxNTguNTYyNSwxMzA5LjI1IFExNTguNTYyNSwxMzA5LjI1IDE1OC41NjI1LDEzMTguNDM3NSBMMTYwLjMxMjUsMTMxOC40Mzc1IFogTTE2My44NzUsMTMxOC40Mzc1IEwxNjUuNjI1LDEzMTguNDM3NSBRMTY1LjYyNSwxMzE4LjQzNzUgMTY1LjYyNSwxMzE1LjYyNSBMMTYzLjg3NSwxMzE1LjYyNSBRMTYzLjg3NSwxMzE1LjYyNSAxNjMuODc1LDEzMTguNDM3NSBaIE0xNjMuODc1LDEzMDkuMjUgUTE2My44NzUsMTMwOS4yNSAxNjMuODc1LDEzMTIuMDYyNSBMMTY1LjYyNSwxMzEyLjA2MjUgUTE2NS42MjUsMTMxMi4wNjI1IDE2NS42MjUsMTMwOS4yNSBMMTYzLjg3NSwxMzA5LjI1IFogTTE1OS42MjUsMTMwOS45Mzc1IEwxNjQuNTYyNSwxMzA5LjkzNzUgTDE2NC41NjI1LDEzMDguMTg3NSBMMTU5LjYyNSwxMzA4LjE4NzUgTDE1OS42MjUsMTMwOS45Mzc1IFogIiBmaWxsPSIjMDAwMDAwIi8+PHRleHQgZmlsbD0iIzAwMDAwMCIgZm9udC1mYW1pbHk9InNhbnMtc2VyaWYiIGZvbnQtc2l6ZT0iMTQiIGxlbmd0aEFkanVzdD0ic3BhY2luZyIgdGV4dExlbmd0aD0iNzciIHg9IjE3NiIgeT0iMTMxOS4yNDIyIj5BZG1pbkRhb0ltcDwvdGV4dD48bGluZSBzdHlsZT0ic3Ryb2tlOiMxODE4MTg7c3Ryb2tlLXdpZHRoOjAuNTsiIHgxPSIxNDgiIHgyPSIyNTUiIHkxPSIxMzI5LjUiIHkyPSIxMzI5LjUiLz48bGluZSBzdHlsZT0ic3Ryb2tlOiMxODE4MTg7c3Ryb2tlLXdpZHRoOjAuNTsiIHgxPSIxNDgiIHgyPSIyNTUiIHkxPSIxMzM3LjUiIHkyPSIxMzM3LjUiLz48L2c+PCEtLWNsYXNzIENhbmRpZGF0ZURhby0tPjxnIGNsYXNzPSJlbnRpdHkiIGRhdGEtZW50aXR5PSJDYW5kaWRhdGVEYW8iIGRhdGEtc291cmNlLWxpbmU9Ijk5IiBkYXRhLXVpZD0iZW50MDAxMCIgaWQ9ImVudGl0eV9DYW5kaWRhdGVEYW8iPjxyZWN0IGZpbGw9IiNGMUYxRjEiIGhlaWdodD0iMjEyLjgyODEiIHJ4PSIyLjUiIHJ5PSIyLjUiIHN0eWxlPSJzdHJva2U6IzE4MTgxODtzdHJva2Utd2lkdGg6MC41OyIgd2lkdGg9Ijc4MiIgeD0iNzk4LjUiIHk9Ijc1My41Ii8+PGVsbGlwc2UgY3g9IjExNDMuMjUiIGN5PSI3NjkuNSIgZmlsbD0iI0I0QTdFNSIgcng9IjExIiByeT0iMTEiIHN0eWxlPSJzdHJva2U6IzE4MTgxODtzdHJva2Utd2lkdGg6MTsiLz48cGF0aCBkPSJNMTE0Ni4zNzUsNzc1LjUgTDExNDYuMzc1LDc3My43NSBMMTE0NC4yNSw3NzMuNzUgUTExNDQuMjUsNzczLjc1IDExNDQuMjUsNzY1LjkzNzUgTDExNDYuMzc1LDc2NS45Mzc1IEwxMTQ2LjM3NSw3NjQuMTg3NSBMMTE0MC4zNzUsNzY0LjE4NzUgTDExNDAuMzc1LDc2NS45Mzc1IEwxMTQyLjUsNzY1LjkzNzUgUTExNDIuNSw3NjUuOTM3NSAxMTQyLjUsNzczLjc1IEwxMTQwLjM3NSw3NzMuNzUgTDExNDAuMzc1LDc3NS41IEwxMTQ2LjM3NSw3NzUuNSBaICIgZmlsbD0iIzAwMDAwMCIvPjx0ZXh0IGZpbGw9IiMwMDAwMDAiIGZvbnQtZmFtaWx5PSJzYW5zLXNlcmlmIiBmb250LXNpemU9IjE0IiBmb250LXN0eWxlPSJpdGFsaWMiIGxlbmd0aEFkanVzdD0ic3BhY2luZyIgdGV4dExlbmd0aD0iODQiIHg9IjExNjMuNzUiIHk9Ijc3NS4yNDIyIj5DYW5kaWRhdGVEYW88L3RleHQ+PGxpbmUgc3R5bGU9InN0cm9rZTojMTgxODE4O3N0cm9rZS13aWR0aDowLjU7IiB4MT0iNzk5LjUiIHgyPSIxNTc5LjUiIHkxPSI3ODUuNSIgeTI9Ijc4NS41Ii8+PGxpbmUgc3R5bGU9InN0cm9rZTojMTgxODE4O3N0cm9rZS13aWR0aDowLjU7IiB4MT0iNzk5LjUiIHgyPSIxNTc5LjUiIHkxPSI3OTMuNSIgeTI9Ijc5My41Ii8+PGVsbGlwc2UgY3g9IjgwOS41IiBjeT0iODA2LjQ5MjIiIGZpbGw9IiM4NEJFODQiIHJ4PSIzIiByeT0iMyIgc3R5bGU9InN0cm9rZTojMDM4MDQ4O3N0cm9rZS13aWR0aDoxOyIvPjx0ZXh0IGZpbGw9IiMwMDAwMDAiIGZvbnQtZmFtaWx5PSJzYW5zLXNlcmlmIiBmb250LXNpemU9IjE0IiBsZW5ndGhBZGp1c3Q9InNwYWNpbmciIHRleHRMZW5ndGg9Ijc1NiIgeD0iODE4LjUiIHk9IjgxMC43MzQ0Ij51cGRhdGVQcm9maWxlKGlkOiBpbnQsIG5hbWU6IFN0cmluZywgZW1haWw6IFN0cmluZywgcGhvbmU6IFN0cmluZywgZXhwZXJpZW5jZTogaW50LCBnZW5kZXI6IFN0cmluZyk6IGJvb2xlYW48L3RleHQ+PGVsbGlwc2UgY3g9IjgwOS41IiBjeT0iODIxLjQ3NjYiIGZpbGw9IiM4NEJFODQiIHJ4PSIzIiByeT0iMyIgc3R5bGU9InN0cm9rZTojMDM4MDQ4O3N0cm9rZS13aWR0aDoxOyIvPjx0ZXh0IGZpbGw9IiMwMDAwMDAiIGZvbnQtZmFtaWx5PSJzYW5zLXNlcmlmIiBmb250LXNpemU9IjE0IiBsZW5ndGhBZGp1c3Q9InNwYWNpbmciIHRleHRMZW5ndGg9IjM2NCIgeD0iODE4LjUiIHk9IjgyNS43MTg4Ij5jaGFuZ2VNeVBhc3N3b3JkKGlkOiBpbnQsIHBhc3N3b3JkOiBTdHJpbmcpOiBib29sZWFuPC90ZXh0PjxlbGxpcHNlIGN4PSI4MDkuNSIgY3k9IjgzNi40NjA5IiBmaWxsPSIjODRCRTg0IiByeD0iMyIgcnk9IjMiIHN0eWxlPSJzdHJva2U6IzAzODA0ODtzdHJva2Utd2lkdGg6MTsiLz48dGV4dCBmaWxsPSIjMDAwMDAwIiBmb250LWZhbWlseT0ic2Fucy1zZXJpZiIgZm9udC1zaXplPSIxNCIgbGVuZ3RoQWRqdXN0PSJzcGFjaW5nIiB0ZXh0TGVuZ3RoPSIyNjYiIHg9IjgxOC41IiB5PSI4NDAuNzAzMSI+Z2V0Q2FuZGlkYXRlKGVtYWlsOiBTdHJpbmcpOiBDYW5kaWRhdGU8L3RleHQ+PGVsbGlwc2UgY3g9IjgwOS41IiBjeT0iODUxLjQ0NTMiIGZpbGw9IiM4NEJFODQiIHJ4PSIzIiByeT0iMyIgc3R5bGU9InN0cm9rZTojMDM4MDQ4O3N0cm9rZS13aWR0aDoxOyIvPjx0ZXh0IGZpbGw9IiMwMDAwMDAiIGZvbnQtZmFtaWx5PSJzYW5zLXNlcmlmIiBmb250LXNpemU9IjE0IiBsZW5ndGhBZGp1c3Q9InNwYWNpbmciIHRleHRMZW5ndGg9IjIzOCIgeD0iODE4LjUiIHk9Ijg1NS42ODc1Ij5jYW5kaWRhdGVDb25maXJtKGlkOiBpbnQpOiBib29sZWFuPC90ZXh0PjxlbGxpcHNlIGN4PSI4MDkuNSIgY3k9Ijg2Ni40Mjk3IiBmaWxsPSIjODRCRTg0IiByeD0iMyIgcnk9IjMiIHN0eWxlPSJzdHJva2U6IzAzODA0ODtzdHJva2Utd2lkdGg6MTsiLz48dGV4dCBmaWxsPSIjMDAwMDAwIiBmb250LWZhbWlseT0ic2Fucy1zZXJpZiIgZm9udC1zaXplPSIxNCIgbGVuZ3RoQWRqdXN0PSJzcGFjaW5nIiB0ZXh0TGVuZ3RoPSI2MjMiIHg9IjgxOC41IiB5PSI4NzAuNjcxOSI+YXBwbHlGb3JBcHBsaWNhdGlvbihjYW5kaWRhdGVJZDogaW50LCByZWNydWl0bWVudFBvc2l0aW9uSWQ6IGludCwgY3ZVcmw6IFN0cmluZyk6IGJvb2xlYW48L3RleHQ+PGVsbGlwc2UgY3g9IjgwOS41IiBjeT0iODgxLjQxNDEiIGZpbGw9IiM4NEJFODQiIHJ4PSIzIiByeT0iMyIgc3R5bGU9InN0cm9rZTojMDM4MDQ4O3N0cm9rZS13aWR0aDoxOyIvPjx0ZXh0IGZpbGw9IiMwMDAwMDAiIGZvbnQtZmFtaWx5PSJzYW5zLXNlcmlmIiBmb250LXNpemU9IjE0IiBsZW5ndGhBZGp1c3Q9InNwYWNpbmciIHRleHRMZW5ndGg9IjUxOCIgeD0iODE4LjUiIHk9Ijg4NS42NTYzIj5saXN0TXlJbnRlcnZpZXcoY2FuZGlkYXRlSWQ6IGludCwgcGFnZTogaW50LCBzaXplOiBpbnQpOiBMaXN0Jmx0O0FwcGxpY2F0aW9uJmd0OzwvdGV4dD48ZWxsaXBzZSBjeD0iODA5LjUiIGN5PSI4OTYuMzk4NCIgZmlsbD0iIzg0QkU4NCIgcng9IjMiIHJ5PSIzIiBzdHlsZT0ic3Ryb2tlOiMwMzgwNDg7c3Ryb2tlLXdpZHRoOjE7Ii8+PHRleHQgZmlsbD0iIzAwMDAwMCIgZm9udC1mYW1pbHk9InNhbnMtc2VyaWYiIGZvbnQtc2l6ZT0iMTQiIGxlbmd0aEFkanVzdD0ic3BhY2luZyIgdGV4dExlbmd0aD0iMzkyIiB4PSI4MTguNSIgeT0iOTAwLjY0MDYiPmdldFJlY3J1aXRtZW50UG9zaXRpb25CeUlkKGlkOiBpbnQpOiBSZWNydWl0bWVudFBvc2l0aW9uPC90ZXh0PjxlbGxpcHNlIGN4PSI4MDkuNSIgY3k9IjkxMS4zODI4IiBmaWxsPSIjODRCRTg0IiByeD0iMyIgcnk9IjMiIHN0eWxlPSJzdHJva2U6IzAzODA0ODtzdHJva2Utd2lkdGg6MTsiLz48dGV4dCBmaWxsPSIjMDAwMDAwIiBmb250LWZhbWlseT0ic2Fucy1zZXJpZiIgZm9udC1zaXplPSIxNCIgbGVuZ3RoQWRqdXN0PSJzcGFjaW5nIiB0ZXh0TGVuZ3RoPSI0NTUiIHg9IjgxOC41IiB5PSI5MTUuNjI1Ij5nZXRBcHBsaWNhdGlvbnNCeUNhbmRpZGF0ZUlkKGNhbmRpZGF0ZUlkOiBpbnQpOiBMaXN0Jmx0O0FwcGxpY2F0aW9uJmd0OzwvdGV4dD48ZWxsaXBzZSBjeD0iODA5LjUiIGN5PSI5MjYuMzY3MiIgZmlsbD0iIzg0QkU4NCIgcng9IjMiIHJ5PSIzIiBzdHlsZT0ic3Ryb2tlOiMwMzgwNDg7c3Ryb2tlLXdpZHRoOjE7Ii8+PHRleHQgZmlsbD0iIzAwMDAwMCIgZm9udC1mYW1pbHk9InNhbnMtc2VyaWYiIGZvbnQtc2l6ZT0iMTQiIGxlbmd0aEFkanVzdD0ic3BhY2luZyIgdGV4dExlbmd0aD0iMjMxIiB4PSI4MTguNSIgeT0iOTMwLjYwOTQiPmRlbGV0ZUludGVydmlldyhpZDogaW50KTogYm9vbGVhbjwvdGV4dD48ZWxsaXBzZSBjeD0iODA5LjUiIGN5PSI5NDEuMzUxNiIgZmlsbD0iIzg0QkU4NCIgcng9IjMiIHJ5PSIzIiBzdHlsZT0ic3Ryb2tlOiMwMzgwNDg7c3Ryb2tlLXdpZHRoOjE7Ii8+PHRleHQgZmlsbD0iIzAwMDAwMCIgZm9udC1mYW1pbHk9InNhbnMtc2VyaWYiIGZvbnQtc2l6ZT0iMTQiIGxlbmd0aEFkanVzdD0ic3BhY2luZyIgdGV4dExlbmd0aD0iMzcxIiB4PSI4MTguNSIgeT0iOTQ1LjU5MzgiPmdldEFwcGxpY2F0aW9uRGV0YWlsKGFwcGxpY2F0aW9uSWQ6IGludCk6IEFwcGxpY2F0aW9uPC90ZXh0PjxlbGxpcHNlIGN4PSI4MDkuNSIgY3k9Ijk1Ni4zMzU5IiBmaWxsPSIjODRCRTg0IiByeD0iMyIgcnk9IjMiIHN0eWxlPSJzdHJva2U6IzAzODA0ODtzdHJva2Utd2lkdGg6MTsiLz48dGV4dCBmaWxsPSIjMDAwMDAwIiBmb250LWZhbWlseT0ic2Fucy1zZXJpZiIgZm9udC1zaXplPSIxNCIgbGVuZ3RoQWRqdXN0PSJzcGFjaW5nIiB0ZXh0TGVuZ3RoPSI1NDYiIHg9IjgxOC41IiB5PSI5NjAuNTc4MSI+Z2V0QWN0aXZlUmVjcnVpdG1lbnRQb3NpdGlvbnMocGFnZTogaW50LCBzaXplOiBpbnQpOiBMaXN0Jmx0O1JlY3J1aXRtZW50UG9zaXRpb24mZ3Q7PC90ZXh0PjwvZz48IS0tY2xhc3MgQ2FuZGlkYXRlRGFvSW1wLS0+PGcgY2xhc3M9ImVudGl0eSIgZGF0YS1lbnRpdHk9IkNhbmRpZGF0ZURhb0ltcCIgZGF0YS1zb3VyY2UtbGluZT0iMTEzIiBkYXRhLXVpZD0iZW50MDAxMSIgaWQ9ImVudGl0eV9DYW5kaWRhdGVEYW9JbXAiPjxyZWN0IGZpbGw9IiNGMUYxRjEiIGhlaWdodD0iNDgiIHJ4PSIyLjUiIHJ5PSIyLjUiIHN0eWxlPSJzdHJva2U6IzE4MTgxODtzdHJva2Utd2lkdGg6MC41OyIgd2lkdGg9IjEzNyIgeD0iMTQ0NyIgeT0iMTI5Ny41Ii8+PGVsbGlwc2UgY3g9IjE0NjIiIGN5PSIxMzEzLjUiIGZpbGw9IiNBREQxQjIiIHJ4PSIxMSIgcnk9IjExIiBzdHlsZT0ic3Ryb2tlOiMxODE4MTg7c3Ryb2tlLXdpZHRoOjE7Ii8+PHBhdGggZD0iTTE0NTkuNjI1LDEzMTcuNzUgTDE0NTkuNjI1LDEzMTkuNSBMMTQ2NC41NjI1LDEzMTkuNSBMMTQ2NC41NjI1LDEzMTcuNzUgTDE0NTkuNjI1LDEzMTcuNzUgWiBNMTQ2MC4zMTI1LDEzMTguNDM3NSBRMTQ2MC4zMTI1LDEzMTguNDM3NSAxNDYwLjMxMjUsMTMwOS4yNSBMMTQ1OC41NjI1LDEzMDkuMjUgUTE0NTguNTYyNSwxMzA5LjI1IDE0NTguNTYyNSwxMzE4LjQzNzUgTDE0NjAuMzEyNSwxMzE4LjQzNzUgWiBNMTQ2My44NzUsMTMxOC40Mzc1IEwxNDY1LjYyNSwxMzE4LjQzNzUgUTE0NjUuNjI1LDEzMTguNDM3NSAxNDY1LjYyNSwxMzE1LjYyNSBMMTQ2My44NzUsMTMxNS42MjUgUTE0NjMuODc1LDEzMTUuNjI1IDE0NjMuODc1LDEzMTguNDM3NSBaIE0xNDYzLjg3NSwxMzA5LjI1IFExNDYzLjg3NSwxMzA5LjI1IDE0NjMuODc1LDEzMTIuMDYyNSBMMTQ2NS42MjUsMTMxMi4wNjI1IFExNDY1LjYyNSwxMzEyLjA2MjUgMTQ2NS42MjUsMTMwOS4yNSBMMTQ2My44NzUsMTMwOS4yNSBaIE0xNDU5LjYyNSwxMzA5LjkzNzUgTDE0NjQuNTYyNSwxMzA5LjkzNzUgTDE0NjQuNTYyNSwxMzA4LjE4NzUgTDE0NTkuNjI1LDEzMDguMTg3NSBMMTQ1OS42MjUsMTMwOS45Mzc1IFogIiBmaWxsPSIjMDAwMDAwIi8+PHRleHQgZmlsbD0iIzAwMDAwMCIgZm9udC1mYW1pbHk9InNhbnMtc2VyaWYiIGZvbnQtc2l6ZT0iMTQiIGxlbmd0aEFkanVzdD0ic3BhY2luZyIgdGV4dExlbmd0aD0iMTA1IiB4PSIxNDc2IiB5PSIxMzE5LjI0MjIiPkNhbmRpZGF0ZURhb0ltcDwvdGV4dD48bGluZSBzdHlsZT0ic3Ryb2tlOiMxODE4MTg7c3Ryb2tlLXdpZHRoOjAuNTsiIHgxPSIxNDQ4IiB4Mj0iMTU4MyIgeTE9IjEzMjkuNSIgeTI9IjEzMjkuNSIvPjxsaW5lIHN0eWxlPSJzdHJva2U6IzE4MTgxODtzdHJva2Utd2lkdGg6MC41OyIgeDE9IjE0NDgiIHgyPSIxNTgzIiB5MT0iMTMzNy41IiB5Mj0iMTMzNy41Ii8+PC9nPjwhLS1jbGFzcyBBZG1pblNlcnZpY2UtLT48ZyBjbGFzcz0iZW50aXR5IiBkYXRhLWVudGl0eT0iQWRtaW5TZXJ2aWNlIiBkYXRhLXNvdXJjZS1saW5lPSIxMTciIGRhdGEtdWlkPSJlbnQwMDEyIiBpZD0iZW50aXR5X0FkbWluU2VydmljZSI+PHJlY3QgZmlsbD0iI0YxRjFGMSIgaGVpZ2h0PSI1MjcuNSIgcng9IjIuNSIgcnk9IjIuNSIgc3R5bGU9InN0cm9rZTojMTgxODE4O3N0cm9rZS13aWR0aDowLjU7IiB3aWR0aD0iNTIzIiB4PSI3IiB5PSI3Ii8+PGVsbGlwc2UgY3g9IjIyMi4yNSIgY3k9IjIzIiBmaWxsPSIjQjRBN0U1IiByeD0iMTEiIHJ5PSIxMSIgc3R5bGU9InN0cm9rZTojMTgxODE4O3N0cm9rZS13aWR0aDoxOyIvPjxwYXRoIGQ9Ik0yMjUuMzc1LDI5IEwyMjUuMzc1LDI3LjI1IEwyMjMuMjUsMjcuMjUgUTIyMy4yNSwyNy4yNSAyMjMuMjUsMTkuNDM3NSBMMjI1LjM3NSwxOS40Mzc1IEwyMjUuMzc1LDE3LjY4NzUgTDIxOS4zNzUsMTcuNjg3NSBMMjE5LjM3NSwxOS40Mzc1IEwyMjEuNSwxOS40Mzc1IFEyMjEuNSwxOS40Mzc1IDIyMS41LDI3LjI1IEwyMTkuMzc1LDI3LjI1IEwyMTkuMzc1LDI5IEwyMjUuMzc1LDI5IFogIiBmaWxsPSIjMDAwMDAwIi8+PHRleHQgZmlsbD0iIzAwMDAwMCIgZm9udC1mYW1pbHk9InNhbnMtc2VyaWYiIGZvbnQtc2l6ZT0iMTQiIGZvbnQtc3R5bGU9Iml0YWxpYyIgbGVuZ3RoQWRqdXN0PSJzcGFjaW5nIiB0ZXh0TGVuZ3RoPSI4NCIgeD0iMjQyLjc1IiB5PSIyOC43NDIyIj5BZG1pblNlcnZpY2U8L3RleHQ+PGxpbmUgc3R5bGU9InN0cm9rZTojMTgxODE4O3N0cm9rZS13aWR0aDowLjU7IiB4MT0iOCIgeDI9IjUyOSIgeTE9IjM5IiB5Mj0iMzkiLz48bGluZSBzdHlsZT0ic3Ryb2tlOiMxODE4MTg7c3Ryb2tlLXdpZHRoOjAuNTsiIHgxPSI4IiB4Mj0iNTI5IiB5MT0iNDciIHkyPSI0NyIvPjxlbGxpcHNlIGN4PSIxOCIgY3k9IjU5Ljk5MjIiIGZpbGw9IiM4NEJFODQiIHJ4PSIzIiByeT0iMyIgc3R5bGU9InN0cm9rZTojMDM4MDQ4O3N0cm9rZS13aWR0aDoxOyIvPjx0ZXh0IGZpbGw9IiMwMDAwMDAiIGZvbnQtZmFtaWx5PSJzYW5zLXNlcmlmIiBmb250LXNpemU9IjE0IiBsZW5ndGhBZGp1c3Q9InNwYWNpbmciIHRleHRMZW5ndGg9IjIxNyIgeD0iMjciIHk9IjY0LjIzNDQiPmdldEFjY291bnRBZG1pbigpOiBBY2NvdW50QWRtaW48L3RleHQ+PGVsbGlwc2UgY3g9IjE4IiBjeT0iNzQuOTc2NiIgZmlsbD0iIzg0QkU4NCIgcng9IjMiIHJ5PSIzIiBzdHlsZT0ic3Ryb2tlOiMwMzgwNDg7c3Ryb2tlLXdpZHRoOjE7Ii8+PHRleHQgZmlsbD0iIzAwMDAwMCIgZm9udC1mYW1pbHk9InNhbnMtc2VyaWYiIGZvbnQtc2l6ZT0iMTQiIGxlbmd0aEFkanVzdD0ic3BhY2luZyIgdGV4dExlbmd0aD0iMjI0IiB4PSIyNyIgeT0iNzkuMjE4OCI+bGlzdENhbmRpZGF0ZSgpOiBMaXN0Jmx0O0NhbmRpZGF0ZSZndDs8L3RleHQ+PGVsbGlwc2UgY3g9IjE4IiBjeT0iODkuOTYwOSIgZmlsbD0iIzg0QkU4NCIgcng9IjMiIHJ5PSIzIiBzdHlsZT0ic3Ryb2tlOiMwMzgwNDg7c3Ryb2tlLXdpZHRoOjE7Ii8+PHRleHQgZmlsbD0iIzAwMDAwMCIgZm9udC1mYW1pbHk9InNhbnMtc2VyaWYiIGZvbnQtc2l6ZT0iMTQiIGxlbmd0aEFkanVzdD0ic3BhY2luZyIgdGV4dExlbmd0aD0iMzg1IiB4PSIyNyIgeT0iOTQuMjAzMSI+aW5zZXJ0SXNMb2dpbihlbWFpbDogU3RyaW5nLCBwYXNzd29yZDogU3RyaW5nKTogYm9vbGVhbjwvdGV4dD48ZWxsaXBzZSBjeD0iMTgiIGN5PSIxMDQuOTQ1MyIgZmlsbD0iIzg0QkU4NCIgcng9IjMiIHJ5PSIzIiBzdHlsZT0ic3Ryb2tlOiMwMzgwNDg7c3Ryb2tlLXdpZHRoOjE7Ii8+PHRleHQgZmlsbD0iIzAwMDAwMCIgZm9udC1mYW1pbHk9InNhbnMtc2VyaWYiIGZvbnQtc2l6ZT0iMTQiIGxlbmd0aEFkanVzdD0ic3BhY2luZyIgdGV4dExlbmd0aD0iMTY4IiB4PSIyNyIgeT0iMTA5LjE4NzUiPmdldElzQ2hlY2tMb2dpbigpOiBMb2dpbjwvdGV4dD48ZWxsaXBzZSBjeD0iMTgiIGN5PSIxMTkuOTI5NyIgZmlsbD0iIzg0QkU4NCIgcng9IjMiIHJ5PSIzIiBzdHlsZT0ic3Ryb2tlOiMwMzgwNDg7c3Ryb2tlLXdpZHRoOjE7Ii8+PHRleHQgZmlsbD0iIzAwMDAwMCIgZm9udC1mYW1pbHk9InNhbnMtc2VyaWYiIGZvbnQtc2l6ZT0iMTQiIGxlbmd0aEFkanVzdD0ic3BhY2luZyIgdGV4dExlbmd0aD0iMjU5IiB4PSIyNyIgeT0iMTI0LjE3MTkiPmRlbGV0ZUlzTG9naW4oZW1haWw6IFN0cmluZyk6IGJvb2xlYW48L3RleHQ+PGVsbGlwc2UgY3g9IjE4IiBjeT0iMTM0LjkxNDEiIGZpbGw9IiM4NEJFODQiIHJ4PSIzIiByeT0iMyIgc3R5bGU9InN0cm9rZTojMDM4MDQ4O3N0cm9rZS13aWR0aDoxOyIvPjx0ZXh0IGZpbGw9IiMwMDAwMDAiIGZvbnQtZmFtaWx5PSJzYW5zLXNlcmlmIiBmb250LXNpemU9IjE0IiBsZW5ndGhBZGp1c3Q9InNwYWNpbmciIHRleHRMZW5ndGg9IjE0MCIgeD0iMjciIHk9IjEzOS4xNTYzIj5hZGROZXdDYW5kaWRhdGUoLi4uKTwvdGV4dD48ZWxsaXBzZSBjeD0iMTgiIGN5PSIxNDkuODk4NCIgZmlsbD0iIzg0QkU4NCIgcng9IjMiIHJ5PSIzIiBzdHlsZT0ic3Ryb2tlOiMwMzgwNDg7c3Ryb2tlLXdpZHRoOjE7Ii8+PHRleHQgZmlsbD0iIzAwMDAwMCIgZm9udC1mYW1pbHk9InNhbnMtc2VyaWYiIGZvbnQtc2l6ZT0iMTQiIGxlbmd0aEFkanVzdD0ic3BhY2luZyIgdGV4dExlbmd0aD0iMjAzIiB4PSIyNyIgeT0iMTU0LjE0MDYiPmxpc3RUZWNobm9sb2d5UGFnaW5hdGlvbiguLi4pPC90ZXh0PjxlbGxpcHNlIGN4PSIxOCIgY3k9IjE2NC44ODI4IiBmaWxsPSIjODRCRTg0IiByeD0iMyIgcnk9IjMiIHN0eWxlPSJzdHJva2U6IzAzODA0ODtzdHJva2Utd2lkdGg6MTsiLz48dGV4dCBmaWxsPSIjMDAwMDAwIiBmb250LWZhbWlseT0ic2Fucy1zZXJpZiIgZm9udC1zaXplPSIxNCIgbGVuZ3RoQWRqdXN0PSJzcGFjaW5nIiB0ZXh0TGVuZ3RoPSIyNTIiIHg9IjI3IiB5PSIxNjkuMTI1Ij5hZGRUZWNobm9sb2d5KG5hbWU6IFN0cmluZyk6IGJvb2xlYW48L3RleHQ+PGVsbGlwc2UgY3g9IjE4IiBjeT0iMTc5Ljg2NzIiIGZpbGw9IiM4NEJFODQiIHJ4PSIzIiByeT0iMyIgc3R5bGU9InN0cm9rZTojMDM4MDQ4O3N0cm9rZS13aWR0aDoxOyIvPjx0ZXh0IGZpbGw9IiMwMDAwMDAiIGZvbnQtZmFtaWx5PSJzYW5zLXNlcmlmIiBmb250LXNpemU9IjE0IiBsZW5ndGhBZGp1c3Q9InNwYWNpbmciIHRleHRMZW5ndGg9IjMzNiIgeD0iMjciIHk9IjE4NC4xMDk0Ij51cGRhdGVUZWNobm9sb2d5KGlkOiBpbnQsIG5hbWU6IFN0cmluZyk6IGJvb2xlYW48L3RleHQ+PGVsbGlwc2UgY3g9IjE4IiBjeT0iMTk0Ljg1MTYiIGZpbGw9IiM4NEJFODQiIHJ4PSIzIiByeT0iMyIgc3R5bGU9InN0cm9rZTojMDM4MDQ4O3N0cm9rZS13aWR0aDoxOyIvPjx0ZXh0IGZpbGw9IiMwMDAwMDAiIGZvbnQtZmFtaWx5PSJzYW5zLXNlcmlmIiBmb250LXNpemU9IjE0IiBsZW5ndGhBZGp1c3Q9InNwYWNpbmciIHRleHRMZW5ndGg9IjIzOCIgeD0iMjciIHk9IjE5OS4wOTM4Ij5kZWxldGVUZWNobm9sb2d5KGlkOiBpbnQpOiBib29sZWFuPC90ZXh0PjxlbGxpcHNlIGN4PSIxOCIgY3k9IjIwOS44MzU5IiBmaWxsPSIjODRCRTg0IiByeD0iMyIgcnk9IjMiIHN0eWxlPSJzdHJva2U6IzAzODA0ODtzdHJva2Utd2lkdGg6MTsiLz48dGV4dCBmaWxsPSIjMDAwMDAwIiBmb250LWZhbWlseT0ic2Fucy1zZXJpZiIgZm9udC1zaXplPSIxNCIgbGVuZ3RoQWRqdXN0PSJzcGFjaW5nIiB0ZXh0TGVuZ3RoPSIyMzgiIHg9IjI3IiB5PSIyMTQuMDc4MSI+bGlzdFRlY2hub2xvZ3koKTogTGlzdCZsdDtUZWNobm9sb2d5Jmd0OzwvdGV4dD48ZWxsaXBzZSBjeD0iMTgiIGN5PSIyMjQuODIwMyIgZmlsbD0iIzg0QkU4NCIgcng9IjMiIHJ5PSIzIiBzdHlsZT0ic3Ryb2tlOiMwMzgwNDg7c3Ryb2tlLXdpZHRoOjE7Ii8+PHRleHQgZmlsbD0iIzAwMDAwMCIgZm9udC1mYW1pbHk9InNhbnMtc2VyaWYiIGZvbnQtc2l6ZT0iMTQiIGxlbmd0aEFkanVzdD0ic3BhY2luZyIgdGV4dExlbmd0aD0iMTk2IiB4PSIyNyIgeT0iMjI5LjA2MjUiPmxpc3RDYW5kaWRhdGVQYWdpbmF0aW9uKC4uLik8L3RleHQ+PGVsbGlwc2UgY3g9IjE4IiBjeT0iMjM5LjgwNDciIGZpbGw9IiM4NEJFODQiIHJ4PSIzIiByeT0iMyIgc3R5bGU9InN0cm9rZTojMDM4MDQ4O3N0cm9rZS13aWR0aDoxOyIvPjx0ZXh0IGZpbGw9IiMwMDAwMDAiIGZvbnQtZmFtaWx5PSJzYW5zLXNlcmlmIiBmb250LXNpemU9IjE0IiBsZW5ndGhBZGp1c3Q9InNwYWNpbmciIHRleHRMZW5ndGg9IjI4NyIgeD0iMjciIHk9IjI0NC4wNDY5Ij5jaGFuZ2VTdGF0dXNPZkNhbmRpZGF0ZShpZDogaW50KTogYm9vbGVhbjwvdGV4dD48ZWxsaXBzZSBjeD0iMTgiIGN5PSIyNTQuNzg5MSIgZmlsbD0iIzg0QkU4NCIgcng9IjMiIHJ5PSIzIiBzdHlsZT0ic3Ryb2tlOiMwMzgwNDg7c3Ryb2tlLXdpZHRoOjE7Ii8+PHRleHQgZmlsbD0iIzAwMDAwMCIgZm9udC1mYW1pbHk9InNhbnMtc2VyaWYiIGZvbnQtc2l6ZT0iMTQiIGxlbmd0aEFkanVzdD0ic3BhY2luZyIgdGV4dExlbmd0aD0iMjE3IiB4PSIyNyIgeT0iMjU5LjAzMTMiPnJlc2V0UGFzc3dvcmQoaWQ6IGludCk6IGJvb2xlYW48L3RleHQ+PGVsbGlwc2UgY3g9IjE4IiBjeT0iMjY5Ljc3MzQiIGZpbGw9IiM4NEJFODQiIHJ4PSIzIiByeT0iMyIgc3R5bGU9InN0cm9rZTojMDM4MDQ4O3N0cm9rZS13aWR0aDoxOyIvPjx0ZXh0IGZpbGw9IiMwMDAwMDAiIGZvbnQtZmFtaWx5PSJzYW5zLXNlcmlmIiBmb250LXNpemU9IjE0IiBsZW5ndGhBZGp1c3Q9InNwYWNpbmciIHRleHRMZW5ndGg9IjMwOCIgeD0iMjciIHk9IjI3NC4wMTU2Ij5maW5kQ2FuZGlkYXRlKG5hbWU6IFN0cmluZyk6IExpc3QmbHQ7Q2FuZGlkYXRlJmd0OzwvdGV4dD48ZWxsaXBzZSBjeD0iMTgiIGN5PSIyODQuNzU3OCIgZmlsbD0iIzg0QkU4NCIgcng9IjMiIHJ5PSIzIiBzdHlsZT0ic3Ryb2tlOiMwMzgwNDg7c3Ryb2tlLXdpZHRoOjE7Ii8+PHRleHQgZmlsbD0iIzAwMDAwMCIgZm9udC1mYW1pbHk9InNhbnMtc2VyaWYiIGZvbnQtc2l6ZT0iMTQiIGxlbmd0aEFkanVzdD0ic3BhY2luZyIgdGV4dExlbmd0aD0iMzcxIiB4PSIyNyIgeT0iMjg5Ij5maWx0ZXJFeHBlcmllbmNlKG1pbjogaW50LCBtYXg6IGludCk6IExpc3QmbHQ7Q2FuZGlkYXRlJmd0OzwvdGV4dD48ZWxsaXBzZSBjeD0iMTgiIGN5PSIyOTkuNzQyMiIgZmlsbD0iIzg0QkU4NCIgcng9IjMiIHJ5PSIzIiBzdHlsZT0ic3Ryb2tlOiMwMzgwNDg7c3Ryb2tlLXdpZHRoOjE7Ii8+PHRleHQgZmlsbD0iIzAwMDAwMCIgZm9udC1mYW1pbHk9InNhbnMtc2VyaWYiIGZvbnQtc2l6ZT0iMTQiIGxlbmd0aEFkanVzdD0ic3BhY2luZyIgdGV4dExlbmd0aD0iMzIyIiB4PSIyNyIgeT0iMzAzLjk4NDQiPmZpbHRlckFnZShtaW46IGludCwgbWF4OiBpbnQpOiBMaXN0Jmx0O0NhbmRpZGF0ZSZndDs8L3RleHQ+PGVsbGlwc2UgY3g9IjE4IiBjeT0iMzE0LjcyNjYiIGZpbGw9IiM4NEJFODQiIHJ4PSIzIiByeT0iMyIgc3R5bGU9InN0cm9rZTojMDM4MDQ4O3N0cm9rZS13aWR0aDoxOyIvPjx0ZXh0IGZpbGw9IiMwMDAwMDAiIGZvbnQtZmFtaWx5PSJzYW5zLXNlcmlmIiBmb250LXNpemU9IjE0IiBsZW5ndGhBZGp1c3Q9InNwYWNpbmciIHRleHRMZW5ndGg9IjMxNSIgeD0iMjciIHk9IjMxOC45Njg4Ij5maWx0ZXJHZW5kZXIoZ2VuZGVyOiBTdHJpbmcpOiBMaXN0Jmx0O0NhbmRpZGF0ZSZndDs8L3RleHQ+PGVsbGlwc2UgY3g9IjE4IiBjeT0iMzI5LjcxMDkiIGZpbGw9IiM4NEJFODQiIHJ4PSIzIiByeT0iMyIgc3R5bGU9InN0cm9rZTojMDM4MDQ4O3N0cm9rZS13aWR0aDoxOyIvPjx0ZXh0IGZpbGw9IiMwMDAwMDAiIGZvbnQtZmFtaWx5PSJzYW5zLXNlcmlmIiBmb250LXNpemU9IjE0IiBsZW5ndGhBZGp1c3Q9InNwYWNpbmciIHRleHRMZW5ndGg9IjMyOSIgeD0iMjciIHk9IjMzMy45NTMxIj5maWx0ZXJUZWNobm9sb2d5KHRlY2g6IFN0cmluZyk6IExpc3QmbHQ7Q2FuZGlkYXRlJmd0OzwvdGV4dD48ZWxsaXBzZSBjeD0iMTgiIGN5PSIzNDQuNjk1MyIgZmlsbD0iIzg0QkU4NCIgcng9IjMiIHJ5PSIzIiBzdHlsZT0ic3Ryb2tlOiMwMzgwNDg7c3Ryb2tlLXdpZHRoOjE7Ii8+PHRleHQgZmlsbD0iIzAwMDAwMCIgZm9udC1mYW1pbHk9InNhbnMtc2VyaWYiIGZvbnQtc2l6ZT0iMTQiIGxlbmd0aEFkanVzdD0ic3BhY2luZyIgdGV4dExlbmd0aD0iMTMzIiB4PSIyNyIgeT0iMzQ4LjkzNzUiPmFkZE5ld1Bvc2l0aW9uKC4uLik8L3RleHQ+PGVsbGlwc2UgY3g9IjE4IiBjeT0iMzU5LjY3OTciIGZpbGw9IiM4NEJFODQiIHJ4PSIzIiByeT0iMyIgc3R5bGU9InN0cm9rZTojMDM4MDQ4O3N0cm9rZS13aWR0aDoxOyIvPjx0ZXh0IGZpbGw9IiMwMDAwMDAiIGZvbnQtZmFtaWx5PSJzYW5zLXNlcmlmIiBmb250LXNpemU9IjE0IiBsZW5ndGhBZGp1c3Q9InNwYWNpbmciIHRleHRMZW5ndGg9IjEzMyIgeD0iMjciIHk9IjM2My45MjE5Ij51cGRhdGVQb3NpdGlvbiguLi4pPC90ZXh0PjxlbGxpcHNlIGN4PSIxOCIgY3k9IjM3NC42NjQxIiBmaWxsPSIjODRCRTg0IiByeD0iMyIgcnk9IjMiIHN0eWxlPSJzdHJva2U6IzAzODA0ODtzdHJva2Utd2lkdGg6MTsiLz48dGV4dCBmaWxsPSIjMDAwMDAwIiBmb250LWZhbWlseT0ic2Fucy1zZXJpZiIgZm9udC1zaXplPSIxNCIgbGVuZ3RoQWRqdXN0PSJzcGFjaW5nIiB0ZXh0TGVuZ3RoPSIyMjQiIHg9IjI3IiB5PSIzNzguOTA2MyI+ZGVsZXRlUG9zaXRpb24oaWQ6IGludCk6IGJvb2xlYW48L3RleHQ+PGVsbGlwc2UgY3g9IjE4IiBjeT0iMzg5LjY0ODQiIGZpbGw9IiM4NEJFODQiIHJ4PSIzIiByeT0iMyIgc3R5bGU9InN0cm9rZTojMDM4MDQ4O3N0cm9rZS13aWR0aDoxOyIvPjx0ZXh0IGZpbGw9IiMwMDAwMDAiIGZvbnQtZmFtaWx5PSJzYW5zLXNlcmlmIiBmb250LXNpemU9IjE0IiBsZW5ndGhBZGp1c3Q9InNwYWNpbmciIHRleHRMZW5ndGg9IjExOSIgeD0iMjciIHk9IjM5My44OTA2Ij5saXN0UG9zaXRpb24oLi4uKTwvdGV4dD48ZWxsaXBzZSBjeD0iMTgiIGN5PSI0MDQuNjMyOCIgZmlsbD0iIzg0QkU4NCIgcng9IjMiIHJ5PSIzIiBzdHlsZT0ic3Ryb2tlOiMwMzgwNDg7c3Ryb2tlLXdpZHRoOjE7Ii8+PHRleHQgZmlsbD0iIzAwMDAwMCIgZm9udC1mYW1pbHk9InNhbnMtc2VyaWYiIGZvbnQtc2l6ZT0iMTQiIGxlbmd0aEFkanVzdD0ic3BhY2luZyIgdGV4dExlbmd0aD0iMzY0IiB4PSIyNyIgeT0iNDA4Ljg3NSI+bGlzdFJlY3J1aXRtZW50UG9zaXRpb24oKTogTGlzdCZsdDtSZWNydWl0bWVudFBvc2l0aW9uJmd0OzwvdGV4dD48ZWxsaXBzZSBjeD0iMTgiIGN5PSI0MTkuNjE3MiIgZmlsbD0iIzg0QkU4NCIgcng9IjMiIHJ5PSIzIiBzdHlsZT0ic3Ryb2tlOiMwMzgwNDg7c3Ryb2tlLXdpZHRoOjE7Ii8+PHRleHQgZmlsbD0iIzAwMDAwMCIgZm9udC1mYW1pbHk9InNhbnMtc2VyaWYiIGZvbnQtc2l6ZT0iMTQiIGxlbmd0aEFkanVzdD0ic3BhY2luZyIgdGV4dExlbmd0aD0iMTQwIiB4PSIyNyIgeT0iNDIzLjg1OTQiPmxpc3RBcHBsaWNhdGlvbiguLi4pPC90ZXh0PjxlbGxpcHNlIGN4PSIxOCIgY3k9IjQzNC42MDE2IiBmaWxsPSIjODRCRTg0IiByeD0iMyIgcnk9IjMiIHN0eWxlPSJzdHJva2U6IzAzODA0ODtzdHJva2Utd2lkdGg6MTsiLz48dGV4dCBmaWxsPSIjMDAwMDAwIiBmb250LWZhbWlseT0ic2Fucy1zZXJpZiIgZm9udC1zaXplPSIxNCIgbGVuZ3RoQWRqdXN0PSJzcGFjaW5nIiB0ZXh0TGVuZ3RoPSI0MDYiIHg9IjI3IiB5PSI0MzguODQzOCI+bGlzdEFwcGxpY2F0aW9uQnlSZXN1bHQocmVzdWx0OiBTdHJpbmcpOiBMaXN0Jmx0O0FwcGxpY2F0aW9uJmd0OzwvdGV4dD48ZWxsaXBzZSBjeD0iMTgiIGN5PSI0NDkuNTg1OSIgZmlsbD0iIzg0QkU4NCIgcng9IjMiIHJ5PSIzIiBzdHlsZT0ic3Ryb2tlOiMwMzgwNDg7c3Ryb2tlLXdpZHRoOjE7Ii8+PHRleHQgZmlsbD0iIzAwMDAwMCIgZm9udC1mYW1pbHk9InNhbnMtc2VyaWYiIGZvbnQtc2l6ZT0iMTQiIGxlbmd0aEFkanVzdD0ic3BhY2luZyIgdGV4dExlbmd0aD0iMzg1IiB4PSIyNyIgeT0iNDUzLjgyODEiPmxpc3RGaWx0ZXJCeVByb2Nlc3MocHJvY2VzczogU3RyaW5nKTogTGlzdCZsdDtBcHBsaWNhdGlvbiZndDs8L3RleHQ+PGVsbGlwc2UgY3g9IjE4IiBjeT0iNDY0LjU3MDMiIGZpbGw9IiM4NEJFODQiIHJ4PSIzIiByeT0iMyIgc3R5bGU9InN0cm9rZTojMDM4MDQ4O3N0cm9rZS13aWR0aDoxOyIvPjx0ZXh0IGZpbGw9IiMwMDAwMDAiIGZvbnQtZmFtaWx5PSJzYW5zLXNlcmlmIiBmb250LXNpemU9IjE0IiBsZW5ndGhBZGp1c3Q9InNwYWNpbmciIHRleHRMZW5ndGg9IjI1MiIgeD0iMjciIHk9IjQ2OC44MTI1Ij5nZXRBcHBsaWNhdGlvbihpZDogaW50KTogQXBwbGljYXRpb248L3RleHQ+PGVsbGlwc2UgY3g9IjE4IiBjeT0iNDc5LjU1NDciIGZpbGw9IiM4NEJFODQiIHJ4PSIzIiByeT0iMyIgc3R5bGU9InN0cm9rZTojMDM4MDQ4O3N0cm9rZS13aWR0aDoxOyIvPjx0ZXh0IGZpbGw9IiMwMDAwMDAiIGZvbnQtZmFtaWx5PSJzYW5zLXNlcmlmIiBmb250LXNpemU9IjE0IiBsZW5ndGhBZGp1c3Q9InNwYWNpbmciIHRleHRMZW5ndGg9IjQ5NyIgeD0iMjciIHk9IjQ4My43OTY5Ij5pbnRlcnZpZXdDYW5kaWRhdGUoaWQ6IGludCwgbGluazogU3RyaW5nLCB0aW1lOiBMb2NhbERhdGVUaW1lKTogYm9vbGVhbjwvdGV4dD48ZWxsaXBzZSBjeD0iMTgiIGN5PSI0OTQuNTM5MSIgZmlsbD0iIzg0QkU4NCIgcng9IjMiIHJ5PSIzIiBzdHlsZT0ic3Ryb2tlOiMwMzgwNDg7c3Ryb2tlLXdpZHRoOjE7Ii8+PHRleHQgZmlsbD0iIzAwMDAwMCIgZm9udC1mYW1pbHk9InNhbnMtc2VyaWYiIGZvbnQtc2l6ZT0iMTQiIGxlbmd0aEFkanVzdD0ic3BhY2luZyIgdGV4dExlbmd0aD0iNDgzIiB4PSIyNyIgeT0iNDk4Ljc4MTMiPnVwZGF0ZVJlc3VsdEludGVydmlldyhpZDogaW50LCBub3RlOiBTdHJpbmcsIHJlc3VsdDogU3RyaW5nKTogYm9vbGVhbjwvdGV4dD48ZWxsaXBzZSBjeD0iMTgiIGN5PSI1MDkuNTIzNCIgZmlsbD0iIzg0QkU4NCIgcng9IjMiIHJ5PSIzIiBzdHlsZT0ic3Ryb2tlOiMwMzgwNDg7c3Ryb2tlLXdpZHRoOjE7Ii8+PHRleHQgZmlsbD0iIzAwMDAwMCIgZm9udC1mYW1pbHk9InNhbnMtc2VyaWYiIGZvbnQtc2l6ZT0iMTQiIGxlbmd0aEFkanVzdD0ic3BhY2luZyIgdGV4dExlbmd0aD0iMzg1IiB4PSIyNyIgeT0iNTEzLjc2NTYiPmRlbGV0ZVJlc3VsdEludGVydmlldyhpZDogaW50LCByZXN1bHQ6IFN0cmluZyk6IGJvb2xlYW48L3RleHQ+PGVsbGlwc2UgY3g9IjE4IiBjeT0iNTI0LjUwNzgiIGZpbGw9IiM4NEJFODQiIHJ4PSIzIiByeT0iMyIgc3R5bGU9InN0cm9rZTojMDM4MDQ4O3N0cm9rZS13aWR0aDoxOyIvPjx0ZXh0IGZpbGw9IiMwMDAwMDAiIGZvbnQtZmFtaWx5PSJzYW5zLXNlcmlmIiBmb250LXNpemU9IjE0IiBsZW5ndGhBZGp1c3Q9InNwYWNpbmciIHRleHRMZW5ndGg9IjI3MyIgeD0iMjciIHk9IjUyOC43NSI+Z2V0U3RhdHVzQWNjb3VudChlbWFpbDogU3RyaW5nKTogU3RyaW5nPC90ZXh0PjwvZz48IS0tY2xhc3MgQWRtaW5TZXJ2aWNlSW1wLS0+PGcgY2xhc3M9ImVudGl0eSIgZGF0YS1lbnRpdHk9IkFkbWluU2VydmljZUltcCIgZGF0YS1zb3VyY2UtbGluZT0iMTUyIiBkYXRhLXVpZD0iZW50MDAxMyIgaWQ9ImVudGl0eV9BZG1pblNlcnZpY2VJbXAiPjxyZWN0IGZpbGw9IiNGMUYxRjEiIGhlaWdodD0iNjIuOTg0NCIgcng9IjIuNSIgcnk9IjIuNSIgc3R5bGU9InN0cm9rZTojMTgxODE4O3N0cm9rZS13aWR0aDowLjU7IiB3aWR0aD0iMTUyIiB4PSI1Mi41IiB5PSI4MjguNSIvPjxlbGxpcHNlIGN4PSI3NC4yNSIgY3k9Ijg0NC41IiBmaWxsPSIjQUREMUIyIiByeD0iMTEiIHJ5PSIxMSIgc3R5bGU9InN0cm9rZTojMTgxODE4O3N0cm9rZS13aWR0aDoxOyIvPjxwYXRoIGQ9Ik03MS44NzUsODQ4Ljc1IEw3MS44NzUsODUwLjUgTDc2LjgxMjUsODUwLjUgTDc2LjgxMjUsODQ4Ljc1IEw3MS44NzUsODQ4Ljc1IFogTTcyLjU2MjUsODQ5LjQzNzUgUTcyLjU2MjUsODQ5LjQzNzUgNzIuNTYyNSw4NDAuMjUgTDcwLjgxMjUsODQwLjI1IFE3MC44MTI1LDg0MC4yNSA3MC44MTI1LDg0OS40Mzc1IEw3Mi41NjI1LDg0OS40Mzc1IFogTTc2LjEyNSw4NDkuNDM3NSBMNzcuODc1LDg0OS40Mzc1IFE3Ny44NzUsODQ5LjQzNzUgNzcuODc1LDg0Ni42MjUgTDc2LjEyNSw4NDYuNjI1IFE3Ni4xMjUsODQ2LjYyNSA3Ni4xMjUsODQ5LjQzNzUgWiBNNzYuMTI1LDg0MC4yNSBRNzYuMTI1LDg0MC4yNSA3Ni4xMjUsODQzLjA2MjUgTDc3Ljg3NSw4NDMuMDYyNSBRNzcuODc1LDg0My4wNjI1IDc3Ljg3NSw4NDAuMjUgTDc2LjEyNSw4NDAuMjUgWiBNNzEuODc1LDg0MC45Mzc1IEw3Ni44MTI1LDg0MC45Mzc1IEw3Ni44MTI1LDgzOS4xODc1IEw3MS44NzUsODM5LjE4NzUgTDcxLjg3NSw4NDAuOTM3NSBaICIgZmlsbD0iIzAwMDAwMCIvPjx0ZXh0IGZpbGw9IiMwMDAwMDAiIGZvbnQtZmFtaWx5PSJzYW5zLXNlcmlmIiBmb250LXNpemU9IjE0IiBsZW5ndGhBZGp1c3Q9InNwYWNpbmciIHRleHRMZW5ndGg9IjEwNSIgeD0iODkuNzUiIHk9Ijg1MC4yNDIyIj5BZG1pblNlcnZpY2VJbXA8L3RleHQ+PGxpbmUgc3R5bGU9InN0cm9rZTojMTgxODE4O3N0cm9rZS13aWR0aDowLjU7IiB4MT0iNTMuNSIgeDI9IjIwMy41IiB5MT0iODYwLjUiIHkyPSI4NjAuNSIvPjxyZWN0IGZpbGw9Im5vbmUiIGhlaWdodD0iNiIgc3R5bGU9InN0cm9rZTojQzgyOTMwO3N0cm9rZS13aWR0aDoxOyIgd2lkdGg9IjYiIHg9IjYwLjUiIHk9Ijg3MC40OTIyIi8+PHRleHQgZmlsbD0iIzAwMDAwMCIgZm9udC1mYW1pbHk9InNhbnMtc2VyaWYiIGZvbnQtc2l6ZT0iMTQiIGxlbmd0aEFkanVzdD0ic3BhY2luZyIgdGV4dExlbmd0aD0iMTI2IiB4PSI3Mi41IiB5PSI4NzcuNzM0NCI+YWRtaW5EYW86IEFkbWluRGFvPC90ZXh0PjxsaW5lIHN0eWxlPSJzdHJva2U6IzE4MTgxODtzdHJva2Utd2lkdGg6MC41OyIgeDE9IjUzLjUiIHgyPSIyMDMuNSIgeTE9Ijg4My40ODQ0IiB5Mj0iODgzLjQ4NDQiLz48L2c+PCEtLWNsYXNzIENhbmRpZGF0ZVNlcnZpY2UtLT48ZyBjbGFzcz0iZW50aXR5IiBkYXRhLWVudGl0eT0iQ2FuZGlkYXRlU2VydmljZSIgZGF0YS1zb3VyY2UtbGluZT0iMTU2IiBkYXRhLXVpZD0iZW50MDAxNCIgaWQ9ImVudGl0eV9DYW5kaWRhdGVTZXJ2aWNlIj48cmVjdCBmaWxsPSIjRjFGMUYxIiBoZWlnaHQ9IjIxMi44MjgxIiByeD0iMi41IiByeT0iMi41IiBzdHlsZT0ic3Ryb2tlOiMxODE4MTg7c3Ryb2tlLXdpZHRoOjAuNTsiIHdpZHRoPSI3ODIiIHg9IjEwNjMuNSIgeT0iMTY0LjUiLz48ZWxsaXBzZSBjeD0iMTM5NC4yNSIgY3k9IjE4MC41IiBmaWxsPSIjQjRBN0U1IiByeD0iMTEiIHJ5PSIxMSIgc3R5bGU9InN0cm9rZTojMTgxODE4O3N0cm9rZS13aWR0aDoxOyIvPjxwYXRoIGQ9Ik0xMzk3LjM3NSwxODYuNSBMMTM5Ny4zNzUsMTg0Ljc1IEwxMzk1LjI1LDE4NC43NSBRMTM5NS4yNSwxODQuNzUgMTM5NS4yNSwxNzYuOTM3NSBMMTM5Ny4zNzUsMTc2LjkzNzUgTDEzOTcuMzc1LDE3NS4xODc1IEwxMzkxLjM3NSwxNzUuMTg3NSBMMTM5MS4zNzUsMTc2LjkzNzUgTDEzOTMuNSwxNzYuOTM3NSBRMTM5My41LDE3Ni45Mzc1IDEzOTMuNSwxODQuNzUgTDEzOTEuMzc1LDE4NC43NSBMMTM5MS4zNzUsMTg2LjUgTDEzOTcuMzc1LDE4Ni41IFogIiBmaWxsPSIjMDAwMDAwIi8+PHRleHQgZmlsbD0iIzAwMDAwMCIgZm9udC1mYW1pbHk9InNhbnMtc2VyaWYiIGZvbnQtc2l6ZT0iMTQiIGZvbnQtc3R5bGU9Iml0YWxpYyIgbGVuZ3RoQWRqdXN0PSJzcGFjaW5nIiB0ZXh0TGVuZ3RoPSIxMTIiIHg9IjE0MTQuNzUiIHk9IjE4Ni4yNDIyIj5DYW5kaWRhdGVTZXJ2aWNlPC90ZXh0PjxsaW5lIHN0eWxlPSJzdHJva2U6IzE4MTgxODtzdHJva2Utd2lkdGg6MC41OyIgeDE9IjEwNjQuNSIgeDI9IjE4NDQuNSIgeTE9IjE5Ni41IiB5Mj0iMTk2LjUiLz48bGluZSBzdHlsZT0ic3Ryb2tlOiMxODE4MTg7c3Ryb2tlLXdpZHRoOjAuNTsiIHgxPSIxMDY0LjUiIHgyPSIxODQ0LjUiIHkxPSIyMDQuNSIgeTI9IjIwNC41Ii8+PGVsbGlwc2UgY3g9IjEwNzQuNSIgY3k9IjIxNy40OTIyIiBmaWxsPSIjODRCRTg0IiByeD0iMyIgcnk9IjMiIHN0eWxlPSJzdHJva2U6IzAzODA0ODtzdHJva2Utd2lkdGg6MTsiLz48dGV4dCBmaWxsPSIjMDAwMDAwIiBmb250LWZhbWlseT0ic2Fucy1zZXJpZiIgZm9udC1zaXplPSIxNCIgbGVuZ3RoQWRqdXN0PSJzcGFjaW5nIiB0ZXh0TGVuZ3RoPSI3NTYiIHg9IjEwODMuNSIgeT0iMjIxLjczNDQiPnVwZGF0ZVByb2ZpbGUoaWQ6IGludCwgbmFtZTogU3RyaW5nLCBlbWFpbDogU3RyaW5nLCBwaG9uZTogU3RyaW5nLCBleHBlcmllbmNlOiBpbnQsIGdlbmRlcjogU3RyaW5nKTogYm9vbGVhbjwvdGV4dD48ZWxsaXBzZSBjeD0iMTA3NC41IiBjeT0iMjMyLjQ3NjYiIGZpbGw9IiM4NEJFODQiIHJ4PSIzIiByeT0iMyIgc3R5bGU9InN0cm9rZTojMDM4MDQ4O3N0cm9rZS13aWR0aDoxOyIvPjx0ZXh0IGZpbGw9IiMwMDAwMDAiIGZvbnQtZmFtaWx5PSJzYW5zLXNlcmlmIiBmb250LXNpemU9IjE0IiBsZW5ndGhBZGp1c3Q9InNwYWNpbmciIHRleHRMZW5ndGg9IjM2NCIgeD0iMTA4My41IiB5PSIyMzYuNzE4OCI+Y2hhbmdlTXlQYXNzd29yZChpZDogaW50LCBwYXNzd29yZDogU3RyaW5nKTogYm9vbGVhbjwvdGV4dD48ZWxsaXBzZSBjeD0iMTA3NC41IiBjeT0iMjQ3LjQ2MDkiIGZpbGw9IiM4NEJFODQiIHJ4PSIzIiByeT0iMyIgc3R5bGU9InN0cm9rZTojMDM4MDQ4O3N0cm9rZS13aWR0aDoxOyIvPjx0ZXh0IGZpbGw9IiMwMDAwMDAiIGZvbnQtZmFtaWx5PSJzYW5zLXNlcmlmIiBmb250LXNpemU9IjE0IiBsZW5ndGhBZGp1c3Q9InNwYWNpbmciIHRleHRMZW5ndGg9IjI2NiIgeD0iMTA4My41IiB5PSIyNTEuNzAzMSI+Z2V0Q2FuZGlkYXRlKGVtYWlsOiBTdHJpbmcpOiBDYW5kaWRhdGU8L3RleHQ+PGVsbGlwc2UgY3g9IjEwNzQuNSIgY3k9IjI2Mi40NDUzIiBmaWxsPSIjODRCRTg0IiByeD0iMyIgcnk9IjMiIHN0eWxlPSJzdHJva2U6IzAzODA0ODtzdHJva2Utd2lkdGg6MTsiLz48dGV4dCBmaWxsPSIjMDAwMDAwIiBmb250LWZhbWlseT0ic2Fucy1zZXJpZiIgZm9udC1zaXplPSIxNCIgbGVuZ3RoQWRqdXN0PSJzcGFjaW5nIiB0ZXh0TGVuZ3RoPSIyMzgiIHg9IjEwODMuNSIgeT0iMjY2LjY4NzUiPmNhbmRpZGF0ZUNvbmZpcm0oaWQ6IGludCk6IGJvb2xlYW48L3RleHQ+PGVsbGlwc2UgY3g9IjEwNzQuNSIgY3k9IjI3Ny40Mjk3IiBmaWxsPSIjODRCRTg0IiByeD0iMyIgcnk9IjMiIHN0eWxlPSJzdHJva2U6IzAzODA0ODtzdHJva2Utd2lkdGg6MTsiLz48dGV4dCBmaWxsPSIjMDAwMDAwIiBmb250LWZhbWlseT0ic2Fucy1zZXJpZiIgZm9udC1zaXplPSIxNCIgbGVuZ3RoQWRqdXN0PSJzcGFjaW5nIiB0ZXh0TGVuZ3RoPSI2MjMiIHg9IjEwODMuNSIgeT0iMjgxLjY3MTkiPmFwcGx5Rm9yQXBwbGljYXRpb24oY2FuZGlkYXRlSWQ6IGludCwgcmVjcnVpdG1lbnRQb3NpdGlvbklkOiBpbnQsIGN2VXJsOiBTdHJpbmcpOiBib29sZWFuPC90ZXh0PjxlbGxpcHNlIGN4PSIxMDc0LjUiIGN5PSIyOTIuNDE0MSIgZmlsbD0iIzg0QkU4NCIgcng9IjMiIHJ5PSIzIiBzdHlsZT0ic3Ryb2tlOiMwMzgwNDg7c3Ryb2tlLXdpZHRoOjE7Ii8+PHRleHQgZmlsbD0iIzAwMDAwMCIgZm9udC1mYW1pbHk9InNhbnMtc2VyaWYiIGZvbnQtc2l6ZT0iMTQiIGxlbmd0aEFkanVzdD0ic3BhY2luZyIgdGV4dExlbmd0aD0iNTE4IiB4PSIxMDgzLjUiIHk9IjI5Ni42NTYzIj5saXN0TXlJbnRlcnZpZXcoY2FuZGlkYXRlSWQ6IGludCwgcGFnZTogaW50LCBzaXplOiBpbnQpOiBMaXN0Jmx0O0FwcGxpY2F0aW9uJmd0OzwvdGV4dD48ZWxsaXBzZSBjeD0iMTA3NC41IiBjeT0iMzA3LjM5ODQiIGZpbGw9IiM4NEJFODQiIHJ4PSIzIiByeT0iMyIgc3R5bGU9InN0cm9rZTojMDM4MDQ4O3N0cm9rZS13aWR0aDoxOyIvPjx0ZXh0IGZpbGw9IiMwMDAwMDAiIGZvbnQtZmFtaWx5PSJzYW5zLXNlcmlmIiBmb250LXNpemU9IjE0IiBsZW5ndGhBZGp1c3Q9InNwYWNpbmciIHRleHRMZW5ndGg9IjM5MiIgeD0iMTA4My41IiB5PSIzMTEuNjQwNiI+Z2V0UmVjcnVpdG1lbnRQb3NpdGlvbkJ5SWQoaWQ6IGludCk6IFJlY3J1aXRtZW50UG9zaXRpb248L3RleHQ+PGVsbGlwc2UgY3g9IjEwNzQuNSIgY3k9IjMyMi4zODI4IiBmaWxsPSIjODRCRTg0IiByeD0iMyIgcnk9IjMiIHN0eWxlPSJzdHJva2U6IzAzODA0ODtzdHJva2Utd2lkdGg6MTsiLz48dGV4dCBmaWxsPSIjMDAwMDAwIiBmb250LWZhbWlseT0ic2Fucy1zZXJpZiIgZm9udC1zaXplPSIxNCIgbGVuZ3RoQWRqdXN0PSJzcGFjaW5nIiB0ZXh0TGVuZ3RoPSI0NTUiIHg9IjEwODMuNSIgeT0iMzI2LjYyNSI+Z2V0QXBwbGljYXRpb25zQnlDYW5kaWRhdGVJZChjYW5kaWRhdGVJZDogaW50KTogTGlzdCZsdDtBcHBsaWNhdGlvbiZndDs8L3RleHQ+PGVsbGlwc2UgY3g9IjEwNzQuNSIgY3k9IjMzNy4zNjcyIiBmaWxsPSIjODRCRTg0IiByeD0iMyIgcnk9IjMiIHN0eWxlPSJzdHJva2U6IzAzODA0ODtzdHJva2Utd2lkdGg6MTsiLz48dGV4dCBmaWxsPSIjMDAwMDAwIiBmb250LWZhbWlseT0ic2Fucy1zZXJpZiIgZm9udC1zaXplPSIxNCIgbGVuZ3RoQWRqdXN0PSJzcGFjaW5nIiB0ZXh0TGVuZ3RoPSIyMzEiIHg9IjEwODMuNSIgeT0iMzQxLjYwOTQiPmRlbGV0ZUludGVydmlldyhpZDogaW50KTogYm9vbGVhbjwvdGV4dD48ZWxsaXBzZSBjeD0iMTA3NC41IiBjeT0iMzUyLjM1MTYiIGZpbGw9IiM4NEJFODQiIHJ4PSIzIiByeT0iMyIgc3R5bGU9InN0cm9rZTojMDM4MDQ4O3N0cm9rZS13aWR0aDoxOyIvPjx0ZXh0IGZpbGw9IiMwMDAwMDAiIGZvbnQtZmFtaWx5PSJzYW5zLXNlcmlmIiBmb250LXNpemU9IjE0IiBsZW5ndGhBZGp1c3Q9InNwYWNpbmciIHRleHRMZW5ndGg9IjM3MSIgeD0iMTA4My41IiB5PSIzNTYuNTkzOCI+Z2V0QXBwbGljYXRpb25EZXRhaWwoYXBwbGljYXRpb25JZDogaW50KTogQXBwbGljYXRpb248L3RleHQ+PGVsbGlwc2UgY3g9IjEwNzQuNSIgY3k9IjM2Ny4zMzU5IiBmaWxsPSIjODRCRTg0IiByeD0iMyIgcnk9IjMiIHN0eWxlPSJzdHJva2U6IzAzODA0ODtzdHJva2Utd2lkdGg6MTsiLz48dGV4dCBmaWxsPSIjMDAwMDAwIiBmb250LWZhbWlseT0ic2Fucy1zZXJpZiIgZm9udC1zaXplPSIxNCIgbGVuZ3RoQWRqdXN0PSJzcGFjaW5nIiB0ZXh0TGVuZ3RoPSI1NDYiIHg9IjEwODMuNSIgeT0iMzcxLjU3ODEiPmdldEFjdGl2ZVJlY3J1aXRtZW50UG9zaXRpb25zKHBhZ2U6IGludCwgc2l6ZTogaW50KTogTGlzdCZsdDtSZWNydWl0bWVudFBvc2l0aW9uJmd0OzwvdGV4dD48L2c+PCEtLWNsYXNzIENhbmRpZGF0ZVNlcnZpY2VJbXAtLT48ZyBjbGFzcz0iZW50aXR5IiBkYXRhLWVudGl0eT0iQ2FuZGlkYXRlU2VydmljZUltcCIgZGF0YS1zb3VyY2UtbGluZT0iMTcwIiBkYXRhLXVpZD0iZW50MDAxNSIgaWQ9ImVudGl0eV9DYW5kaWRhdGVTZXJ2aWNlSW1wIj48cmVjdCBmaWxsPSIjRjFGMUYxIiBoZWlnaHQ9IjYyLjk4NDQiIHJ4PSIyLjUiIHJ5PSIyLjUiIHN0eWxlPSJzdHJva2U6IzE4MTgxODtzdHJva2Utd2lkdGg6MC41OyIgd2lkdGg9IjIwOCIgeD0iMTYxNS41IiB5PSI4MjguNSIvPjxlbGxpcHNlIGN4PSIxNjQ5Ljg1IiBjeT0iODQ0LjUiIGZpbGw9IiNBREQxQjIiIHJ4PSIxMSIgcnk9IjExIiBzdHlsZT0ic3Ryb2tlOiMxODE4MTg7c3Ryb2tlLXdpZHRoOjE7Ii8+PHBhdGggZD0iTTE2NDcuNDc1LDg0OC43NSBMMTY0Ny40NzUsODUwLjUgTDE2NTIuNDEyNSw4NTAuNSBMMTY1Mi40MTI1LDg0OC43NSBMMTY0Ny40NzUsODQ4Ljc1IFogTTE2NDguMTYyNSw4NDkuNDM3NSBRMTY0OC4xNjI1LDg0OS40Mzc1IDE2NDguMTYyNSw4NDAuMjUgTDE2NDYuNDEyNSw4NDAuMjUgUTE2NDYuNDEyNSw4NDAuMjUgMTY0Ni40MTI1LDg0OS40Mzc1IEwxNjQ4LjE2MjUsODQ5LjQzNzUgWiBNMTY1MS43MjUsODQ5LjQzNzUgTDE2NTMuNDc1LDg0OS40Mzc1IFExNjUzLjQ3NSw4NDkuNDM3NSAxNjUzLjQ3NSw4NDYuNjI1IEwxNjUxLjcyNSw4NDYuNjI1IFExNjUxLjcyNSw4NDYuNjI1IDE2NTEuNzI1LDg0OS40Mzc1IFogTTE2NTEuNzI1LDg0MC4yNSBRMTY1MS43MjUsODQwLjI1IDE2NTEuNzI1LDg0My4wNjI1IEwxNjUzLjQ3NSw4NDMuMDYyNSBRMTY1My40NzUsODQzLjA2MjUgMTY1My40NzUsODQwLjI1IEwxNjUxLjcyNSw4NDAuMjUgWiBNMTY0Ny40NzUsODQwLjkzNzUgTDE2NTIuNDEyNSw4NDAuOTM3NSBMMTY1Mi40MTI1LDgzOS4xODc1IEwxNjQ3LjQ3NSw4MzkuMTg3NSBMMTY0Ny40NzUsODQwLjkzNzUgWiAiIGZpbGw9IiMwMDAwMDAiLz48dGV4dCBmaWxsPSIjMDAwMDAwIiBmb250LWZhbWlseT0ic2Fucy1zZXJpZiIgZm9udC1zaXplPSIxNCIgbGVuZ3RoQWRqdXN0PSJzcGFjaW5nIiB0ZXh0TGVuZ3RoPSIxMzMiIHg9IjE2NjguMTUiIHk9Ijg1MC4yNDIyIj5DYW5kaWRhdGVTZXJ2aWNlSW1wPC90ZXh0PjxsaW5lIHN0eWxlPSJzdHJva2U6IzE4MTgxODtzdHJva2Utd2lkdGg6MC41OyIgeDE9IjE2MTYuNSIgeDI9IjE4MjIuNSIgeTE9Ijg2MC41IiB5Mj0iODYwLjUiLz48cmVjdCBmaWxsPSJub25lIiBoZWlnaHQ9IjYiIHN0eWxlPSJzdHJva2U6I0M4MjkzMDtzdHJva2Utd2lkdGg6MTsiIHdpZHRoPSI2IiB4PSIxNjIzLjUiIHk9Ijg3MC40OTIyIi8+PHRleHQgZmlsbD0iIzAwMDAwMCIgZm9udC1mYW1pbHk9InNhbnMtc2VyaWYiIGZvbnQtc2l6ZT0iMTQiIGxlbmd0aEFkanVzdD0ic3BhY2luZyIgdGV4dExlbmd0aD0iMTgyIiB4PSIxNjM1LjUiIHk9Ijg3Ny43MzQ0Ij5jYW5kaWRhdGVEYW86IENhbmRpZGF0ZURhbzwvdGV4dD48bGluZSBzdHlsZT0ic3Ryb2tlOiMxODE4MTg7c3Ryb2tlLXdpZHRoOjAuNTsiIHgxPSIxNjE2LjUiIHgyPSIxODIyLjUiIHkxPSI4ODMuNDg0NCIgeTI9Ijg4My40ODQ0Ii8+PC9nPjwhLS1yZXZlcnNlIGxpbmsgQWRtaW5EYW8gdG8gQWRtaW5EYW9JbXAtLT48ZyBjbGFzcz0ibGluayIgZGF0YS1lbnRpdHktMT0iQWRtaW5EYW8iIGRhdGEtZW50aXR5LTI9IkFkbWluRGFvSW1wIiBkYXRhLXNvdXJjZS1saW5lPSIxNzciIGRhdGEtdWlkPSJsbmsxNiIgaWQ9ImxpbmtfQWRtaW5EYW9fQWRtaW5EYW9JbXAiPjxwYXRoIGNvZGVMaW5lPSIxNzciIGQ9Ik0zMTMuMDAxMiwxMTM5LjI1MzEgQzMwNi40NDEyLDExNDkuMzAzMSAzMDkuODEsMTE0NC4xOSAzMDMuNSwxMTU0IEMyNzAuOTMsMTIwNC41OSAyMzQuNDksMTI2NS4wNyAyMTUuMiwxMjk3LjQxIiBmaWxsPSJub25lIiBpZD0iQWRtaW5EYW8tYmFja3RvLUFkbWluRGFvSW1wIiBzdHlsZT0ic3Ryb2tlOiMxODE4MTg7c3Ryb2tlLXdpZHRoOjE7Ii8+PHBvbHlnb24gZmlsbD0ibm9uZSIgcG9pbnRzPSIzMjIuODQsMTEyNC4xOCwzMDcuOTc2OSwxMTM1Ljk3MzUsMzE4LjAyNTYsMTE0Mi41MzI3LDMyMi44NCwxMTI0LjE4IiBzdHlsZT0ic3Ryb2tlOiMxODE4MTg7c3Ryb2tlLXdpZHRoOjE7Ii8+PC9nPjwhLS1yZXZlcnNlIGxpbmsgQ2FuZGlkYXRlRGFvIHRvIENhbmRpZGF0ZURhb0ltcC0tPjxnIGNsYXNzPSJsaW5rIiBkYXRhLWVudGl0eS0xPSJDYW5kaWRhdGVEYW8iIGRhdGEtZW50aXR5LTI9IkNhbmRpZGF0ZURhb0ltcCIgZGF0YS1zb3VyY2UtbGluZT0iMTc4IiBkYXRhLXVpZD0ibG5rMTciIGlkPSJsaW5rX0NhbmRpZGF0ZURhb19DYW5kaWRhdGVEYW9JbXAiPjxwYXRoIGNvZGVMaW5lPSIxNzgiIGQ9Ik0xMjc0LjkxNTYsOTgxLjM5MDUgQzEzNTIuMTg1NiwxMDkwLjMwMDUgMTQ1Ni43MiwxMjM3LjY2IDE0OTkuMDcsMTI5Ny4zNCIgZmlsbD0ibm9uZSIgaWQ9IkNhbmRpZGF0ZURhby1iYWNrdG8tQ2FuZGlkYXRlRGFvSW1wIiBzdHlsZT0ic3Ryb2tlOiMxODE4MTg7c3Ryb2tlLXdpZHRoOjE7Ii8+PHBvbHlnb24gZmlsbD0ibm9uZSIgcG9pbnRzPSIxMjY0LjUsOTY2LjcxLDEyNzAuMDIyMSw5ODQuODYyMywxMjc5LjgwOTEsOTc3LjkxODYsMTI2NC41LDk2Ni43MSIgc3R5bGU9InN0cm9rZTojMTgxODE4O3N0cm9rZS13aWR0aDoxOyIvPjwvZz48IS0tcmV2ZXJzZSBsaW5rIEFkbWluU2VydmljZSB0byBBZG1pblNlcnZpY2VJbXAtLT48ZyBjbGFzcz0ibGluayIgZGF0YS1lbnRpdHktMT0iQWRtaW5TZXJ2aWNlIiBkYXRhLWVudGl0eS0yPSJBZG1pblNlcnZpY2VJbXAiIGRhdGEtc291cmNlLWxpbmU9IjE4MSIgZGF0YS11aWQ9ImxuazE4IiBpZD0ibGlua19BZG1pblNlcnZpY2VfQWRtaW5TZXJ2aWNlSW1wIj48cGF0aCBjb2RlTGluZT0iMTgxIiBkPSJNMjAxLjU5NDYsNTUyLjUyOSBDMTc0LjAyNDYsNjY4LjEzOSAxNDkuMTEsNzcyLjYgMTM1Ljg1LDgyOC4xOCIgZmlsbD0ibm9uZSIgaWQ9IkFkbWluU2VydmljZS1iYWNrdG8tQWRtaW5TZXJ2aWNlSW1wIiBzdHlsZT0ic3Ryb2tlOiMxODE4MTg7c3Ryb2tlLXdpZHRoOjE7Ii8+PHBvbHlnb24gZmlsbD0ibm9uZSIgcG9pbnRzPSIyMDUuNzcsNTM1LjAyLDE5NS43NTgyLDU1MS4xMzcyLDIwNy40MzA5LDU1My45MjA4LDIwNS43Nyw1MzUuMDIiIHN0eWxlPSJzdHJva2U6IzE4MTgxODtzdHJva2Utd2lkdGg6MTsiLz48L2c+PCEtLXJldmVyc2UgbGluayBDYW5kaWRhdGVTZXJ2aWNlIHRvIENhbmRpZGF0ZVNlcnZpY2VJbXAtLT48ZyBjbGFzcz0ibGluayIgZGF0YS1lbnRpdHktMT0iQ2FuZGlkYXRlU2VydmljZSIgZGF0YS1lbnRpdHktMj0iQ2FuZGlkYXRlU2VydmljZUltcCIgZGF0YS1zb3VyY2UtbGluZT0iMTgyIiBkYXRhLXVpZD0ibG5rMTkiIGlkPSJsaW5rX0NhbmRpZGF0ZVNlcnZpY2VfQ2FuZGlkYXRlU2VydmljZUltcCI+PHBhdGggY29kZUxpbmU9IjE4MiIgZD0iTTE1MDkuNTg2NCwzOTQuMDI1NyBDMTU3MS40MjY0LDUzMS4wMDU3IDE2NjguMzksNzQ1Ljc4IDE3MDUuNzEsODI4LjQ2IiBmaWxsPSJub25lIiBpZD0iQ2FuZGlkYXRlU2VydmljZS1iYWNrdG8tQ2FuZGlkYXRlU2VydmljZUltcCIgc3R5bGU9InN0cm9rZTojMTgxODE4O3N0cm9rZS13aWR0aDoxOyIvPjxwb2x5Z29uIGZpbGw9Im5vbmUiIHBvaW50cz0iMTUwMi4xOCwzNzcuNjIsMTUwNC4xMTc4LDM5Ni40OTQ0LDE1MTUuMDU0OSwzOTEuNTU2OSwxNTAyLjE4LDM3Ny42MiIgc3R5bGU9InN0cm9rZTojMTgxODE4O3N0cm9rZS13aWR0aDoxOyIvPjwvZz48IS0tbGluayBBZG1pblNlcnZpY2UgdG8gQWRtaW5EYW8tLT48ZyBjbGFzcz0ibGluayIgZGF0YS1lbnRpdHktMT0iQWRtaW5TZXJ2aWNlIiBkYXRhLWVudGl0eS0yPSJBZG1pbkRhbyIgZGF0YS1zb3VyY2UtbGluZT0iMTg1IiBkYXRhLXVpZD0ibG5rMjAiIGlkPSJsaW5rX0FkbWluU2VydmljZV9BZG1pbkRhbyI+PHBhdGggY29kZUxpbmU9IjE4NSIgZD0iTTM3Mi45LDUzNS4wMiBDMzgwLjg5LDU1NS4xNiAzODIuMzE5NCw1NTguNzQ5NyAzOTAuMzA5NCw1NzguODc5NyIgZmlsbD0ibm9uZSIgaWQ9IkFkbWluU2VydmljZS10by1BZG1pbkRhbyIgc3R5bGU9InN0cm9rZTojMTgxODE4O3N0cm9rZS13aWR0aDoxO3N0cm9rZS1kYXNoYXJyYXk6Ny4wLDcuMDsiLz48cG9seWdvbiBmaWxsPSJub25lIiBwb2ludHM9IjM5Ni45NSw1OTUuNjEsMzk1Ljg4NjIsNTc2LjY2NjIsMzg0LjczMjYsNTgxLjA5MzIsMzk2Ljk1LDU5NS42MSIgc3R5bGU9InN0cm9rZTojMTgxODE4O3N0cm9rZS13aWR0aDoxOyIvPjwvZz48IS0tbGluayBDYW5kaWRhdGVTZXJ2aWNlIHRvIENhbmRpZGF0ZURhby0tPjxnIGNsYXNzPSJsaW5rIiBkYXRhLWVudGl0eS0xPSJDYW5kaWRhdGVTZXJ2aWNlIiBkYXRhLWVudGl0eS0yPSJDYW5kaWRhdGVEYW8iIGRhdGEtc291cmNlLWxpbmU9IjE4NiIgZGF0YS11aWQ9ImxuazIxIiBpZD0ibGlua19DYW5kaWRhdGVTZXJ2aWNlX0NhbmRpZGF0ZURhbyI+PHBhdGggY29kZUxpbmU9IjE4NiIgZD0iTTE0MDYuODIsMzc3LjYyIEMxMzU4LjgzLDQ4My45MSAxMjkyLjY1NTQsNjMwLjQ5MzkgMTI0NC42NTU0LDczNi44MzM5IiBmaWxsPSJub25lIiBpZD0iQ2FuZGlkYXRlU2VydmljZS10by1DYW5kaWRhdGVEYW8iIHN0eWxlPSJzdHJva2U6IzE4MTgxODtzdHJva2Utd2lkdGg6MTtzdHJva2UtZGFzaGFycmF5OjcuMCw3LjA7Ii8+PHBvbHlnb24gZmlsbD0ibm9uZSIgcG9pbnRzPSIxMjM3LjI1LDc1My4yNCwxMjUwLjEyNDEsNzM5LjMwMjQsMTIzOS4xODY3LDczNC4zNjU0LDEyMzcuMjUsNzUzLjI0IiBzdHlsZT0ic3Ryb2tlOiMxODE4MTg7c3Ryb2tlLXdpZHRoOjE7Ii8+PC9nPjwhLS1saW5rIEFkbWluU2VydmljZUltcCB0byBBZG1pbkRhb0ltcC0tPjxnIGNsYXNzPSJsaW5rIiBkYXRhLWVudGl0eS0xPSJBZG1pblNlcnZpY2VJbXAiIGRhdGEtZW50aXR5LTI9IkFkbWluRGFvSW1wIiBkYXRhLXNvdXJjZS1saW5lPSIxODkiIGRhdGEtdWlkPSJsbmsyMiIgaWQ9ImxpbmtfQWRtaW5TZXJ2aWNlSW1wX0FkbWluRGFvSW1wIj48cGF0aCBjb2RlTGluZT0iMTg5IiBkPSJNMTMzLjM1LDg5MS41IEMxNDcuMDIsOTc3LjYgMTg0Ljc2ODEsMTIxNS4yMDQ0IDE5Ni44ODgxLDEyOTEuNDU0NCIgZmlsbD0ibm9uZSIgaWQ9IkFkbWluU2VydmljZUltcC10by1BZG1pbkRhb0ltcCIgc3R5bGU9InN0cm9rZTojMTgxODE4O3N0cm9rZS13aWR0aDoxOyIvPjxwb2x5Z29uIGZpbGw9IiMxODE4MTgiIHBvaW50cz0iMTk3LjgzLDEyOTcuMzgsMjAwLjM2NzYsMTI4Ny44NjM3LDE5Ny4wNDUxLDEyOTIuNDQyLDE5Mi40NjY4LDEyODkuMTE5NSwxOTcuODMsMTI5Ny4zOCIgc3R5bGU9InN0cm9rZTojMTgxODE4O3N0cm9rZS13aWR0aDoxOyIvPjwvZz48IS0tbGluayBDYW5kaWRhdGVTZXJ2aWNlSW1wIHRvIENhbmRpZGF0ZURhb0ltcC0tPjxnIGNsYXNzPSJsaW5rIiBkYXRhLWVudGl0eS0xPSJDYW5kaWRhdGVTZXJ2aWNlSW1wIiBkYXRhLWVudGl0eS0yPSJDYW5kaWRhdGVEYW9JbXAiIGRhdGEtc291cmNlLWxpbmU9IjE5MCIgZGF0YS11aWQ9ImxuazIzIiBpZD0ibGlua19DYW5kaWRhdGVTZXJ2aWNlSW1wX0NhbmRpZGF0ZURhb0ltcCI+PHBhdGggY29kZUxpbmU9IjE5MCIgZD0iTTE3MDUuOTYsODkxLjUgQzE2NjcuNzQsOTc3LjYgMTU2Mi4wNTUxLDEyMTUuNjQ2NCAxNTI4LjE5NTEsMTI5MS44OTY0IiBmaWxsPSJub25lIiBpZD0iQ2FuZGlkYXRlU2VydmljZUltcC10by1DYW5kaWRhdGVEYW9JbXAiIHN0eWxlPSJzdHJva2U6IzE4MTgxODtzdHJva2Utd2lkdGg6MTsiLz48cG9seWdvbiBmaWxsPSIjMTgxODE4IiBwb2ludHM9IjE1MjUuNzYsMTI5Ny4zOCwxNTMzLjA2ODQsMTI5MC43Nzc5LDE1MjcuNzg5MiwxMjkyLjgxMDMsMTUyNS43NTY5LDEyODcuNTMxMSwxNTI1Ljc2LDEyOTcuMzgiIHN0eWxlPSJzdHJva2U6IzE4MTgxODtzdHJva2Utd2lkdGg6MTsiLz48L2c+PCEtLWxpbmsgQWRtaW5EYW8gdG8gQWNjb3VudEFkbWluLS0+PGcgY2xhc3M9ImxpbmsiIGRhdGEtZW50aXR5LTE9IkFkbWluRGFvIiBkYXRhLWVudGl0eS0yPSJBY2NvdW50QWRtaW4iIGRhdGEtc291cmNlLWxpbmU9IjE5MyIgZGF0YS11aWQ9ImxuazI0IiBpZD0ibGlua19BZG1pbkRhb19BY2NvdW50QWRtaW4iPjxwYXRoIGNvZGVMaW5lPSIxOTMiIGQ9Ik00NDMuMywxMTI0LjI0IEM0NDAuMTcsMTE0NC43MiA0MzcuNSwxMTY1LjE1IDQzNS41LDExODUgQzQyMy4zMywxMzA1LjcyIDQyOC41MiwxMzM2Ljg3IDQzNS41LDE0NTggQzQzOC4xOSwxNTA0LjY0IDQ0NC4wODYsMTU1Mi4wNDgyIDQ0OC45OTYsMTU4Ny4wMjgyIiBmaWxsPSJub25lIiBpZD0iQWRtaW5EYW8tdG8tQWNjb3VudEFkbWluIiBzdHlsZT0ic3Ryb2tlOiMxODE4MTg7c3Ryb2tlLXdpZHRoOjE7Ii8+PHBvbHlnb24gZmlsbD0iIzE4MTgxOCIgcG9pbnRzPSI0NDkuODMsMTU5Mi45Nyw0NTIuNTQwMSwxNTgzLjUwMTQsNDQ5LjEzNSwxNTg4LjAxODUsNDQ0LjYxNzgsMTU4NC42MTM0LDQ0OS44MywxNTkyLjk3IiBzdHlsZT0ic3Ryb2tlOiMxODE4MTg7c3Ryb2tlLXdpZHRoOjE7Ii8+PC9nPjwhLS1saW5rIEFkbWluRGFvIHRvIENhbmRpZGF0ZS0tPjxnIGNsYXNzPSJsaW5rIiBkYXRhLWVudGl0eS0xPSJBZG1pbkRhbyIgZGF0YS1lbnRpdHktMj0iQ2FuZGlkYXRlIiBkYXRhLXNvdXJjZS1saW5lPSIxOTQiIGRhdGEtdWlkPSJsbmsyNSIgaWQ9ImxpbmtfQWRtaW5EYW9fQ2FuZGlkYXRlIj48cGF0aCBjb2RlTGluZT0iMTk0IiBkPSJNNTkwLjU5LDExMjQuMzIgQzU5Ni44NiwxMTQ0Ljc5IDYwMi45MSwxMTY1LjE5IDYwOC41LDExODUgQzY0MS45OSwxMzAzLjY2IDY3Mi4xNTUxLDE0MzYuMjY0OCA2OTEuNzM1MSwxNTI3LjA1NDgiIGZpbGw9Im5vbmUiIGlkPSJBZG1pbkRhby10by1DYW5kaWRhdGUiIHN0eWxlPSJzdHJva2U6IzE4MTgxODtzdHJva2Utd2lkdGg6MTsiLz48cG9seWdvbiBmaWxsPSIjMTgxODE4IiBwb2ludHM9IjY5MywxNTMyLjkyLDY5NS4wMTI4LDE1MjMuMjc5LDY5MS45NDU5LDE1MjguMDMyNCw2ODcuMTkyNiwxNTI0Ljk2NTUsNjkzLDE1MzIuOTIiIHN0eWxlPSJzdHJva2U6IzE4MTgxODtzdHJva2Utd2lkdGg6MTsiLz48L2c+PCEtLWxpbmsgQWRtaW5EYW8gdG8gQXBwbGljYXRpb24tLT48ZyBjbGFzcz0ibGluayIgZGF0YS1lbnRpdHktMT0iQWRtaW5EYW8iIGRhdGEtZW50aXR5LTI9IkFwcGxpY2F0aW9uIiBkYXRhLXNvdXJjZS1saW5lPSIxOTUiIGRhdGEtdWlkPSJsbmsyNiIgaWQ9ImxpbmtfQWRtaW5EYW9fQXBwbGljYXRpb24iPjxwYXRoIGNvZGVMaW5lPSIxOTUiIGQ9Ik03MDYuMDYsMTEyNC4zIEM3MjIuMTksMTE0NS4wNSA3MzQuMzM3NywxMTYwLjY5MjggNzQ5LjM0NzcsMTE4MC4wMDI4IiBmaWxsPSJub25lIiBpZD0iQWRtaW5EYW8tdG8tQXBwbGljYXRpb24iIHN0eWxlPSJzdHJva2U6IzE4MTgxODtzdHJva2Utd2lkdGg6MTsiLz48cG9seWdvbiBmaWxsPSIjMTgxODE4IiBwb2ludHM9Ijc1My4wMywxMTg0Ljc0LDc1MC42NjQ3LDExNzUuMTc5NCw3NDkuOTYxNCwxMTgwLjc5MjQsNzQ0LjM0ODUsMTE4MC4wODkxLDc1My4wMywxMTg0Ljc0IiBzdHlsZT0ic3Ryb2tlOiMxODE4MTg7c3Ryb2tlLXdpZHRoOjE7Ii8+PC9nPjwhLS1saW5rIEFkbWluRGFvIHRvIFJlY3J1aXRtZW50UG9zaXRpb24tLT48ZyBjbGFzcz0ibGluayIgZGF0YS1lbnRpdHktMT0iQWRtaW5EYW8iIGRhdGEtZW50aXR5LTI9IlJlY3J1aXRtZW50UG9zaXRpb24iIGRhdGEtc291cmNlLWxpbmU9IjE5NiIgZGF0YS11aWQ9ImxuazI3IiBpZD0ibGlua19BZG1pbkRhb19SZWNydWl0bWVudFBvc2l0aW9uIj48cGF0aCBjb2RlTGluZT0iMTk2IiBkPSJNNzYzLjE0LDExMTMuODcgQzc2OC44OSwxMTE3LjM5IDc3NC42OCwxMTIwLjc3IDc4MC41LDExMjQgQzg3My4zMywxMTc1LjU2IDkzNS44NCwxMTEwLjQ5IDEwMTEuNSwxMTg1IEMxMTE1Ljc0LDEyODcuNjUgMTEzMy41NywxMzYxLjQ4IDEwOTYuNSwxNTAzIEMxMDkzLjIsMTUxNS41OCAxMDkwLjg5MTIsMTUyMi43ODU0IDEwODUuMjUxMiwxNTM0Ljk2NTQiIGZpbGw9Im5vbmUiIGlkPSJBZG1pbkRhby10by1SZWNydWl0bWVudFBvc2l0aW9uIiBzdHlsZT0ic3Ryb2tlOiMxODE4MTg7c3Ryb2tlLXdpZHRoOjE7Ii8+PHBvbHlnb24gZmlsbD0iIzE4MTgxOCIgcG9pbnRzPSIxMDgyLjczLDE1NDAuNDEsMTA5MC4xNDE1LDE1MzMuOTIzOCwxMDg0LjgzMSwxNTM1Ljg3MjgsMTA4Mi44ODIsMTUzMC41NjIzLDEwODIuNzMsMTU0MC40MSIgc3R5bGU9InN0cm9rZTojMTgxODE4O3N0cm9rZS13aWR0aDoxOyIvPjwvZz48IS0tbGluayBBZG1pbkRhbyB0byBUZWNobm9sb2d5LS0+PGcgY2xhc3M9ImxpbmsiIGRhdGEtZW50aXR5LTE9IkFkbWluRGFvIiBkYXRhLWVudGl0eS0yPSJUZWNobm9sb2d5IiBkYXRhLXNvdXJjZS1saW5lPSIxOTciIGRhdGEtdWlkPSJsbmsyOCIgaWQ9ImxpbmtfQWRtaW5EYW9fVGVjaG5vbG9neSI+PHBhdGggY29kZUxpbmU9IjE5NyIgZD0iTTQzMy4zOSwxMTI0LjQzIEM0MjguOCwxMTQ0Ljg3IDQyNC40NCwxMTY1LjI0IDQyMC41LDExODUgQzM4OS45NCwxMzM4LjM3IDM4Mi41OSwxMzc3LjI1IDM2OC41LDE1MzMgQzM1OS42NCwxNjMwLjkyIDM1OC4zMjIsMTc0MC44IDM1OC4zMDIsMTc5OS42MSIgZmlsbD0ibm9uZSIgaWQ9IkFkbWluRGFvLXRvLVRlY2hub2xvZ3kiIHN0eWxlPSJzdHJva2U6IzE4MTgxODtzdHJva2Utd2lkdGg6MTsiLz48cG9seWdvbiBmaWxsPSIjMTgxODE4IiBwb2ludHM9IjM1OC4zLDE4MDUuNjEsMzYyLjMsMTc5Ni42MSwzNTguMywxODAwLjYxLDM1NC4zLDE3OTYuNjEsMzU4LjMsMTgwNS42MSIgc3R5bGU9InN0cm9rZTojMTgxODE4O3N0cm9rZS13aWR0aDoxOyIvPjwvZz48IS0tbGluayBBZG1pbkRhbyB0byBMb2dpbi0tPjxnIGNsYXNzPSJsaW5rIiBkYXRhLWVudGl0eS0xPSJBZG1pbkRhbyIgZGF0YS1lbnRpdHktMj0iTG9naW4iIGRhdGEtc291cmNlLWxpbmU9IjE5OCIgZGF0YS11aWQ9ImxuazI5IiBpZD0ibGlua19BZG1pbkRhb19Mb2dpbiI+PHBhdGggY29kZUxpbmU9IjE5OCIgZD0iTTUxMy41MywxMTI0LjMgQzUxNi4zOCwxMTg2LjY2IDUxOC44MDU3LDEyMzkuNjU2MyA1MjAuNDg1NywxMjc2LjM2NjMiIGZpbGw9Im5vbmUiIGlkPSJBZG1pbkRhby10by1Mb2dpbiIgc3R5bGU9InN0cm9rZTojMTgxODE4O3N0cm9rZS13aWR0aDoxOyIvPjxwb2x5Z29uIGZpbGw9IiMxODE4MTgiIHBvaW50cz0iNTIwLjc2LDEyODIuMzYsNTI0LjM0NDQsMTI3My4xODY1LDUyMC41MzE0LDEyNzcuMzY1Miw1MTYuMzUyNywxMjczLjU1MjMsNTIwLjc2LDEyODIuMzYiIHN0eWxlPSJzdHJva2U6IzE4MTgxODtzdHJva2Utd2lkdGg6MTsiLz48L2c+PCEtLWxpbmsgQ2FuZGlkYXRlRGFvIHRvIENhbmRpZGF0ZS0tPjxnIGNsYXNzPSJsaW5rIiBkYXRhLWVudGl0eS0xPSJDYW5kaWRhdGVEYW8iIGRhdGEtZW50aXR5LTI9IkNhbmRpZGF0ZSIgZGF0YS1zb3VyY2UtbGluZT0iMjAwIiBkYXRhLXVpZD0ibG5rMzAiIGlkPSJsaW5rX0NhbmRpZGF0ZURhb19DYW5kaWRhdGUiPjxwYXRoIGNvZGVMaW5lPSIyMDAiIGQ9Ik0xMTg3LjA3LDk2Ni43IEMxMTc4LjI3LDEwOTkuMjYgMTE0My4zMiwxMzI1LjIxIDEwMTEuNSwxNDU4IEM5NzkuNDEsMTQ5MC4zMyA5NTQuMzQsMTQ2Ny44MiA5MTMuNSwxNDg4IEM4NzEuNCwxNTA4LjggODMzLjM0MDcsMTUzNC41MDQ0IDc5OC4xNjA3LDE1NjEuMTg0NCIgZmlsbD0ibm9uZSIgaWQ9IkNhbmRpZGF0ZURhby10by1DYW5kaWRhdGUiIHN0eWxlPSJzdHJva2U6IzE4MTgxODtzdHJva2Utd2lkdGg6MTsiLz48cG9seWdvbiBmaWxsPSIjMTgxODE4IiBwb2ludHM9Ijc5My4zOCwxNTY0LjgxLDgwMi45NjgxLDE1NjIuNTU4Nyw3OTcuMzYzOSwxNTYxLjc4ODcsNzk4LjEzNCwxNTU2LjE4NDUsNzkzLjM4LDE1NjQuODEiIHN0eWxlPSJzdHJva2U6IzE4MTgxODtzdHJva2Utd2lkdGg6MTsiLz48L2c+PCEtLWxpbmsgQ2FuZGlkYXRlRGFvIHRvIEFwcGxpY2F0aW9uLS0+PGcgY2xhc3M9ImxpbmsiIGRhdGEtZW50aXR5LTE9IkNhbmRpZGF0ZURhbyIgZGF0YS1lbnRpdHktMj0iQXBwbGljYXRpb24iIGRhdGEtc291cmNlLWxpbmU9IjIwMSIgZGF0YS11aWQ9ImxuazMxIiBpZD0ibGlua19DYW5kaWRhdGVEYW9fQXBwbGljYXRpb24iPjxwYXRoIGNvZGVMaW5lPSIyMDEiIGQ9Ik0xMTEzLjM1LDk2Ni43MSBDMTA2Ni42OCwxMDMxLjUgMTAwOS45NzcsMTExMC4yMjE2IDk1OS43OTcsMTE3OS44ODE2IiBmaWxsPSJub25lIiBpZD0iQ2FuZGlkYXRlRGFvLXRvLUFwcGxpY2F0aW9uIiBzdHlsZT0ic3Ryb2tlOiMxODE4MTg7c3Ryb2tlLXdpZHRoOjE7Ii8+PHBvbHlnb24gZmlsbD0iIzE4MTgxOCIgcG9pbnRzPSI5NTYuMjksMTE4NC43NSw5NjQuNzk2LDExNzkuNzg1NCw5NTkuMjEyNSwxMTgwLjY5Myw5NTguMzA0OSwxMTc1LjEwOTQsOTU2LjI5LDExODQuNzUiIHN0eWxlPSJzdHJva2U6IzE4MTgxODtzdHJva2Utd2lkdGg6MTsiLz48L2c+PCEtLWxpbmsgQ2FuZGlkYXRlRGFvIHRvIFJlY3J1aXRtZW50UG9zaXRpb24tLT48ZyBjbGFzcz0ibGluayIgZGF0YS1lbnRpdHktMT0iQ2FuZGlkYXRlRGFvIiBkYXRhLWVudGl0eS0yPSJSZWNydWl0bWVudFBvc2l0aW9uIiBkYXRhLXNvdXJjZS1saW5lPSIyMDIiIGRhdGEtdWlkPSJsbmszMiIgaWQ9ImxpbmtfQ2FuZGlkYXRlRGFvX1JlY3J1aXRtZW50UG9zaXRpb24iPjxwYXRoIGNvZGVMaW5lPSIyMDIiIGQ9Ik0xMjAzLjAzLDk2Ni42OSBDMTIxNS4yOCwxMDk4LjI3IDEyMjEuMjcsMTMyNy4xMyAxMTQ0LjUsMTUwMyBDMTEzNy4xMywxNTE5Ljg5IDExMzAuMzE2LDE1MzEuMjg3MiAxMTE4LjQzNiwxNTQ1Ljk1NzIiIGZpbGw9Im5vbmUiIGlkPSJDYW5kaWRhdGVEYW8tdG8tUmVjcnVpdG1lbnRQb3NpdGlvbiIgc3R5bGU9InN0cm9rZTojMTgxODE4O3N0cm9rZS13aWR0aDoxOyIvPjxwb2x5Z29uIGZpbGw9IiMxODE4MTgiIHBvaW50cz0iMTExNC42NiwxNTUwLjYyLDExMjMuNDMyNiwxNTQ2LjE0MzEsMTExNy44MDY3LDE1NDYuNzM0MywxMTE3LjIxNTUsMTU0MS4xMDg1LDExMTQuNjYsMTU1MC42MiIgc3R5bGU9InN0cm9rZTojMTgxODE4O3N0cm9rZS13aWR0aDoxOyIvPjwvZz48IS0tbGluayBBcHBsaWNhdGlvbiB0byBDYW5kaWRhdGUtLT48ZyBjbGFzcz0ibGluayIgZGF0YS1lbnRpdHktMT0iQXBwbGljYXRpb24iIGRhdGEtZW50aXR5LTI9IkNhbmRpZGF0ZSIgZGF0YS1zb3VyY2UtbGluZT0iMjA1IiBkYXRhLXVpZD0ibG5rMzMiIGlkPSJsaW5rX0FwcGxpY2F0aW9uX0NhbmRpZGF0ZSI+PHBhdGggY29kZUxpbmU9IjIwNSIgZD0iTTc2My4xNiwxNDU4LjE0IEM3NTcuODIsMTQ2OC4wNCA3NTIuODcsMTQ3OC4wNSA3NDguNSwxNDg4IEM3NDIuMjksMTUwMi4xNiA3MzguNzAzOSwxNTExLjg0OTYgNzM0LjMzMzksMTUyNy4xODk2IiBmaWxsPSJub25lIiBpZD0iQXBwbGljYXRpb24tdG8tQ2FuZGlkYXRlIiBzdHlsZT0ic3Ryb2tlOiMxODE4MTg7c3Ryb2tlLXdpZHRoOjE7Ii8+PHBvbHlnb24gZmlsbD0iIzE4MTgxOCIgcG9pbnRzPSI3MzIuNjksMTUzMi45Niw3MzkuMDAyNywxNTI1LjQwMDMsNzM0LjA1OTksMTUyOC4xNTEzLDczMS4zMDg4LDE1MjMuMjA4NSw3MzIuNjksMTUzMi45NiIgc3R5bGU9InN0cm9rZTojMTgxODE4O3N0cm9rZS13aWR0aDoxOyIvPjx0ZXh0IGZpbGw9IiMwMDAwMDAiIGZvbnQtZmFtaWx5PSJzYW5zLXNlcmlmIiBmb250LXNpemU9IjEzIiBsZW5ndGhBZGp1c3Q9InNwYWNpbmciIHRleHRMZW5ndGg9Ijk3LjUiIHg9Ijc0OS41IiB5PSIxNTAxLjI4OTEiPmNhbmRpZGF0ZUlkICgxKTwvdGV4dD48L2c+PCEtLWxpbmsgQXBwbGljYXRpb24gdG8gUmVjcnVpdG1lbnRQb3NpdGlvbi0tPjxnIGNsYXNzPSJsaW5rIiBkYXRhLWVudGl0eS0xPSJBcHBsaWNhdGlvbiIgZGF0YS1lbnRpdHktMj0iUmVjcnVpdG1lbnRQb3NpdGlvbiIgZGF0YS1zb3VyY2UtbGluZT0iMjA2IiBkYXRhLXVpZD0ibG5rMzQiIGlkPSJsaW5rX0FwcGxpY2F0aW9uX1JlY3J1aXRtZW50UG9zaXRpb24iPjxwYXRoIGNvZGVMaW5lPSIyMDYiIGQ9Ik05MDYuNTMsMTQ1OC40MSBDOTEzLjMyLDE0NzMuNzMgOTIwLjY3LDE0ODguODkgOTI4LjUsMTUwMyBDOTM1LjQ0LDE1MTUuNTEgOTQwLjA4NDksMTUyMy4yMTI5IDk0OC40ODQ5LDE1MzUuNDUyOSIgZmlsbD0ibm9uZSIgaWQ9IkFwcGxpY2F0aW9uLXRvLVJlY3J1aXRtZW50UG9zaXRpb24iIHN0eWxlPSJzdHJva2U6IzE4MTgxODtzdHJva2Utd2lkdGg6MTsiLz48cG9seWdvbiBmaWxsPSIjMTgxODE4IiBwb2ludHM9Ijk1MS44OCwxNTQwLjQsOTUwLjA4NTUsMTUzMC43MTYsOTQ5LjA1MDgsMTUzNi4yNzc0LDk0My40ODk0LDE1MzUuMjQyNyw5NTEuODgsMTU0MC40IiBzdHlsZT0ic3Ryb2tlOiMxODE4MTg7c3Ryb2tlLXdpZHRoOjE7Ii8+PHRleHQgZmlsbD0iIzAwMDAwMCIgZm9udC1mYW1pbHk9InNhbnMtc2VyaWYiIGZvbnQtc2l6ZT0iMTMiIGxlbmd0aEFkanVzdD0ic3BhY2luZyIgdGV4dExlbmd0aD0iMTYyLjUiIHg9IjkyOS41IiB5PSIxNTAxLjI4OTEiPnJlY3J1aXRtZW50UG9zaXRpb25JZCAoMSk8L3RleHQ+PC9nPjwhLS1saW5rIFJlY3J1aXRtZW50UG9zaXRpb24gdG8gVGVjaG5vbG9neS0tPjxnIGNsYXNzPSJsaW5rIiBkYXRhLWVudGl0eS0xPSJSZWNydWl0bWVudFBvc2l0aW9uIiBkYXRhLWVudGl0eS0yPSJUZWNobm9sb2d5IiBkYXRhLXNvdXJjZS1saW5lPSIyMDciIGRhdGEtdWlkPSJsbmszNSIgaWQ9ImxpbmtfUmVjcnVpdG1lbnRQb3NpdGlvbl9UZWNobm9sb2d5Ij48cGF0aCBjb2RlTGluZT0iMjA3IiBkPSJNOTM0LjM4LDE2NzguNzUgQzg5Ni43NCwxNjk2LjY4IDg1Mi4xNSwxNzE2LjQgODEwLjUsMTczMSBDNjcwLjgxLDE3NzkuOTcgNTA1Ljc0NzEsMTgxNS41MTE0IDQxOS42MTcxLDE4MzIuNDYxNCIgZmlsbD0ibm9uZSIgaWQ9IlJlY3J1aXRtZW50UG9zaXRpb24tdG8tVGVjaG5vbG9neSIgc3R5bGU9InN0cm9rZTojMTgxODE4O3N0cm9rZS13aWR0aDoxOyIvPjxwb2x5Z29uIGZpbGw9IiMxODE4MTgiIHBvaW50cz0iNDEzLjczLDE4MzMuNjIsNDIzLjMzMywxODM1LjgwNjksNDE4LjYzNTksMTgzMi42NTQ1LDQyMS43ODgzLDE4MjcuOTU3NCw0MTMuNzMsMTgzMy42MiIgc3R5bGU9InN0cm9rZTojMTgxODE4O3N0cm9rZS13aWR0aDoxOyIvPjx0ZXh0IGZpbGw9IiMwMDAwMDAiIGZvbnQtZmFtaWx5PSJzYW5zLXNlcmlmIiBmb250LXNpemU9IjEzIiBsZW5ndGhBZGp1c3Q9InNwYWNpbmciIHRleHRMZW5ndGg9IjEzMCIgeD0iNzE0LjUiIHk9IjE3NzQuMjg5MSI+dGVjaG5vbG9neUlkcyAoMC4uMSk8L3RleHQ+PC9nPjwhLS1saW5rIExvZ2luIHRvIENhbmRpZGF0ZS0tPjxnIGNsYXNzPSJsaW5rIiBkYXRhLWVudGl0eS0xPSJMb2dpbiIgZGF0YS1lbnRpdHktMj0iQ2FuZGlkYXRlIiBkYXRhLXNvdXJjZS1saW5lPSIyMDgiIGRhdGEtdWlkPSJsbmszNiIgaWQ9ImxpbmtfTG9naW5fQ2FuZGlkYXRlIj48cGF0aCBjb2RlTGluZT0iMjA4IiBkPSJNNTI3LjYxLDEzNjAuNTEgQzUzNC4wOCwxMzk4LjggNTQ3LjkxLDE0NTguNDMgNTc1LjUsMTUwMyBDNTkwLjg5LDE1MjcuODcgNjA3Ljk1NjUsMTU0Ni45NDcyIDYyOS40MDY1LDE1NjYuNTA3MiIgZmlsbD0ibm9uZSIgaWQ9IkxvZ2luLXRvLUNhbmRpZGF0ZSIgc3R5bGU9InN0cm9rZTojMTgxODE4O3N0cm9rZS13aWR0aDoxOyIvPjxwb2x5Z29uIGZpbGw9IiMxODE4MTgiIHBvaW50cz0iNjMzLjg0LDE1NzAuNTUsNjI5Ljg4NSwxNTYxLjUzMDEsNjMwLjE0NTQsMTU2Ny4xODEsNjI0LjQ5NDYsMTU2Ny40NDE0LDYzMy44NCwxNTcwLjU1IiBzdHlsZT0ic3Ryb2tlOiMxODE4MTg7c3Ryb2tlLXdpZHRoOjE7Ii8+PHRleHQgZmlsbD0iIzAwMDAwMCIgZm9udC1mYW1pbHk9InNhbnMtc2VyaWYiIGZvbnQtc2l6ZT0iMTMiIGxlbmd0aEFkanVzdD0ic3BhY2luZyIgdGV4dExlbmd0aD0iNzgiIHg9IjU3Ni41IiB5PSIxNTAxLjI4OTEiPmVtYWlsICgwLi4xKTwvdGV4dD48L2c+PCEtLWxpbmsgTG9naW4gdG8gQWNjb3VudEFkbWluLS0+PGcgY2xhc3M9ImxpbmsiIGRhdGEtZW50aXR5LTE9IkxvZ2luIiBkYXRhLWVudGl0eS0yPSJBY2NvdW50QWRtaW4iIGRhdGEtc291cmNlLWxpbmU9IjIwOSIgZGF0YS11aWQ9ImxuazM3IiBpZD0ibGlua19Mb2dpbl9BY2NvdW50QWRtaW4iPjxwYXRoIGNvZGVMaW5lPSIyMDkiIGQ9Ik01MDIuMTIsMTM2MC42NSBDNDg1Ljg2LDEzOTMuMzggNDY0LjM5LDE0NDIuMzYgNDU1LjUsMTQ4OCBDNDQ4LjY3LDE1MjMuMDkgNDQ5LjA5NTQsMTU1Ny45NjUgNDUxLjE1NTQsMTU4Ny4wMDUiIGZpbGw9Im5vbmUiIGlkPSJMb2dpbi10by1BY2NvdW50QWRtaW4iIHN0eWxlPSJzdHJva2U6IzE4MTgxODtzdHJva2Utd2lkdGg6MTsiLz48cG9seWdvbiBmaWxsPSIjMTgxODE4IiBwb2ludHM9IjQ1MS41OCwxNTkyLjk5LDQ1NC45MzMxLDE1ODMuNzI5NSw0NTEuMjI2MiwxNTg4LjAwMjUsNDQ2Ljk1MzIsMTU4NC4yOTU2LDQ1MS41OCwxNTkyLjk5IiBzdHlsZT0ic3Ryb2tlOiMxODE4MTg7c3Ryb2tlLXdpZHRoOjE7Ii8+PHRleHQgZmlsbD0iIzAwMDAwMCIgZm9udC1mYW1pbHk9InNhbnMtc2VyaWYiIGZvbnQtc2l6ZT0iMTMiIGxlbmd0aEFkanVzdD0ic3BhY2luZyIgdGV4dExlbmd0aD0iNzgiIHg9IjQ1Ni41IiB5PSIxNTAxLjI4OTEiPmVtYWlsICgwLi4xKTwvdGV4dD48L2c+PCEtLVNSQz1beExiQlN6aXM0QnhoTC0wTVVhZmZzZ2ljeU9uVVFKYVpzbmg5eEhxWExuOGM5QzYyYTZzc3dOeWxJODA0RzgycTlpVDRralpROV9Sck9LYnpHOV9nM3RmdU1jLXN5bHo5ZEVBb0g4aXVmZlVTQnZBQ3ZFWlYySEFWQU84Q2F0SUUzZm9IX0FIZVhQMS1mSXBmb0Z6RGI4YWpGTnN0eFdoZDJLYW1YcXdWMjJjSVNfS2pubmRxWjV0Ykc5N0ZEN1ZLdG1mVzFGOE9KM3lkbzFEV0ZUNklPdHVmVXlHNG9mWUhXWEVRenBkcW9ub2pISW13bDN0NHg0OXUxWmRWcVBCS0lqUzdFa245ckVnMEt5b2dFTGdJcW5mWWFrNnF2VTZ0T0h4OUR6eG1PbVJZdDRiei1CY2VQdXBKOWV1a091R0RDSmQ0dnZvY3o1SDVJVWRNVHI0S0FPZG5JRTFuc202SEhNUGt2Y28xLUVMRnZoRzFlb1M2UFJ6YUdXZE8ydTdORlZueldQQnQ4ZGFjNkduOHhnNnlmN3A4dDlSYU51VHVqVDV0Vk9tUGJ6bjdvWnJqbUhjajVqbmxOZlBvWTdpZmFYNmtDaHE3TjFlenJuTnBrUWxyREtxaXIzdWVzNWFsZFhKZURFNFRTR29lR1BtcmZpaEtCczg0a0diNm1UdFMwWVNiYlBBSVR3MUhvc201dU1EN2tMVFk5Mi0xeVFYaWkyY204MkRxcTQ5Ty1LOWYyWlpOSHVkQXJIZFlockFfVGJGX2V6VzlmMjN3ck1WU0NPTUp2MTVVek9iZGl6Y1Q0T2ZFd0d1Qk95c1djMzkyTk9pNFBkdVRKeEFxWGhJZ0pPWDZyTUdtaGZlWlExLXRJeHFjdFZqQXYweWhGa0Z5MThTNk52LUVFWmozbGlMRzB6LWZpV3JBN0tjVVE1a3pnRnJ6U1lJZlE0V0RZZTdlRDlLcjBRSWpjcDdUblVheGI3dmxoZmwwbGROVXFKNW9OdUZra3Jnb3lyaG1EQkNsRXlON2FTdEdTU1BRbVFUVXFwck5OalNoN2Z4UERDUGJxUlRnaTlRTFhDUTBNVlpQLVowYUpUa1Zjbm1rZ25zWmlSV1hXYUItbEtBeG5ZTlpPM2VkMWhMMzdHTlVKYVU3dVgzd2lXV0hUdy03V082TW1LUWpQTUVnWlFpWEg0dW9WNUMtUUVpVFJQNDJFUWlBYTF0Q1N3dnoxVXZITFdYeTVzSUQtcnJnSkVuTjdTY2VRN05tMHJVOC1ZWGtCZFRYVnd5QmFKRFNUYW1JV1h3Z0ZnZlNUcHRlMGxUSnFONVFGLXR0NVNzRlg2TTNHdUw1RXJNVkFKRVJoUnlTWElEeEtNWWxIRHdYVlFYcXlMdFIxSndyb0lsOUZzMDFjTnltRjBFejU4a1c0UUQ3bVpqTnZSOVF3R0N2WG5pdlhoZ0QtcXRqZ3ZnWGxHT2t3WFBXSk9iNjFobFBKSlh2MEt5dTBhajZ5a1E1RkZWbm52b0xUY2l3UkZQX0hRa0RWdEN3ckQ3NlNEa1VSamxKUk5rd1JLLXR4VWI3c3Z1S21DalJHSnZVT3hMTHBSbHpRYzJyd2J5RWpfTmdqYnh6ckVrTFB2WFlPX01RTXVrT2lPRHpHbGxEVGw0U0ZKcVVfZVhzMXFNaXNWS2hCUDhMQVRJa1BPZWR0SWtqWnotY0tfQ1BRNjh6ejNKU3RrUE5jc29kcmNrc1BNaEpFZ1E5Q19ZczJxRklTMERsTjhubU1LVFlrdlpEbGpyaFg3NWlEc21oTnVSSEltY2tuSmhqcS1jekZvQ3o2S3pVd2JHdFRaQ2djYjVka0o1ZnhoV01IbUU1aE0wcWR5Tm1KUDhiZTNTOGNvdnRNeGw0elc0U2JkYThYLWF4WUNaMkduc3ltQVRLVGlNUDVBOHBaQlZoYmFpcUR6LWhlLTJ0RXFWTXp6RjR0OHpfWlJ2RnRhd0JLQlQtM0szMWh4RVBxOUlfM19ORnJtMnhBc0J6N2NMQl9HeTBdLS0+PC9nPjwvc3ZnPg==;" vertex="1" parent="1">
            <mxGeometry x="-390" y="-1150" width="1852" height="1890" as="geometry" />
          </mxCell>
        </UserObject>
      </root>
    </mxGraphModel>
  </diagram>
</mxfile>
